<?xml version="1.0" encoding="UTF-8"?>
<svg id="Layer_2" data-name="Layer 2" xmlns="http://www.w3.org/2000/svg" viewBox="0 0 510.671653197220621 165.000000000000909">
  <g id="Layer_1-2" data-name="Layer 1">
    <g>
      <path d="M510.413151105925863,88.27173163081352v-29.857900178732962c-.000077882930782-.000077882928963.000155765852469-.000467297568321.000077882925325-.000545180495465-22.392432126718631-22.392354243791488-53.563672118303657-34.62386806746872-85.185386964749341-33.518787203765896v-8.653182702197228c0-2.151126468068469-6.333206046485429-6.982905430862957-7.795847432085793-8.445468933536176-1.912493177040233-1.912493177043871-3.828413202905722-3.83565631519923-5.837247561737968-5.647057451851651-.319397887236846-.287933184376016-2.608221371798209-1.972930329078736-2.608221371798209-2.148789980234142v26.622409705782047c-10.590286884445959,1.898162718307503-20.908762350589313,5.273219398022775-30.565544461456739,10.049779364951974-11.249176454317421,5.564190016588327-21.024340615564142,13.003567287762053-30.202765783387804,21.265076745645274-22.634258617787054-22.360889540927019-54.072714934933174-34.447619001675776-85.867407764204472-33.005227177323832-15.818022652587388.717613297494609-31.440948570836554,4.718848717369838-45.635968889315336,11.740150431678558-11.329317987110699,5.603832426877489-21.164529885751108,13.108241942833047-30.399809590928271,21.440391216305215-22.647342949670929-22.474053435138558-54.168978233794405-34.626671852876825-86.047395210536706-33.180541647983773-15.818022652587388.717613297494609-31.440948570834735,4.718848717369838-45.636046772246118,11.740150431678558-11.999344815661971,5.935302167939881-22.320312535501216,14.005842686661708-32.029821388541677,22.930603158374652-3.76190118249724,3.176221564834123-12.595928043230742,11.949110327184826-18.041736009441593,17.749908678672-.82859646972247.866836987312126-1.618718773073851,1.707972608428463-2.303465475002668,2.462035116168408-.880232850908214.83545016737844-1.941309860354522,1.893567625565993-2.175348058639429,2.671618075093647-.029517629664042.056465122715963-.036137678534942.092524918323761-.048365298212957.133569221314247-.032632946778904.075780088829561-.043536556684558.130999084698487-.020872624672847.154208197205662.000155765856107.000155765852469-.000311531710395.000934595131184-.000155765856107.001090360992748l.000077882927144.000077882927144v82.224433812576535c0,.03676074195937,4.47912506535431-3.743676577372753,3.912215233309325-3.223184970343937,2.988679474499804-2.744127080952239,5.887637816076676-5.602274768323696,8.755910284073252-8.470547236314815,2.870686838756228-2.870686838758047,5.723927901668503-5.765906799799268,8.470547236312996-8.755910284071433.739654166085529-.805153708432044,3.223184970347575-2.811729462353469,3.223184970347575-3.912215233309325v-39.435709000728821c18.352255242900355,10.450798560612384,39.356813594784398,15.842633657801343,60.823451357782687,15.095346964786586v7.943124048702884c0,2.151126468070288,6.333128163554647,6.982827547939451,7.79576954915683,8.445468933539814,1.912493177038414,1.912493177042052,3.82841320290936,3.835656315201049,5.837325444663293,5.646979568924507.319397887240484.288011067304978,2.608143488871065,1.973008212002242,2.608143488871065,2.148789980232323v-25.914453891342419c10.884061288414159-1.951590406839387,21.483148943711058-5.461929732282442,31.36470118444231-10.44635923372698,10.028205793931193-5.058418282929779,18.87780924024446-11.614057971437433,27.187761879265963-18.893697357527344v55.410509987139449c0,.869718655643737,3.085643719708969,3.76236848006738,3.223184970347575,3.912215233309325,2.744127080952239,2.988679474497985,5.602274768320058,5.887637816076676,8.470547236312996,8.755910284071433,2.870686838759866,2.870686838758047,5.765906799801087,5.723927901672141,8.755910284073252,8.470547236314815.480070367453663.440973137659967,3.91229311623465,2.952074498392903,3.91229311623465,3.223184970343937v-65.02889581456111c2.373715875948619,1.417858702066951,4.791825020793112,2.753940329863326,7.254405317458804,3.99773068812101,1.437485199894581,1.289897051561638,2.851293989713668,2.49599207272513,3.917900687041765,3.577007111707644,3.241331692543099,3.28517978093987,6.518255883125676,6.535701658975086,9.781550561332551,9.798996337178323,8.718682244545562,8.718682244545562,17.437364489085667,17.437364489089305,26.15604673362941,26.155968850700447,3.60006045836235,3.600138341291313,7.184154916507396,7.220292595045976,10.905323327722726,10.696207666365808,1.409836760500184,1.316844544609921,3.268123419737094,3.922106365149375,5.206317962976755,4.417675435253841.76278539566556.195096734345498,1.844579263926789,0,2.623019128095621,0h88.580848971572777c.036760741957551,0-3.743676577374572-4.479125065350672-3.223184970347575-3.912215233307506-2.744049198025095-2.988679474496166-5.602274768320058-5.887637816076676-8.470547236312996-8.755910284069614-2.870608955832722-2.870686838756228-5.765906799801087-5.723927901670322-8.755910284073252-8.470547236312996-.805153708432044-.739654166085529-2.811651579422687-3.223184970349394-3.912215233305687-3.223184970349394h-90.252761784389804c-4.786684747552499-4.786606864627174-9.573213729248891-9.573291612179673-14.359898476801391-14.359976359732173v-8.589630233045682c12.6562094294095,3.895937701381627,26.009081648717256,5.629222261368341,39.51888796770254,4.91402333464066,15.813972740341342-.83724147472094,31.422568199855959-4.962855930420119,45.563771415170777-12.095919646240873,10.925962303614142-5.511307508555547,20.452134744424256-12.800760143556545,29.406101314096304-20.867172867097906,22.208316885207751,21.938841954737654,52.907352685053411,34.012019786036035,84.121739818683636,33.068468114757707,15.513889819214455-.468933108766578,30.899584339138528-4.092202679636102,44.972094812059368-10.646518358371395,12.245221218989172-5.703288925786183,22.785585146662925-13.594075646955389,32.664878782485175-22.481062898648815v36.697812554006305c-4.786684747552499,4.786684747552499-9.573213729252529,9.573369495104998-14.35989847680321,14.359976359732173h-90.252761784389804c-.869796538570881,0-3.762446362990886,3.085643719712607-3.912215233307506,3.223184970349394-2.988757357426948,2.744127080948601-5.887715699002001,5.602274768318239-8.755988166998577,8.470547236312996-2.870686838759866,2.870686838759866-5.723850018741359,5.765906799797449-8.470469353385852,8.755910284069614-.440973137659967.48007036745912-2.952074498392903,3.912215233307506-3.223184970349394,3.912215233307506h86.436654084085603c4.485900880081317,0,5.02017776534376.159660002154851,8.702794127257221-3.223184970345756,10.971290167639381-10.078284516557687,21.260325887044019-20.9749628392874,31.79492647805273-31.509563430297931,4.613005818378952-4.612927935455446,9.233176866126087-9.218846407393357,13.839017455140493-13.838939572213349,3.29179982981077-3.302080376288359,11.300501303789133-9.162459167606357,12.563061447668588-14.022899047864485.581629705411615-2.239056293641625,0-5.454219322416975,0-7.748105197289988ZM101.43844801348132,91.938459875442277v-8.768293669607374c0-2.151126468064831-6.333206046479972-6.982905430861138-7.795847432082155-8.445468933534357-1.91241529411127-1.912493177038414-3.82841320290936-3.835656315202868-5.837247561736149-5.64705745185347-.319397887236846-.287933184376016-2.608143488872884-1.972930329076917-2.608143488872884-2.148789980228685v23.265110333617486c-21.160246324716354-3.845235915327066-40.863536717566603-13.661444379567911-56.939974924865965-28.127886701713578,5.119166966680496-2.673253616578222,10.448929370344558-4.947824525337637,15.915376312441367-6.803229516242936,13.53706534374578-4.594781213254464,27.916512435447657-6.616699903970584,42.195412667257187-5.968947592784389,26.674123969893117,1.210144933411357,52.347374433589721,11.883844433617924,72.044745723920641,29.80961276344533-5.129836927797442,2.681119792296158-10.47097023893366,4.962544398707905-15.949800566562772,6.822155067718995-13.168445446084661,4.46962334814998-27.129271800429706,6.493333346204963-41.024520729499272,6.012795681182979ZM263.222239729489957,91.93409843147856c-27.129583332140101-1.00873968191263-52.827366918119878-11.821927505950953-72.881753549856512-29.868024959356262,5.119166966678677-2.673253616578222,10.448929370344558-4.947824525337637,15.915376312441367-6.803229516242936,13.536987460818636-4.594781213254464,27.916434552518695-6.616699903970584,42.195412667257187-5.968947592784389,26.674046086965973,1.210144933411357,52.347452316516865,11.883844433617924,72.044745723920641,29.80961276344533-5.129836927797442,2.681197675223302-10.471048121862623,4.962544398707905-15.949800566564591,6.822155067718995-13.262995320532355,4.501711114438876-27.32997610557868,6.528770078393791-41.323980587198093,6.008434237219262ZM424.056950086338475,91.894611787040049c-26.674046086964154-1.210067050482394-52.347452316516865-11.883844433616105-72.044745723918822-29.809612763441692,5.12975904486666-2.681197675225121,10.47097023893366-4.962544398709724,15.94980056656641-6.822155067718995,13.167199319233987-4.469233933514261,27.130985224839606-6.482974916794774,41.024520729493815-5.994726841910961v8.043670908600689c0,2.15112646806665,6.333206046478153,6.982827547935813,7.795847432082155,8.445468933534357,1.912493177043871,1.912493177043871,3.82841320290936,3.835656315202868,5.837247561737968,5.64705745185347.319397887240484.287933184376016,2.608221371801847,1.972930329078736,2.608221371801847,2.148789980230504v-22.542356762885902c21.14801870503652,3.829892978536009,41.022495773368064,13.575617393044013,56.974321296058406,28.092761501238783-5.129836927797442,2.681197675223302-10.47097023893366,4.962544398707905-15.949800566564591,6.822155067718995-13.536987460813179,4.594781213254464-27.916434552522333,6.616699903966946-42.195412667257187,5.968947592780751Z"/>
      <path d="M347.403404222146492,118.306270289975146c-2.079629940273662,8.522495149214592-8.733791532553369,15.176656741494298-17.256286681764323,17.256208798837179,8.522495149210954,2.079629940271843,15.17665674149066,8.733791532553369,17.256286681764323,17.256286681766142,2.079629940273662-8.522495149212773,8.73379153255155-15.176656741494298,17.256286681762504-17.256286681766142-8.522495149210954-2.07955205734288-15.176656741488841-8.733713649622587-17.256286681762504-17.256208798837179Z"/>
    </g>
  </g>
</svg>