<?xml version="1.0" encoding="UTF-8"?>
<svg id="Layer_2" data-name="Layer 2" xmlns="http://www.w3.org/2000/svg" xmlns:xlink="http://www.w3.org/1999/xlink" viewBox="0 0 602.312111487775837 223.564970392244504">
  <defs>
    <style>
      .cls-1 {
        filter: url(#outer-glow-1);
      }
    </style>
    <filter id="outer-glow-1" x="-15.964010954739933" y="-15.11131371648662" width="634" height="254" filterUnits="userSpaceOnUse">
      <feOffset dx="0" dy="0"/>
      <feGaussianBlur result="blur" stdDeviation="5"/>
      <feFlood flood-color="#fff" flood-opacity=".75"/>
      <feComposite in2="blur" operator="in"/>
      <feComposite in="SourceGraphic"/>
    </filter>
  </defs>
  <g id="Layer_1-2" data-name="Layer 1">
    <g class="cls-1">
      <path d="M367.696558875488336,223.564970392244504l-46.734770751037104-46.734770644784476c12.390720443976534-12.39072051473795,12.390720366809546-32.480047702827505-.000000089568857-44.870768159223189l.000022435408937-.000022435404389,46.734770909474719,46.734770995655708c-12.390720416636213,12.390720363412584-12.390720499254712,32.480047269573333-.000000068870577,44.870767808344681l-.000022435407118.000022435411665Z"/>
      <path d="M173.933102116744521,97.731160341696523l-142.204678215432068.000000190453648c.00000032789103-17.523124881847252-14.205298950665565-31.72842424575083-31.728423901312453-31.728424452517174v-.00003172846391l142.20467802737403.000000137109055c-.000000002755769,17.523124767631998,14.205299314610784,31.728424034848103,31.728424089370492,31.728424124967205v.000031728451177Z"/>
      <path d="M317.641131727033098,95.305998480585913l-46.734770582114834-46.734770489380935c12.390720371731732-12.390720632674856,12.390720093399068-32.480047865146844-.000000258491127-44.870768314629458l.000022435404389-.000022435401661,46.734770809696784,46.734770836526877c-12.390720405182947,12.390720446433988-12.390720269042504,32.48004757018407.000000030909177,44.870767967480788l-.000022435404389.000022435404389Z"/>
      <path d="M99.842880888038962,93.909269980943463l-46.734770495946577-46.734770362108065c12.390720357149803-12.390720702354884,12.390720224474535-32.48004784834302-.000000344662112-44.8707684418996l.000022435414394-.00002243540257,46.734770914480578,46.734771074067794c-12.390720384559245,12.390720345253612-12.390720337965831,32.480047274773824-.000000073874617,44.870767729937143l-.000022435411665.000022435405299Z"/>
      <path d="M455.572911116069008,181.318534025675035l-46.734770751035285-46.734770644792661c12.390720443969258-12.390720514733403,12.39072036680227-32.48004770281932-.000000089568857-44.870768159217732l.000022435411665-.000022435401661,46.734770909475628,46.734770995654799c-12.390720416637123,12.390720363410765-12.390720499261079,32.480047269574243-.000000068871486,44.870767808352866l-.000022435411665.000022435404389Z"/>
      <path d="M279.820206634903116,181.318534025675035l-46.734770751035285-46.734770644792661c12.39072044396471-12.390720514733403,12.390720366796813-32.48004770281932-.000000089571586-44.870768159217732l.000022435409846-.000022435401661,46.734770909477447,46.734770995654799c-12.390720416636213,12.390720363410765-12.390720499257441,32.480047269574243-.000000068868758,44.870767808352866l-.000022435411665.000022435404389Z"/>
      <polygon points="107.420068266662383 97.731975416691967 72.636356557134604 132.515825999981644 27.761521648584676 132.515825999981644 62.545372231874353 97.731975416691967 107.420068266662383 97.731975416691967"/>
      <polygon points="173.933102116744521 97.731975416691967 139.149251533452116 132.515825999981644 94.280249322998316 132.515825999981644 129.063961032517909 97.731975416691967 173.933102116744521 97.731975416691967"/>
      <path d="M602.312111487775837,95.427451600166023l-142.204678215441163.000000190448191c.000000327892849-17.523124881841795-14.205298950661017-31.728424245755377-31.728423901307906-31.728424452518084v-.000031728461181l142.204678027375849.000000137111783c-.000000002760316,17.523124767627451,14.205299314606236,31.728424034848103,31.72842408937322,31.728424124961748v.000031728457543Z"/>
      <path d="M528.221890259062093,91.605561239409326l-46.734770495945668-46.734770362107156c12.390720357145256-12.390720702354884,12.390720224469987-32.480047848343929-.000000344657565-44.870768441900509l.000022435407118-.000022435401661,46.734770914483306,46.734771074059609c-12.390720384557426,12.390720345263617-12.390720337961284,32.480047274779281-.000000073874617,44.870767729938052l-.000022435412575.000022435411665Z"/>
      <polygon points="535.799077637683695 95.428266675157829 501.015365928163192 130.21211725844114 456.140531019608716 130.21211725844114 490.924381602898393 95.428266675157829 535.799077637683695 95.428266675157829"/>
      <polygon points="535.799077636909715 164.995967845308769 501.015365928947176 130.212117260459308 456.140531020387243 130.21211725844114 490.924381602114408 164.995967843297876 535.799077636909715 164.995967845308769"/>
      <polygon points="173.93594902813129 167.299676586842907 139.15223732017148 132.515826001990717 94.277402411608819 132.515825999981644 129.061252993341441 167.299676584829285 173.93594902813129 167.299676586842907"/>
      <path d="M304.504162060722592,98.362188577511915l111.38773026000672.000003512048352v.000031728457543c-12.390721161114016,12.390720097093435-19.337705049557371,19.337703388986483-31.728426210666839,31.728423486085376l-47.930882593024762-.000001934746251c.000000742057637-17.523124038402784-14.205297453063395-31.728423479941739-31.728421456315118-31.728424080651166v-.000032711193853Z"/>
      <polygon points="371.017215180253515 98.361394439208198 405.800927691327161 63.577544657454382 450.675762599877999 63.577545691522573 415.891911215054279 98.361395473279117 371.017215180253515 98.361394439208198"/>
      <polygon points="304.504181330171377 98.361392906507717 339.288032715010559 63.577543124758449 384.157034925464359 63.577544158703859 349.373322414400718 98.36139394044767 304.504181330171377 98.361392906507717"/>
      <polygon points="304.50133602187725 28.793691736284927 339.285046928293923 63.577543122678435 384.159881836853856 63.577544158768433 349.376032056665281 28.793692772372196 304.50133602187725 28.793691736284927"/>
      <polygon points="602.312111487775837 95.428266675157829 567.528260904485251 130.21211725844114 522.659258694022355 130.21211725844114 557.442970403551953 95.428266675157829 602.312111487775837 95.428266675157829"/>
      <path d="M153.769538320760148,117.716471607614949l-53.254967577663592,53.254967818466866c-12.390720299937129-12.390720648524621-32.480047369354907-12.390720650124422-44.870767972959584-.000000264873051l-.000022483555767-.000022483564862,53.254968052891854-53.254968069355527c12.390720070224233,12.390720670344308,32.480047027610453,12.390720732536465,44.870767521791095.000000539837856l.000022459495995.000022459488719Z"/>
      <path d="M307.033900524266755,97.731175446463567l-123.42111424839095.00000014752186c-.000000013585122-17.523124954296691-14.205299506829761-31.728424441865172-31.728424468360572-31.728424405844635v-.000031732205571l123.421114395181576.000000031320269c.000000063780135,17.523124845161874,14.205299386396291,31.728424305717454,31.728424321569946,31.728424214139523v.000031745068554Z"/>
      <path d="M232.943679090160003,93.909269980943463l-46.734770495949306-46.734770362108065c12.390720357150713-12.390720702354884,12.390720224477263-32.48004784834302-.000000344656655-44.8707684418996l.000022435408937-.00002243540257,46.734770914486035,46.734771074067794c-12.390720384561973,12.390720345253612-12.390720337961284,32.480047274773824-.000000073880074,44.870767729937143l-.000022435408937.000022435405299Z"/>
      <polygon points="240.520866468783424 97.731975416691967 205.737154759263831 132.515825999981644 160.862319850702988 132.515825999981644 195.646170433995394 97.731975416691967 240.520866468783424 97.731975416691967"/>
      <polygon points="240.520866468004897 167.299676586842907 205.737154760042358 132.515826001990717 160.862319851482425 132.515825999981644 195.646170433214138 167.299676584829285 240.520866468004897 167.299676586842907"/>
      <polygon points="304.502758310446552 98.362211906111952 339.286608893736229 63.578361322816818 384.155611104204581 63.578361322816818 349.371899394669526 98.362211906111952 304.502758310446552 98.362211906111952"/>
      <polygon points="270.627752551500635 132.237217665057869 305.411603134790312 97.453367081762735 350.280605345254116 97.453367081762735 315.496893635723609 132.237217665057869 270.627752551500635 132.237217665057869"/>
      <polygon points="253.841579193705002 149.023391022849864 288.625429776997407 114.239540439560187 333.494431987461212 114.239540439560187 298.710720277931614 149.023391022849864 253.841579193705002 149.023391022849864"/>
      <path d="M326.937980960352434,120.796042891804973l18.318232447307309-18.318232426955547c3.118866800568867-3.118866797103692,8.175548989559502-3.118866796940893,11.29441578992828.000000000362888l74.880813071554257,74.880812997975227-8.268300529184671,8.268300553667359c-8.669291008638538-8.669291045034697-22.724988922445846-8.669291049382082-31.394279936447674-.000000009710675l-64.830880843157502-64.830881115339253Z"/>
    </g>
  </g>
</svg>