<?xml version="1.0" encoding="UTF-8"?>
<svg id="Layer_2" data-name="Layer 2" xmlns="http://www.w3.org/2000/svg" viewBox="0 0 32.59 32.59">
  <defs>
    <style>
      .cls-1 {
        fill: #0063b2;
      }
    </style>
  </defs>
  <g id="Layer_1-2" data-name="Layer 1">
    <path class="cls-1" d="M32.37,10.75c-.61-1.52-2.33-2.26-3.85-1.65l-9.27,3.71V2.96c0-1.64-1.33-2.96-2.96-2.96-1.64,0-2.96,1.33-2.96,2.96v9.84s-9.27-3.71-9.27-3.71c-1.52-.61-3.24.13-3.85,1.65-.61,1.52.13,3.24,1.65,3.85l9.61,3.85-7.49,9.32c-1.02,1.28-.82,3.14.45,4.16.55.44,1.2.65,1.85.65.87,0,1.73-.38,2.31-1.11l7.69-9.57,7.69,9.57c.59.73,1.44,1.11,2.31,1.11.65,0,1.31-.21,1.85-.65,1.28-1.02,1.48-2.89.45-4.16l-7.49-9.32,9.61-3.85c1.52-.61,2.26-2.33,1.65-3.85Z"/>
  </g>
</svg>