<?xml version="1.0" encoding="UTF-8"?>
<svg id="Layer_2" data-name="Layer 2" xmlns="http://www.w3.org/2000/svg" viewBox="0 0 658.82245260842501 165">
  <g id="Layer_1-2" data-name="Layer 1">
    <g>
      <path d="M383.569902467836073,91.634089500202208c-2.029820971627487-3.534973688750142-2.164952201619599-7.864906057880034-.334472166945488-11.498375647294779l8.531557187936414-8.531557187936414h112.030557407011656c1.493686698016973,0,3.134026576921315.190140155771587,4.61856842556881,0,.066446978973545-.009144849377662.135187161780777,0,.201606174861809,0,.728539667303266,0,3.152372207488952-2.586482216015611,3.278358588100673-2.701030543422348,2.501773504171069-2.29784615958215,4.937044097561738-4.689629778090421,7.335679361631264-7.097437857438308,2.400928467888662-2.407808079349707,4.804150139598278-4.82246780425703,7.097409891537609-7.335651395731475.504001454224635-.559010380010477,1.008058840256126-1.118020760020954,1.512060294480762-1.679296377949868.504001454224635-.460486513443357.900334192510854-.9920064135149,1.18670501102315-1.599090176046957h-112.843833752051069c-1.496007867737717,0-3.134054542817466-.190168121670467-4.620889595278641,0-.064153775168961.00917281528109-.135159195890083,0-.20160617487636,0-.036663295219114-.036663295220933-.135159195884626-.004586407639181-.286370818510477.08476464364503-.565862025570823.265759950035317-1.505152717129022,1.134017254960781-2.180976662455578,1.798403147095996-3.111150470527718,2.82707285583183-8.050487771915869,7.821363151197147-8.146690468756788,7.915300610122358l-16.068842724444039,16.068814758536973c-2.877439442172545,2.877467408075063-5.754906850250336,5.754934816147397-8.63008105449444,8.63237425832358-2.870587796613108,2.868294592791244-5.734295981774267,5.741147627327337-8.483455839515955,8.726283751344454-2.854535369870064,3.097391247607447-5.709070739741946,6.270402289475896-6.020638834381316,10.659874060229413-.494856604846063,6.987447971772781,5.097400569573438,12.898152852288149,12.039012430841467,12.973744680652999.719394817913781.006879611461045,3.16613143041468-2.597948235118565,3.278386553993187-2.701030543422348,2.501717572382404-2.297846159584878,4.937044097569014-4.68962977809133,7.335679361633083-7.097437857440127,2.400928467897756-2.407780113449007,4.804150139598278-4.82246780425794,7.097409891537609-7.335651395733294.50400145423373-.559010380009568,1.008002908462004-1.118020760019135,1.51203232858461-1.677003174128913.504029420129882-.462779717265221.900362158410644-.994299617334946,1.186732976924759-1.601383379865183-4.311614704474778-.045808144603143-8.263531999979023-2.238278792059646-10.423897793956712-6.00461437354079Z"/>
      <path d="M280.368739086383357,51.191650314382059c-1.496007867743174,0-3.13405454282838-.190168121670467-4.620889595293193,0-.064153775156228.00917281528109-.135173178832702,0-.199312971044492,0-.036663295220933-.036663295220933-.137466382653656-.004586407639181-.286370818514115.08476464364503-.565876008522537.265759950035317-1.505166700069822,1.134017254960781-2.181004628357186,1.798403147095996-3.111136487577824,2.82707285583183-8.052753009829758,7.821363151197147-8.146676485808712,7.915300610122358-5.092828144879604,5.092814161932438-10.185642306809314,10.183335120043921-15.276163264916249,15.276149281976359-2.941607200289582,2.941621183235839-5.883200417627449,5.883214400575525-8.824807617913393,8.82251441409062-.58190046936943.584207656133913-1.168387346362579,1.168415312262368-1.750301798678265,1.752595002492853-1.793816739454996,1.798403147098725-3.57390222189315,3.610565517114082-5.331069649075289,5.445631959432831-1.901513421300479,1.988571268767373-3.899229539441876,3.993166998370725-5.525824178386756,6.224566178972964-.898054971632519,1.227926747983474-1.624287452164936,2.63916997207798-2.05269707802654,4.103100952236673-1.601383379858817,5.454804774711192,1.051545815134887,11.606044363240471,6.132921923866888,14.167357269037893,2.240558012930705,1.131724051140736,4.602543964725555,1.269176450847226,7.040135727838788,1.269176450847226h86.231958498601671c.89809692048766,0,.927852638349577.011438053201346,1.814483539736102-.721660055839493,4.350543237615057-3.599099498010219,8.263504034082871-7.764061021593079,12.263522678018489-11.764107631429397,2.481106703891783-2.478813500069009,4.9599481698624-4.95994816986331,7.44108283965943-7.438761669935957,6.934732249806984-6.934760215709503,13.869492465517396-13.869520431419915,20.804252681225989-20.804252681231446,4.911846821441941-4.914140025260167,9.825958880803228-9.828280050523063,14.740070940164514-14.740098906066123.258880338582458-.258880338573363.51776067715582-.517760677146725.774347811900952-.776641015720088,2.403221671711435-2.400928467889571,4.808736547243825-4.824761008077076,7.097409891548523-7.335651395731475.504029420118968-.559010380010477,1.010324078166377-1.118020760020954,1.514325532394651-1.679296377949868.501736216308927-.460486513443357.898068954586051-.9920064135149,1.186732976926578-1.599090176046957h-112.846126955868385ZM366.930583344292245,76.660307531684339c-6.992006413516719,6.992034379412871-13.986333996756002,13.986361962645788-20.980633614082763,20.978396342058659h-85.840240133866246c-2.073321929457961,0-4.091662899039875.00917281528109-6.089393000136624-.707928798818102-5.257771024531394-1.890047402200253-8.545302427912247-7.496035833641145-7.803031503583043-13.008086806153187.178702102568423-1.324185376633068.595645709330711-2.588803385739084,1.195877826299693-3.777801600582279,0-.002293203819136.002293203819136-.002293203819136.002293203819136-.002293203819136.112255123593059-.114548327406737.22680345099252-.22680345099343.339072557530017-.339086540479002l8.199364241867443-8.199350258920276h102.367276167933596c4.549828242759759,0,9.106592028780142.07559182836485,13.65642027154172.009144849383119l-5.047006017322929,5.047006017330204Z"/>
      <path d="M243.775120904821961,71.315492642637764c2.712496562524393-2.847683724314265,6.584235622025517-6.087085813364865,6.921000992786503-10.359744018791389.155784047317866-1.977105249667147-.423823218216057-3.986287386915137-1.580758528431033-5.592257174420411-1.848811682295491-2.568164551358677-4.616303187647645-3.397493323142953-7.635795420123031-3.397493323142953h-23.952052464028384c-.728525684346096,0-3.152372207485314,2.586482216019249-3.278372571039654,2.701030543425986-2.504024759142339,2.29784615958215-4.937044097565376,4.689601812189721-7.335679361629445,7.097409891538518-2.400928467897756,2.407808079348797-4.804164122546354,4.82249577015682-7.097409891541247,7.335679361631264-.504015437179987.559010380009568-1.008030874358155,1.118020760020954-1.512046311532686,1.679296377952596-.504015437178168.460486513442447-.90034817545893.991978447610563-1.189012197797638,1.599090176044228h22.939449164989128c2.114571632318984,0,4.155816674199741-.027490479943481,6.075647760160791,1.067570275975413,3.654094440842528,2.08938833915272,5.090520958114212,6.705663560898756,3.496017189710983,10.504103995860532-6.020666800282925,6.020666800282015-12.041319617612317,12.041333600562211-18.059693214072468,18.059679231125301-7.608304940182279,7.608318923125807-15.216595897403749,15.216609880351825-22.824900837586029,22.824900837577843l-19.720643961456517,19.720657944411869H31.888205683448177c-1.649498711247361,0-3.269213738716644-.192461325486875-4.806443343426508-.833943145322337-3.734286659797363-1.56013367700325-6.3001580073269-5.243997818659409-6.634644157222283-9.255482481694344-.16495686259077-1.974812045844374.231389858634429-3.92442681556895,1.101954350335291-5.693074244805757.084764643641392-.14659724908779.171822491109197-.290929260252597.261173542392498-.432968067602815,1.182132586336593-1.303546542249023,1.965639230562374-2.27950052901997,1.819027998524689-2.426153709908249-.462779717265221-.46277971726613-10.478878753834579,9.66330920497785-10.614051932672737,9.798468400862475-3.647214829390578,3.647228812335925-7.569348441131297,7.269232382647715-10.655287652592961,11.427370226571838-.733112091988005.989685243791428-1.342503041287273,2.116850853191863-1.754874223363004,3.278358588096125-.671251520645455,1.894605843938734-.778934219539224,3.965648552530183-.348231389856664,5.926729341356804.900348175453473,4.077931642015756,4.080210862886815,7.425002447017505,8.178753373385916,8.348268677724263,1.972518842025238.44446205260283,4.148937062742334.274932765313679,6.160412403807641.274932765313679h134.005490638415722c.217644618665872,0,.465072921082538.032076887581752.680424335929274,0,.041235719909309-.006879611461045.089351051288759.009144849379481.130586771192611,0,.004572424697471-.002293203820955.009158832332105,0,.013745239975833,0,1.017189706684803-.245121115651273,2.655222398812839-2.130610076112134,3.276079367222337-2.701058509323047,2.506317962959656-2.300111397505134,4.930164486100693-4.694188219831631,7.337972565444943-7.097409891539428.352803814555955-.352817797501302.707900832927407-.707900832918313,1.060704647470629-1.060718630415067,2.421553319323721-2.421567302270887,4.840813434815573-4.843106638640165,7.262366754139293-7.262352771188489,9.140962120185577-9.140962120189215,18.279631036559294-18.281924240377521,27.420579173793158-27.420593156745781,9.766391513288909-9.766391513280723,19.530489822745949-19.532783026562356,29.296881336022125-29.299174539843989,6.247470251277264-6.247470251274535,12.602609218496582-12.412441096821567,18.69429542245598-18.811122970724682Z"/>
      <path d="M231.486372984780246,41.008315194339957c.65291987303317.650598703313335,1.303560525206194,1.301253338427159,1.954187194414772,1.951880007643922.600232116979896.600232116968982,21.033363318996635-19.789356178367598,20.41252033354067-20.41021314676982-4.510913692573013-4.508620488750239-9.019534181323252-9.019534181323252-13.528154670068034-13.528154670073491l-1.954201177366485-1.954201177364666c-.600232116974439-.600232116971711-21.033363318994816,19.789370161317493-20.412506350585318,20.410227129719715,4.510913692565737,4.510913692571194,9.019534181319614,9.019534181323252,13.528154670064396,13.53046185684434Z"/>
      <path d="M297.296666300466313,41.008315194339957c.652947838934779.650598703313335,1.303574508152451,1.301253338427159,1.954201177366485,1.951880007643922.600232116970801.600232116968982,21.033377301944711-19.789356178367598,20.412534316488745-20.41021314676982-4.508662437598105-4.508620488750239-9.019562147217584-9.019534181323252-13.528168653023386-13.528154670073491-.652947838931141-.652933855983974-1.303574508148813-1.303560525199828-1.954201177362847-1.954201177364666-.600232116970801-.600232116971711-21.033377301942892,19.789370161317493-20.412534316488745,20.410227129719715,4.510927675517451,4.510913692571194,9.019562147219403,9.019534181323252,13.528168653019748,13.53046185684434Z"/>
      <path d="M343.647517162980876,41.008315194339957c.650626669215853.650598703313335,1.303546542249023,1.301253338427159,1.954201177371942,1.951880007643922.600204151071011.600232116968982,21.033349336037645-19.789356178367598,20.410213146760725-20.41021314676982-4.508634471698315-4.508620488750239-9.017240977495021-9.019534181323252-13.528168653021567-13.528154670073491-.650626669219491-.652933855983974-1.301281304327858-1.303560525199828-1.954173211468515-1.954201177364666-.597966879044179-.600232116971711-21.033377301935616,19.789370161317493-20.410241112665972,20.410227129719715,4.508606505802163,4.510913692571194,9.019534181323252,9.019534181323252,13.528168653023386,13.53046185684434Z"/>
      <path d="M658.797428371255592,12.254377828632641c-.265731984140075,3.381468862302427-2.744573450112512,5.864868770014255-4.918698467008653,8.229147925632788-6.630043766626841,7.209678998073286-13.768675395134778,14.01613166345669-20.694262795568648,20.941733046836816-9.766419479177785,9.766391513279814-19.532783026563266,19.532783026563266-29.299202505739231,29.296881336023034-8.517797965017962,8.520091168835279-17.037889133851422,17.037917099749393-25.558036234482643,25.558036234483552.325355283455792.270318391775618.636895412188096.701021221459087.898096920489479.96448796767163.586444928143464.584179690231394,1.170652584280106,1.168387346364398,1.754860240413109,1.754860240414928,3.731993455970951,3.729700252160001,7.463986911954635,7.461693708140047,11.193687164119183,11.193687164119183,2.490251553272174,2.487958349450309,4.978265834521153,4.978265834524791,7.468517387795146,7.466252149877619,3.163838226586449,3.166103464507614,6.329969657004767,6.329941691098611,9.493751951791637,9.49375195178709,8.045901364264864,8.045873398368713,16.091802728538823,16.091774762639943,24.137648161004108,24.137620195107957,4.568173873321939,4.570495043045412,9.138640950472109,9.138668916370079,13.706870755591808,13.709163959412763h-40.822775429156536c-1.25768246584812-1.257738397644971-2.515476795295399-2.51547679529358-3.773215192941279-3.77321519294037-6.80645266539068-6.808773835103239-13.615198534585943-13.617519704307597-20.423944403793939-20.42400033559079-5.356308874041133-5.358546146066146-10.714855020109098-10.714827054213856-16.071163894164783-16.073401166179792-2.767449556497013-2.767505488307506-5.534955044806338-5.534983010713404-8.302404601317903-8.30246053312294-.027518445836904-.016052426741226-.055036891681084-.032076887581752-.082499405727503-.041249702862842-.025225242015949-.009144849379481-.054980959881505-.016024460840526-.084736677745241-.022904072301571-.06186057134255.036663295222752-.121483870658267.073326590445504-.178758034366183.107668715948421.064209706968541-.041221736963053.119134735054104-.08017823600585.164998811451369-.109961919767557-.265787915936016-.048101348422279-.666707061860507.025197276120707-.902627396328171.025197276120707h-40.444732389643832c-.966837103289436,0-1.926738663316428-.022904072301571-2.882053815706968-.121399972965264h-90.316769752091204c-1.890047402199343,0-3.917575170011332.158063268189835-5.789276941641219-.167236083468197-4.162696285660786-.723981225560237-7.507501852738642-3.915281966191287-8.593417759278964-7.974867977646682-.517760677146725-1.933562342981531-.506294658052866-4.000018643933799.068740182805413-5.917584491977323.352789831593327-1.175238991922924.920973026883075-2.300111397500586,1.601383379860636-3.317315087136194,2.247423641436399-3.367709639381246,5.479974084935748-6.288691988235769,8.270383645540278-9.150106969566878,2.591068623656611-2.652957160902588,5.227973357819792-5.260050245401544,7.906099828947845-7.823656355019921,1.532671162962288-1.463930980156874,3.131789304899939-3.269213738713006,4.934750893737146-4.44448069653663,1.315012561357435-.859112455545983-.643747057754808,1.289815285226723-.735391312859065,1.369993521233482q0-.002293203820955.002293203820955-.004586407641c-.10996191976119.126014346507873-.217630635708701.247442285372927-.325299351658032.371163428060754-.025225242019587.034342125499279-.052715721958521.068712216903805-.077912998080137.103082308303783-.167236083472744.247442285374746-.323006147840715.501708250406409-.469659328728085.7606165548832-.872843712568283,1.770912667154334-1.269176450847226,3.720527436878001-1.104233571202712,5.695311516821675.33450013284164,4.011484663034935,2.900371480378453,7.695376770592702,6.634658140175816,9.253245209675697,1.537229604706226.641453853933854,3.159223853048388.836180417343712,4.806443343419232.836180417343712h61.567432776964779c1.670123562671506-3.679305699916767,4.726237141514503-6.685024726515621,7.539550774426971-9.635818725033459,6.126042312407662-6.426144387943168,12.508699725469342-12.623192121073771,18.785925694601247-18.902739259930968,8.513267489181089-8.513239523273114,17.026479046555323-17.026451080647348,25.5396906039241-25.53971856982298,1.101968333276091-1.10194036737812,2.203936666557638-2.203880734757149,3.305904999839186-3.303555864216833h-71.379660400752982c.288664022331432-.607111728431846.684996760614013-1.140896866420007,1.186705011019512-1.601383379864274.506294658052866-.558982414109778,1.010324078170015-1.117992794121164,1.514353498303535-1.676989191179928,2.293231786043179-2.513197574425249,4.696481423648947-4.927871282284286,7.09740989153579-7.335679361631264,2.398635264065888-2.407808079349707,4.831612653644697-4.799577714907173,7.335679361636721-7.097409891540337.125986380602626-.116841531226783,2.549818920793768-2.701044526373153,3.278358588095216-2.701044526373153h72.195229949615168c-.288664022338708.604804541660087-.68499676061947,1.138603662600872-1.186705011024969,1.599090176043319-.50405738603331.558996397060582-1.010352044075262,1.12028599794121-1.51435349829444,1.679282395001792-2.288673344308336,2.508597183833444-4.694188219837088,4.934736910790889-7.097409891546704,7.335665378682279-2.258917626435505,2.261182864359398-4.520072524894204,4.520086507851374-6.781283355163396,6.781269372210772-9.759483935920798,9.759497918872512-19.519023803641176,19.521330990412025-29.278563671357915,29.280842892230794-3.195887148276597,3.193621910352704-6.389481092730421,6.387215854803799-9.583075037169692,9.583103003074939-.089323085390788.14662521498758-.174115694933789.300130041434386-.261145576501804.451313698162267-1.033284082270256,2.061869893311268-1.583093681101673,4.325373927391411-1.557868439074809,6.639216581916116.054980959879686,4.733172684773308,2.449029816301845,9.333395479779028,6.350552559571952,12.032160785282031,2.093918814993231,1.447906519316348,4.412403808957606,2.153514148415525,6.847674402351913,2.412394486988887h43.228290304687107c6.572769602931658-6.575062806751703,13.147832409676994-13.147832409681541,19.720602012608651-19.722923182333943,7.60829095722147-7.606025719306672,15.216637846255253-15.214316676530871,22.824928803478542-22.822607633756888,6.018373596458332-6.020666800282015,12.038984464947134-12.039040396743076,18.059651265222783-18.059693214075196,1.594559700206446-3.800719655832836.158119199993962-8.417008860528767-3.496017189705526-10.504076029959833-1.919803120064898-1.095088721820503-3.961090110786245-1.069891445698886-6.075647760158972-1.069891445698886h-22.939421199087519c.288664022336889-.604804541660997.684996760621289-1.138603662599962,1.188998214847743-1.599090176045138.504001454219178-.558996397059673,1.00800290845109-1.117992794121164,1.512060294475305-1.679282394998154,2.293259751942969-2.510890387654399,4.696481423654404-4.925578078464241,7.097409891541247-7.335665378684098,2.398635264065888-2.405514875527842,4.833961789252498-4.797284511085309,7.335679361629445-7.097423874486594.125958414702836-.114548327406737,2.549818920802863-2.698751322554926,3.278386553995006-2.698751322554926h23.954303718997835c3.012654569860388,0,5.7846905340175.829328771784276,7.633516199248334,3.395214102270984,1.159242496982188,1.608249008375424,1.736570541654146,3.617431145622504,1.580744545488415,5.594536395287832Z"/>
      <path d="M203.593855261389763,51.191650314382059c-.288664022331432.607083762532056-.684996760614013,1.1386036626036-1.189012197792181,1.599090176046957-.504015437178168.561275617928914-1.008030874347241,1.120285997939391-1.512046311527229,1.679296377949868-2.290966548123833,2.510890387654399-4.696481423654404,4.934722927841904-7.097409891539428,7.335651395731475-.265745967084513.265759950032589-.531505917120739.533785137988161-.797251884199795.79954508802075-5.113439013364768,5.111159792494618-10.224584822904944,10.222291619088537-15.335730632456034,15.333451411578608-7.085957855388187,7.085943872441021-14.171915710776375,14.171915710778194-21.255594345288046,21.257887549119005-2.364279155615804,2.361971968844045-4.726265107412473,4.723943937690819-7.088251059209142,7.088237076255609-.570448433209094.568155229390868-1.13860366260451,1.136310458779917-1.706758891994468,1.70675889199083-.087057847467804.084792609546639-.174115694926513.171822491110106-.261173542394317.25890830447679-2.405514875528752,2.403221671707797-4.833947806304423,4.79956373195364-7.337972565446762,7.099703095358564-.490256214257897.449020494343131-2.304711788097848,2.469640684790647-3.278372571048749,2.701030543422348-.022904072298843.004586407641909-.04810134842046-.004586407639181-.071019403672835,0-.423823218219695.082471439824985-.946170303010149,0-1.37687313268907,0h-70.866458165350195c-5.310458780597401,0-10.623210765010299.00917281528109-15.933683528553956,0-4.36199527376084-.009144849380391-8.359720713870047-1.997716118146855-10.639235225844459-5.793835383388796-1.441026907861669-2.396370026148361-2.050417857160937-5.276102672140951-1.644912303596357-8.04590136427214.23137587567544-1.589917360762229.813290327991126-3.060727952382877,1.603676583688866-4.453625545917021.382587498301291-.67582394533656.822449160321412-1.298988100508723,1.310426153699154-1.90151342129866,2.746866653928009-3.411224580163434,5.887786825271178-6.508615827768153,8.962260017626249-9.617473094474008,5.342535668172786-5.399823814830597,10.735465888590625-10.75149034943388,16.105492036704163-16.12153048050186,1.569320475240602-1.56930649228434,3.138626967524033-3.138640950467561,4.707933459802007-4.707919476851202-3.4891375782463-3.335660717697465-6.831663924453096-6.843143926505036-10.245195691384652-10.256661710487606-7.225717441862798-7.225717441865527-14.449127696963842-14.449141679912827-21.674831155876745-21.674845138828459L1.493956404729033,0h40.822733480306852c2.975949325793408,2.975963308738756,5.951926617481149,5.951926617477511,8.927889926222633,8.927889926217176,3.033237472442124,3.030958251570155,6.064181741063294,6.064195724012279,9.095139992634358,9.095139992635268,6.91413536428081,6.914135364277172,13.825977524738846,13.825977524737937,20.740112889019656,20.737833668145868,2.877453425126077,2.879760611894199,5.757200054067653,5.759493257889517,8.636946683014685,8.639225903882107.471938549595507.471952532544492-9.189063468613313,10.006954187194424-9.79617519704334,10.614065915627179-1.301267321381602,1.301253338429888-2.602534642759565,2.602506676857047-3.901508760325669,3.901522743269197-5.518944566922073,5.518902618074208-11.037889133844146,11.037861167948904-16.554526513999008,16.556791751922901-.556703193240537.554423972369477-1.111127165615471,1.108819978840984-1.665537155029597,1.663243951207733-.006865628507512.013731257021391-.016038443794969.025197276122526-.022904072298843.038956499042797-.591073284645972,1.182118603383969-1.003444466718065,2.43527059338976-1.179853365469171,3.748017916821482-.744564128137426,5.512050972512043,2.542967275234332,11.118039403952935,7.800738299767545,13.008086806153187,1.997730101102206.717101614099192,4.016071070676844.707928798818102,6.0893930001439.707928798818102h85.842519354726392c6.994313600287569-6.992034379412871,13.986347979696802-13.986361962645788,20.980661579975276-20.978396342058659,1.683868802647339-1.686120057612243,3.370016826156643-3.372296047021337,5.056164849669585-5.056150866713324h-62.971796389607334c-.542957953266523,0-.561289600876989-.096230662742528-.955329135338616-.49256340102329-2.524649610581037-2.522356406754625-5.047006017333842-5.047006017330204-7.571641644959527-7.569362424086648-4.671284147527331-4.673549385448496-9.344861498873797-9.344833532976736-14.018424867274007-14.01841088432684-5.656396966634929-5.658676187502351-11.315087137087176-11.315087137084447-16.97377730754306-16.973763324586798-5.454790791751293-5.454804774712102-10.9095815835135-10.909595566473399-16.364372375279345-16.364386358234697-2.419260115502766-2.419260115498219-4.838520230998256-4.838520230996437-7.255487142676429-7.257780346495565h40.820440276489535c2.501731555326842,2.499452334453963,5.001183889775348,5.001183889777167,7.500622241275778,7.500622241279416l16.494959146484689,16.494959146480141c4.258912965458876,4.256619761637921,8.515518744145083,8.515518744145083,12.77443170960214,12.772152488733809,1.289815285230361,1.289787319328752,2.579630570458903,2.579630570456175,3.867152651871947,3.869417889785836.426116422044288.423851184123123,1.046973390439234,1.358555468033046,1.608262991318043,1.605969787505273.540664749452844.24056267391461,1.660950747396782.020638834380406,2.242851216755298.020638834380406h62.030212494226362Z"/>
    </g>
  </g>
</svg>