<?xml version="1.0" encoding="UTF-8"?>
<svg id="Layer_2" data-name="Layer 2" xmlns="http://www.w3.org/2000/svg" viewBox="0 0 484.390356492849605 165">
  <g id="Layer_1-2" data-name="Layer 1">
    <g>
      <g>
        <polygon points="385.898553397535579 27.506744927561158 308.94306391727514 104.462211899719478 260.9509761285899 104.462211899719478 337.906465608848521 27.506744927561158 365.41323304450998 0 123.734323107742966 0 101.607959628377102 22.126363479364045 245.61003978613553 22.126363479364045 240.229635829839026 27.506744927561158 179.101865389551676 88.63082403930639 179.101865389551676 111.583234820604957 133.809196646319833 66.286897256930388 102.577833694870606 66.286897256930388 102.548348082732446 66.316382869071276 137.707127046906862 101.478898177989322 53.416765179394133 101.478898177989322 127.388873413621695 27.506744927561158 96.098494221691908 27.506744927561158 0 123.605261657354276 159.833490526269998 123.605261657354276 201.228228868916631 165 201.228228868916631 97.794862259971524 271.519992513667603 27.506744927561158 276.900396469964107 22.126363479364045 311.996490373216147 22.126363479364045 207.534255965396369 126.588575379084432 318.107057121738762 126.588575379084432 385.898553397535579 58.797146627590337 430.969945001112137 103.868538231168714 357.945585370222034 103.868538231168714 357.945585370222034 103.894332514764756 380.046132057888826 125.994901710533668 484.390356492849605 125.994901710533668 385.898553397535579 27.506744927561158"/>
        <polygon points="199.906935823537424 28.111807695150674 176.789090500845305 51.229653017844612 176.789090500845305 82.521090090514917 231.198327880006218 28.111807695150674 199.906935823537424 28.111807695150674"/>
        <polygon points="322.058624326698919 51.229653017844612 322.058624326698919 82.521090090514917 376.467861705861651 28.111807695150674 345.176469649393766 28.111807695150674 322.058624326698919 51.229653017844612"/>
      </g>
      <g>
        <polygon points="392.253839511520709 15.070300050862897 396.273671425080465 15.070300050862897 396.273671425080465 13.396487238834197 394.415887625344112 13.396487238834197 394.415887625344112 1.665434172380628 396.273671425080465 1.665434172380628 396.273671425080465 0 392.253839511520709 0 392.253839511520709 15.070300050862897"/>
        <path d="M399.879718234860775,9.27252080393464c.210842482007138-.181218006107883.601765869027076-.474949173206369,1.173129245613381-.88071472188949l.91285278968644-.648506708778768c.768740187731964-.54461157714104,1.321191777686181-1.038233147278333,1.657534312140342-1.481582879526286.512473509346819-.667179105709693.768680340306673-1.430592872523448.768680340306673-2.290001910736464,0-1.121301374648283-.363094333903064-2.022124831693873-1.088923917150169-2.702709760840662-.726068972953726-.680584929146789-1.703018355947279-1.020757698868692-2.930848148980658-1.020757698868692-1.553459638222193,0-2.634483695133895.579083694550718-3.243012323304356,1.737490473355138-.320303424270605.608528628171371-.499307075613615,1.406653902099606-.536532174623062,2.394375821783797h2.218125152037828c.026632104596501-.65137938523003.112094229009017-1.126328558437308.256206830959854-1.425565688733514.250880410041646-.517560540562044.723375838779248-.776580200547869,1.417366591365862-.776580200547869.507147088426791,0,.896813679499246.163024388586564,1.169119468069766.488354996646194.27224594114341.325809387466506.408338988003379.733968833191284.408338988003379,1.22519650628692,0,.603501444382346-.237534434030749,1.158406778805329-.71266314951572,1.665673562084521-.309650582432369.325569997762614-.990295359004449.864915001409827-2.041874482292769,1.617556231532035-1.212030072554626.864675611706843-1.980710412863118,1.684345959015445-2.306220563199531,2.458053483110234-.336342534452342.688963568795771-.515286338370061,1.449504659158265-.536472327195952,2.28234144020098h7.95144872109995v-2.009915956778059h-5.06877775009707c.144172449376128-.240107873350098.321500372790979-.451010202782527.532522397075809-.632706988300015Z"/>
        <path d="M408.850967096013846.224068763165633c-1.478710203076844,0-2.515686554406784.520433217013306-3.110929053995278,1.561539040741991-.595362194437257,1.040866434024792-.892803901951993,2.519576637098908-.892803901951993,4.436130609225074,0,1.91679336182915.297441707514736,3.392630888453823.892803901951993,4.428230748984788.595242499588494,1.035599860530965,1.632218850918434,1.553399790796902,3.110929053995278,1.553399790796902,1.478590508220805,0,2.515566859550745-.517799930265937,3.110988901416931-1.553399790796902.595182652159565-1.035599860530965.892744054528521-2.511437387155638.892744054528521-4.428230748984788,0-1.916553972126167-.29618491157089-3.395264175200282-.888794124408378-4.436130609225074-.597875786332224-1.041105823728685-1.63634832331627-1.561539040741991-3.114938831537074-1.561539040741991ZM410.188257831308874,9.280660053879728c-.213535616179797.710029862767442-.659458787749827,1.065044794151618-1.337290735295028,1.065044794151618-.67795164240124,0-1.126388405864418-.35357859315809-1.345250442964243-1.060975169179983-.219041579375698-.707396576021893-.328322979359655-1.728393664594478-.328322979359655-3.062991265718665,0-1.398514652155427.109281399983956-2.434353902392104.328322979359655-3.106799581593805.218862037099825-.672685068908322.667298800563003-1.009027603362483,1.345250442964243-1.009027603362483.677831947545201,0,1.122258933464764.336342534454161,1.333221110322484,1.009027603362483.210902329434248.672445679201701.316353494150462,1.708284929438378.316353494150462,3.106799581593805,0,1.334597601124187-.10413452134344,2.35439774117549-.312283869177918,3.05892164074703Z"/>
        <path d="M416.645017086577354,9.27252080393464c.210842482007138-.181218006107883.601706021601785-.474949173206369,1.17306939818809-.88071472188949l.912852789684621-.648506708778768c.768740187733783-.54461157714104,1.321251625113291-1.038233147278333,1.657594159567452-1.481582879526286.512473509346819-.667179105709693.768680340306673-1.430592872523448.768680340306673-2.290001910736464,0-1.121301374648283-.363154181330174-2.022124831693873-1.088983764579098-2.702709760840662-.726068972950088-.680584929146789-1.70295850851835-1.020757698868692-2.930788301551729-1.020757698868692-1.553459638222193,0-2.634423847706785.579083694550718-3.243072170731466,1.737490473355138-.320303424270605.608528628171371-.499307075611796,1.406653902099606-.536472327195952,2.394375821783797h2.218065304612537c.026691952021793-.65137938523003.112154076434308-1.126328558437308.256266678385145-1.425565688733514.250880410043465-.517560540562044.723375838781067-.776580200547869,1.417306743936933-.776580200547869.50720693585572,0,.896873526928175.163024388586564,1.169119468071585.488354996646194.27230578857052.325809387466506.40839883542867.733968833191284.40839883542867,1.22519650628692,0,.603501444382346-.237594281454221,1.158406778805329-.712663149513901,1.665673562084521-.30965058243055.325569997762614-.990295359004449.864915001409827-2.041934329719879,1.617556231532035-1.211970225127516.864675611706843-1.980710412861299,1.684345959015445-2.306160715770602,2.458053483110234-.336342534454161.688963568795771-.515346185797171,1.449504659158265-.536532174623062,2.28234144020098h7.951508568527061v-2.009915956778059h-5.068777750100708c.144172449377947-.240107873350098.321500372790979-.451010202782527.532522397077628-.632706988300015Z"/>
        <path d="M427.794113782028944,5.749422526671879c.277512514638147-.106767808090808.54455172971393-.307136990537401.800818408100895-.600628767931994.405526158978319-.469682599713451.608588475597571-1.046372397221603.608588475597571-1.729590613115761,0-.966176846302915-.340352311997776-1.736532914539566-1.020997088571676-2.310350035596457-.680584929148608-.573817121055981-1.576321354978063-.86060598673339-2.686491108381233-.86060598673339-.597935633757515,0-1.102449435438757.071816911270616-1.513481557612977.216168902926256-.411211664453731.144112601950837-.766047053562943.352142254933824-1.064984946728146.624567738355836-.400379280335983.384220475300936-.694050600010087.803631237125046-.88077456931569,1.257274726654941-.176190822317949.517560540562044-.275118617595581,1.064805404448634-.296304606421472,1.641255812251984h2.129969893452653c-.010772536687-.571183834310432.112094229012655-1.027460610585877.368360907395981-1.369309108237758.250940257468756-.341369718242277.645753727181727-.512293967069127,1.18509873082985-.512293967069127.46962275228725,0,.833973882137798.138846028458829,1.093053389548004.416538085374668.258899965132514.277213277506235.388349947697861.63773417208813.388349947697861,1.080844514631281,0,.68345760559896-.253573544212486,1.137101095128855-.760720632639277,1.361169858295398-.293611472246994.133579454964092-.811590944791533.20563575594042-1.553459638222193.216168902925347v1.63359534171741c.757907803616035,0,1.313232070018785.072056300975419,1.66555386723121.216168902926256.619301164862918.256386373238456.928891899868177.766286443264107.928891899868177,1.52946082037397,0,.576689797507242-.166974318706707,1.018363801825217-.500444176710516,1.325261402657816-.333649400277864.307136990537401-.724692482150203.460585790952791-1.173129245613381.460585790952791-.731515088726155,0-1.235969042978468-.280325343661389-1.513421710191324-.840976030985075-.149498870294337-.30426431408705-.224188458018034-.688484789388895-.224188458018034-1.152900815608518h-2.24212396988878c.037225099009447.923804868652041.224188458019853,1.670700745873546.560530992474014,2.241884580183978.640606848537573,1.072944654392813,1.782854822307854,1.609656371292658,3.427222700714992,1.609656371292658,1.334418058846495,0,2.342188866261495-.372250990088105,3.022833642831756-1.116992359970936.680644776573899-.744741369883741,1.020997088571676-1.608220033068392,1.020997088571676-2.590675379258755,0-.933859236230091-.291097880350208-1.670700745874456-.872874709071766-2.209806359815957-.389666591072455-.357648218131544-.688604484241296-.536472327196861-.896873526928175-.536472327196861Z"/>
        <polygon points="429.858909828504693 1.633355952011698 431.716693628241046 1.633355952011698 431.716693628241046 13.396487238834197 429.858909828504693 13.396487238834197 429.858909828504693 15.070300050862897 433.878741742060811 15.070300050862897 433.878741742060811 0 429.858909828504693 0 429.858909828504693 1.633355952011698"/>
        <rect x="435.230635249314219" y="9.528907177173096" width="2.426334347301236" height="2.386236571839618"/>
        <polygon points="443.885470768891537 2.618205195245537 443.509090306404687 1.425086909325728 441.83557673150608 1.969698486465859 441.83557673150608 .039978080606488 440.450228513082038 .039978080606488 440.450228513082038 1.969698486465859 438.77665509075814 1.425086909325728 438.400334475696582 2.618205195245537 440.105926270964119 3.146777662202112 438.98486428601791 4.740394923311214 440.009811304711548 5.46909718301049 441.15487210750689 3.963575333060362 442.267914537358592 5.46909718301049 443.29292140347934 4.740394923311214 442.179878973625819 3.146777662202112 443.885470768891537 2.618205195245537"/>
      </g>
    </g>
  </g>
</svg>
