<?xml version="1.0" encoding="UTF-8"?>
<svg id="Layer_2" data-name="Layer 2" xmlns="http://www.w3.org/2000/svg" viewBox="0 0 588.248678904051303 165.000000000001819">
  <g id="Layer_1-2" data-name="Layer 1">
    <g>
      <path d="M439.954831085919977,136.685025441509424c-6.003566720815797-.293330950035852-12.019444903342446-.373424616656848-18.029201937773905-.373424616656848h-82.612536354214171c15.485398036371407-15.487818829406933,30.950046418180136-30.996663975439333,46.460447788304009-46.459444888335383,8.15572089230227-8.130682975795935,17.768309614377358-14.419626612399043,28.518256068673509-18.540923002106865,3.693646009123768-1.320784678579003,7.457633347223236-2.406683267482549,11.304238893249931-3.187008610158955,1.62670375237758-.329919507585146,3.265891880262643-.612391471730007,4.911477818301137-.836626072062245.039839336764999-.00131414479074.079540342498149-.003734937821719.119310513749951-.005118248126564-.025107082026807.016530558136765.223542945179361.003596606790779.54744505294002-.023516275173279,1.210050688714546-.044542591799654,2.4199630464027-.091229314572047,3.627454611059875-.155622409238276-.004564924005535.000276662060969,6.810728283395292.06397810157614,7.467939008984104-.901503325335398.159979836698767-.23495525519229-8.108619176440698-.932766138213992-7.467939008984104-.901364994305368-6.00363588633445-.293400115549957-12.019479486105411-.373493782170044-18.029236520533232-.373493782170044-21.570683813421056,0-43.286061884675291.216764724688801-62.738275132518538,10.563787470090574-7.976962618226025,4.243166027520601-14.794330791086395,9.900697675709125-21.145903801716486,16.252236103583527-9.615459090953664,9.615528256468679-19.23088359914982,19.230918181908237-28.846342690105303,28.846377272861901-1.186983989393411-.007262379097483-2.373967978788642-.013487275466105-3.56060614060334-.013487275466105h-45.925245031561644c10.206270921938994-10.206270921937175,20.412507261118662-20.412541843874351,30.618778183054019-30.618743600293783,16.858368096183767-16.858402678943094,33.716736192367534-33.716805357884368,50.575104288553121-50.575138871311538,3.446275543949014-3.446240961192416,6.89251650514052-6.892551087899847,10.338757466333846-10.338792049092262h106.685351846121193c6.000523438146047,0,12.034661316691199-.053672439807087,18.029167355016398-.373355451140014-.004495758488702.00027666205915,6.810728283397111.06397810157614,7.468008174504575-.901503325336307.159910671180114-.235024420707305-8.108688341957532-.932766138213083-7.468008174504575-.901434159821292-6.003635886330812-.293330950033123-12.019444903344265-.37342461665321-18.029167355016398-.37342461665321h-228.030991714835181c-2.651356277565355,0-5.30274713788458.000622489635134-7.954137998207443,0-8.40568506429554-8.405685064298268-16.811370128594717-16.811370128595627-25.217089775647764-25.217055192892076-1.023545876934804-1.023511294178206-6.936436607304131-.873145464098343-7.467939008987742-.901503325336307C178.112138926323496.055397516731318,172.072536972077614-.011831364059617,166.074710989020787.001586745890563c-6.007301658639335.013418109953818-12.030511385777572.028911185362631-18.029201937772086.373355451142743-1.328946209376227.086041900929558-2.657892418750635.172083801859117-3.98683862812868.258056537272751-1.226650412367235-.059689839630664-2.387005678403511.154723257539445-3.481134963618388.643446788063557,5.075434672125994,5.075434672122356,10.150834761492661,10.15086934424653,15.226269433615016,15.22623485085478,2.99988130874226,2.999915891497949,5.999762617482702,5.999831782995898,8.999678508980651,8.999678508979741.669625935570366.669660518329692,1.35720032233985,1.604847449574663,2.142228920049092,2.142263502808419,1.427749147864233.977377895530481,3.958446184133209.790077680321701,5.598291384409094.896177580664698.733361957842135.047447543440285,1.467173491535505.088739356023325,2.201123356255266.127610375576296.013971434076666.002282462000949.010028999709903.003112448184766-.02417334756683.001452475818951.05415659841492.002628289578752.108382362346674.003942434366763.162538960761594.006570723945515,4.36704146527336.22831536573085,8.743454857858524.313527280478411,13.117654953955935.346588396751031.315325583873346.002628289577842.630616584989184.003734937821719.94594216886253.005809903278532,1.217140154029039.007193213581559,2.434107394266903.012242296193108,3.650521310384647.014386427164936,8.831952134580206.015908068499812,17.664077182944311,0,26.496029317524517,0h75.990007437721943c-.056784887992762.061073149937329-.113777272532388.12463625842156-.170354663978287.181213649868369-1.962606077033342,1.96250232876082-3.925212154068504,3.925142988553489-5.887783648344339,5.887783648344339-16.083437663697623,16.083333915423282-32.166840744632282,32.166806161876593-48.250243825574216,48.250140077299875-8.152297199296299,8.152331782058354-16.304559815842367,16.304594398601694-24.456857015142305,24.456926180658229-2.869296816010319,2.869262233254631-5.738593632022457,5.738524466508352-8.607890448034595,8.607855865277088-1.321130506154077,1.321130506156805-3.06866641362285,2.656163280869805-4.301403391335043,4.148755099249684h-34.022413186867198c7.6072037738777-7.607238356636117,15.214407547753581-15.214338382240385,22.821576738875592-22.821576738873773,12.81080214569738-12.810767562940782,25.621604291392941-25.621535125879745,38.432371854332814-38.432371854336452,2.951949606695052-2.951915023936635,5.903899213393743-5.90383004787509,8.85581423732765-8.855814237328559.153927854116773-.153893271355628-8.712399541525883-.967833054427501-7.467939008985923-.901503325334488-5.991808583230522-.319475514786973-12.031410537476404-.386773561092923-18.029236520533232-.373355451140924-6.007301658639335.013418109951999-12.030511385779391.028911185361721-18.029236520531413.373355451140924-1.721564256502461.098906686760529-6.214556124989031-.351844975908534-7.467939008987742.901503325334488-5.267403559608283,5.267368976849866-10.534841701974074,10.534876284731581-15.802245261582357,15.802245261583266-24.345638866674562.915336428379305-48.484887835946211,3.708793256953868-71.979860030967757,10.827100586522647-24.352797497500433,7.378162170236465-47.544686404846288,18.522040816450499-68.419323055883069,33.082557583345078C20.766712956205993,118.223227788810618,9.945768100537862,127.287852716576708.002014891607359,137.231640508266537c-.155207416146368.155207416146368,8.711604138101393.962230647695833,7.467939008987742.901503325335398,6.003635886336269.293330950034942,12.019479486103592.373355451139105,18.029236520535051.373355451139105h147.584995959266962c8.40568506429554,8.405685064298268,16.811370128594717,16.811370128595627,25.217055192890257,25.217055192893895,1.023545876938442,1.023580459693221,6.936471190063457.873145464096524,7.467973591747068.901503325336307,5.991808583230522.319544680300169,12.031410537476404.386773561091104,18.029201937772086.373355451139105,6.007301658641154-.013418109951999,12.030545968540537-.028842019844888,18.029236520535051-.373355451139105,1.328946209374408-.086041900929558,2.657892418752454-.172014636345011,3.98683862812868-.257987371759555,1.226615829609727.059689839631574,2.387005678401692-.15479242305446,3.481100380857242-.643515953576753-5.075400089363029-5.07536550660825-10.150834761489023-10.150800178732425-15.226234850853871-15.226234850856599-2.999881308740441-2.999846725982025-5.99979720023839-5.999762617479973-8.999678508980651-8.999678508977922-.669660518326054-.669660518328783-1.35720032233985-1.604778284060558-2.142228920050911-2.142194337294313-1.427783730618103-.977447061046405-3.958480766887078-.790146845837626-5.598325967162964-.896246746180623-6.671498101266479-.431731145983576-13.370005336222675-.490383502888108-20.053607402653142-.502418302535261-8.831952134580206-.015838902984797-17.664077182947949,0-26.496029317524517,0H56.377097206938743c-1.362111073922279,0-2.724222147842738-.001383310303936-4.086333221766836-.001936634424965,23.926980003070639-23.560402772420275,52.736803301140753-41.86145976775515,84.165613415654661-53.668013215260544,9.432205058386899-3.460004898722218,19.063364721296239-6.348495145206471,28.844544386707639-8.619544837349167-.29841461540309.298449198160597-.59682923080436.596898396321194-.89524384620745.895278428965867-12.810767562939873,12.810836728456707-25.621569708637253,25.621604291396579-38.432371854336452,38.432371854337362-2.951915023935726,2.951984189450741-5.903864630632597,5.90383004787418-8.855814237329469,8.85581423732674-.155207416144549.155207416147277,8.711604138105031.962230647696742,7.467973591748887.901503325335398,6.003601303571486.293330950034033,12.019444903340627.373355451140014,18.029201937773905.373355451140014h157.866691875549805c.34209263826051,0,.68511901097736-.002628289577842,1.027419145788372-.003043282668841-1.105092019375661,1.105126602133168-2.210149455997453,2.210114873236307-3.315241475373114,3.315241475372204-3.716228549837979,3.716263132597305-7.432457099681415,7.432457099681415-11.14868564952485,11.148651066764614-.155241998902056.155207416145458,8.711604138105031.962230647696742,7.467939008989561.901503325336307,6.00363588633445.293400115549048,12.019479486103592.373355451139105,18.029236520535051.373355451139105h109.383602342997619c6.000592603666519,0,12.034695899448707-.053672439807997,18.029201937773905-.373355451139105-.004564924001897.00027666205915,6.81072828339893.063978101574321,7.467939008987742-.901503325336307.160049002211963-.23495525519138-8.108550010923864-.932766138213992-7.467939008987742-.901434159819473Z"/>
      <path d="M534.620772611452594,120.78477264486537c13.188272944995333-13.188272944994424,26.376615055502043-26.376545889987938,39.564957166012391-39.564888000496467,4.686931973150422-4.687001138665437,9.373933111815859-9.374002277332693,14.060934250483115-14.060934250483115.155207416148187-.155207416146368-8.711673303618227-.962230647695833-7.467939008987742-.901503325337217-6.003705051847646-.293330950033123-12.01951406885928-.373355451140014-18.029236520531413-.373355451140014-20.038079744488641,0-40.175896161921628-.437679380291229-60.186171369292424.64752755345944-31.498459788337641,1.708249894825713-61.987863875176117,9.329321354503008-89.546240923669757,24.97552921375609-14.563041308203537,8.268045689016617-27.998719301125675,18.502121148070728-39.840235916572055,30.34360318076142-.155207416150006.155207416147277,8.711638720857081.962230647696742,7.467973591741611.901503325335398,6.00363588633445.293330950034033,12.019479486103592.373355451140014,18.029201937775724.373355451140014h54.691870337015644c6.000523438149685,0,12.034661316691199-.053672439808906,18.029167355016398-.373355451140014-.004495758488702.000207496545045,6.810728283397111.063908936060216,7.468008174504575-.901503325335398.159910671180114-.235024420706395-8.108688341957532-.932766138213992-7.468008174504575-.901503325336307-6.003635886330812-.293261784517199-12.019444903344265-.373355451139105-18.029167355016398-.373355451139105h-27.884561618260705c18.578064883780826-18.211833480704627,40.883528548107279-32.358947963149149,65.219415077137455-41.542952570181114,8.336796211136971-3.053104172699022,16.866218382159786-5.550463430633499,25.549948817628319-7.40755751420329,4.451700055900801-.951994151444524,8.938467028012383-1.741172680068303,13.447920289116155-2.365183958353555.451996641944788-.06252562575628.904269945945998-.122907120539821,1.356750746495891-.182181967081306.138746023523709-.018121364986655.743529288580248-.093235114512936,1.097933388547972-.13805436837356.195185083943215-.022132964868433.38054866472703-.043159281494809.413056456876802-.046617557255558.606443237422354-.063148115391414,1.212471481749162-.128647858303339,1.819329712263425-.188476028964942.483259454817016-.04765503998442.967348895823307-.086595225052406,1.451092509245427-.130376996185078-10.955195120703138,10.955125955189942-21.910390241404457,21.910390241408095-32.865516196596218,32.865516196596218-6.056409174443615,6.05634000892951-12.112680017855382,12.112680017858111-18.169020026783983,18.168950861270787-.593647617102761.593716782620504-2.203889976866776,1.741656838674317-2.054699960543076,2.428816232352801.155622409238276.716969730738128,2.001511679342002,2.001580844857926,2.505659119757183,2.505728285273108,1.544673451338895,1.544673451337985,3.089416068190985,3.089346902675061,4.634089519526242,4.634089519527151,6.673019742600445,6.67295057708634,13.346108650715905,13.3460394852018,20.019059227801336,20.019059227804064,1.023580459694131,1.023580459692312,6.936471190065276.873076298581509,7.467939008989561.901434159820383,5.991877748745537.319544680301988,12.031479702993238.386911892122953,18.029236520531413.373424616655029,6.007301658641154-.013487275466105,12.030580551296225-.028842019844888,18.029236520535051-.373424616655029,1.328946209374408-.085972735413634,2.657892418750635-.171945470829087,3.986838628123223-.257987371758645,1.226650412370873.059759005146589,2.387040261164657-.154723257541264,3.481100380862699-.643446788061738-5.675722178690194-5.675791344206118-11.351444357378568-11.351513522895402-17.027235701583777-17.027235701586505-3.040585214446764-3.040654379961779-6.081170428889891-6.081170428892619-9.121755643338474-9.121755643337565-1.271607997263345-1.271607997260617-1.35889487746681-1.034923604187497-.130930320307016-2.262888161346382Z"/>
      <path d="M483.191992951337852,50.96923991605945c5.991808583230522.319544680301078,12.03134137195957.386773561092014,18.029167355016398.373355451140014,6.007301658641154-.013418109951999,12.030580551294406-.028842019844888,18.029236520535051-.373355451140014,1.721598839259968-.098906686761438,6.214590707741081.35191414142173,7.467939008984104-.901503325335398,7.820060646956335-7.81999148144223,15.640052128397656-15.63998296288355,23.460043609840795-23.460043609839886.153962436874281-.153893271357447-8.712364958768376-.96783305442932-7.467939008987742-.901434159821292-5.991808583230522-.319544680300169-12.031410537478223-.386842726607938-18.029236520535051-.373424616655939-6.007301658635697.013487275468833-12.030511385775753.028842019844888-18.029236520529594.373424616655939-1.721529673748591.098906686760529-6.214521542229704-.35191414142264-7.46793900899138.901434159821292-7.819991481437683,7.820060646956335-15.639982962877184,15.640052128397656-23.460043609837157,23.460043609839886-.153893271357447.153962436871552,8.71243412428521.967833054428411,7.468008174504575.901503325335398Z"/>
    </g>
  </g>
</svg>