<?xml version="1.0" encoding="UTF-8"?>
<svg id="Layer_2" data-name="Layer 2" xmlns="http://www.w3.org/2000/svg" viewBox="0 0 554.807996352546979 164.999999999999091">
  <g id="Layer_1-2" data-name="Layer 1">
    <g>
      <path d="M390.122232558987889,74.46615132198076c-2.083996045061212-2.083996045061212-2.083996045061212-8.336045069510874-2.083996045061212-8.336045069510874,0,0,0,6.252049024449661-2.083996045061212,8.336045069510874l2.083996045061212,2.084056934328146,2.083996045061212-2.084056934328146Z"/>
      <path d="M385.954240468865464,82.802257280759477c2.083996045061212,2.083996045061212,2.083996045061212,8.336045069510874,2.083996045061212,8.336045069510874,0,0,0-6.252049024449661,2.083996045061212-8.336045069510874l-2.083996045061212-2.084056934328146-2.083996045061212,2.084056934328146Z"/>
      <path d="M390.122232558987889,78.634204301370119l2.084056934327236,2.083996045061212c2.083996045061212-2.083996045061212,8.336045069512693-2.083996045061212,8.336045069512693-2.083996045061212,0,0-6.25204902445148,0-8.336045069512693-2.083996045061212l-2.084056934327236,2.083996045061212Z"/>
      <path d="M383.870183534538228,76.550208256308906c-2.083996045061212,2.083996045061212-8.336045069510874,2.083996045061212-8.336045069510874,2.083996045061212,0,0,6.252049024449661,0,8.336045069510874,2.083996045061212l2.084056934327236-2.083996045061212-2.084056934327236-2.083996045061212Z"/>
      <path d="M387.473245007407968,78.0692127948505v-1.129983013037418c-1.129983013039237,0-2.824896643329339-1.694974519557945-2.824896643329339-1.694974519557945,0,0,1.694913630290102,1.694974519557945,1.694913630290102,2.824957532595363h1.129983013039237Z"/>
      <path d="M388.603228020445385,79.199195807888827v1.129983013038327c1.129983013039237,0,2.824957532595363,1.694974519557945,2.824957532595363,1.694974519557945,0,0-1.694974519556126-1.694974519557945-1.694974519556126-2.824957532596272h-1.129983013039237Z"/>
      <path d="M388.603228020445385,78.0692127948505h1.129983013039237c0-1.129983013037418,1.694974519556126-2.824957532595363,1.694974519556126-2.824957532595363,0,0-1.694974519556126,1.694974519557945-2.824957532595363,1.694974519557945v1.129983013037418Z"/>
      <path d="M387.473245007407968,79.199195807888827h-1.129983013039237c0,1.129983013038327-1.694913630290102,2.824957532596272-1.694913630290102,2.824957532596272,0,0,1.694913630290102-1.694974519557945,2.824896643329339-1.694974519557945v-1.129983013038327Z"/>
      <path d="M174.22253172708588,35.159511372326051l2.084056934328146,2.084056934328146,2.083996045061212-2.084056934328146c-2.083996045061212-2.083996045061212-2.083996045061212-8.336045069511783-2.083996045061212-8.336045069511783,0,0,0,6.252049024450571-2.084056934328146,8.336045069511783Z"/>
      <path d="M178.390584706475238,43.495617331103858l-2.083996045061212-2.084056934328146-2.084056934328146,2.084056934328146c2.084056934328146,2.083996045061212,2.084056934328146,8.336045069511783,2.084056934328146,8.336045069511783,0,0,0-6.252049024450571,2.083996045061212-8.336045069511783Z"/>
      <path d="M188.810686710314258,39.3275643517145s-6.252049024449661,0-8.336105958777807-2.083996045060303l-2.083996045061212,2.083996045060303,2.083996045061212,2.083996045061212c2.084056934328146-2.083996045061212,8.336105958777807-2.083996045061212,8.336105958777807-2.083996045061212Z"/>
      <path d="M163.802490612513793,39.3275643517145s6.252049024450571,0,8.336045069511783,2.083996045061212l2.083996045060303-2.083996045061212-2.083996045060303-2.083996045060303c-2.083996045061212,2.083996045060303-8.336045069511783,2.083996045060303-8.336045069511783,2.083996045060303Z"/>
      <path d="M174.61161414185699,38.762572845195791h1.129983013038327v-1.129983013038327c-1.129983013038327,0-2.824957532595363-1.694974519557036-2.824957532595363-1.694974519557036,0,0,1.694974519557036,1.694974519557036,1.694974519557036,2.824957532595363Z"/>
      <path d="M178.001563180971061,39.892555858234118h-1.129983013037418v1.129983013038327c1.129983013037418,0,2.824896643328429,1.694974519557036,2.824896643328429,1.694974519557036,0,0-1.694913630291012-1.694974519557036-1.694913630291012-2.824957532595363Z"/>
      <path d="M178.001563180971061,38.762572845195791c0-1.129983013038327,1.694913630291012-2.824957532595363,1.694913630291012-2.824957532595363,0,0-1.694913630291012,1.694974519557036-2.824896643328429,1.694974519557036v1.129983013038327h1.129983013037418Z"/>
      <path d="M175.741597154895317,39.892555858234118h-1.129983013038327c0,1.129983013038327-1.694974519557036,2.824957532595363-1.694974519557036,2.824957532595363,0,0,1.694974519557036-1.694974519557036,2.824957532595363-1.694974519557036v-1.129983013038327Z"/>
      <path d="M553.964472083313012,77.601461447391557c-2.280546598251021-3.233341844937968-6.891081879382909-5.963373010612486-10.148414095434418-8.117817937346445-5.895055253276951-3.899105087989483-12.394253811617091-6.901981058137608-19.17232521184269-8.902497918433255-13.642118445153756-4.026302766307708-29.376148540051872-4.285812821355648-43.362839345954853-1.99351459461468-7.13737896353814,1.169804593516346-14.092820797914101,3.428735502057862-20.56309695453092,6.660616004592157-3.377710296490477,1.68711980414173-6.616897511039497,3.653964899904167-9.683037429378601,5.856329679600094-1.561870582359916,1.121823851288354-3.076308425892421,2.311600124311553-4.542643748663977,3.55562873404233-.455756161903992.386646844099232-2.238289447101124,1.647724448530425-3.362914204661138,2.704031448755813-11.400236531313567-10.818926701295823-26.144389816050534-17.57051127046816-41.767296999061728-19.324426600275729-15.542898686453555-1.745025496856215-32.206586106660325-.893428211569699-46.760947546821626,5.175709455451397-3.673266797475662,1.531730395300656-7.22073636976711,3.367846235270918-10.583955020763824,5.496839448487663-1.812064579587968,1.147032007738744-3.570303047337802,2.375290297371976-5.272401611109672,3.679842838289005-1.635485705905012,1.253405556815778-5.072197701912955,3.351588801038815-6.069990116755434,5.20925944145165-.153684509370578.286179553900183-.29318181958115.480294536418114-.418126595028298.621557635364297-16.819685721715359-15.75241865346743-38.565556683586692-20.298776647406157-61.158945349870919-19.422092984203118-10.822458278769773.419953273031751-21.409275095073099,2.701839435151669-31.16513608752939,7.493946509843227-5.467551711162741,2.685703779453434-10.575917637547718,6.077479496570959-15.176162632593332,10.070049609079433-.234849901998132.203857265203624-.668016145922593.537591336465084-1.152512041749105.92606485856777-11.389702688159559-10.776365103812168-26.102985114635885-17.501158395598395-41.690820079978039-19.251176812331323-15.542898686452645-1.745025496856215-32.206586106658506-.893428211569699-46.760947546819807,5.175709455451397-3.673266797475662,1.531730395300656-7.220736369768929,3.367846235270918-10.583955020763824,5.496839448487663-.204100822270448.129207024122479-.400407818392523.269922119668081-.603169076794074.401199378861747,17.645344179350104-17.645405068617038,35.290749247967142-35.290810137234075,52.936093427317246-52.936154316585089L192.579306099579298.49902692487376c-.343659021747044.343719911013977-5.189470429745597-.295860947319852-5.923003426732066-.296165393653609-1.166455683843196-.000487114134557-5.01234355266115-.614433591150373-5.922942537465133.296165393653609-14.098666167525153,14.098605278258219-28.197271445783372,28.197210556517348-42.2958767240425,42.295815834775567-10.651602996164002,10.651602996164911-21.303205992328913,21.303266881595846-31.954869877759847,31.954869877759847-10.573177620542083-8.314246712001477-23.365708126214486-13.524480381721332-36.808536001173707-15.0336817483103-15.542959575719578-1.744964607590191-32.206646995925439-.893367322302765-46.760947546819807,5.175709455451397-3.673327686742596,1.531730395300656-7.220736369768929,3.367907124537851-10.584015910030757,5.496839448487663-1.812003690321944,1.147032007738744-3.570242158071778,2.375351186637999-5.272401611109672,3.679842838289005-1.635485705905921,1.253466446082712-5.072197701912955,3.351588801037906-6.069929227489411,5.20925944145074-1.065988393645057,1.984563872397302-1.543908248658227-.120012744837368,0,2.065485707958032,1.155130280220874,1.635181259572164,3.401700667604018,3.096158326866316,4.934100844840032,4.32039792489104,3.52195696950912,2.813814796772931,7.306712014472396,5.294991529087383,11.297699006043331,7.392322323575172,14.504066905795298,7.622118416430567,30.613601108970215,9.095151558548423,46.74548167305602,8.294518589562358,6.613305044299523-.328193147983256,13.098681739078529-1.468527336375701,19.306951380708597-3.389096589379733-4.126161163839242,4.126161163839242-8.252322327678485,8.252322327679394-12.378483491518637,12.378483491518637-5.226125768351267,5.226125768351267-10.4521906474356,10.452251536702533-15.678316415786867,15.6783773050538.343659021747044-.343719911013977,5.189470429745597.295860947319852,5.922942537464223.296165393653609,1.166516573111039.000487114134557,5.012404441928993.614433591150373,5.923003426732066-.296165393653609,14.098605278259129-14.098605278258219,28.197271445784281-28.197210556516438,42.2958767240425-42.295815834775567l3.951896082294297-3.951896082294297c1.175284627527617,1.5928023298884,3.35219769370633,3.018768068779536,4.851778556143472,4.216825282085665,3.522017858776053,2.81381479677384,7.306712014472396,5.294991529088293,11.29769900604424,7.392322323575172,14.504066905795298,7.6221793056975,30.613601108970215,9.095212447815356,46.74548167305602,8.294579478829291,17.102211919607726-.848735489747014,33.374868468506065-7.049089526694843,46.091713615561275-18.477274231464435.423545739771725.361438687648842.846847922476627.692737188238425,1.01666808754635.862557353308148l15.348844593202557,15.348844593201648c.828520253173338.82858114244118,4.812870314664906.295678279519052,5.923003426731157.296165393653609.81323704721035.000304446333757,5.463350351754343-.75575757936349,5.922942537465133-.296165393653609-4.676965471197036-4.677026360463969-9.353991831661915-9.354052720927939-14.031018192124975-14.031018192124975-.754600683294484-.754661572560508-2.641802618099064-1.998142178890703-3.026866341261666-3.026927230528599-.504954689467013-1.348819037871181-.085244973502085-1.04699094240641,1.544943366193365-2.550468717918193,4.666857852909743-4.304140490658028,9.906988152622944-7.972901482391535,15.549231170198254-10.882738652889202,12.161230587620594-6.271959814689581,25.306492615791285-9.056973988272148,38.701400637790357-5.711900338779742,12.242152423181324,3.057250085388659,23.52426377692791,9.440332811965163,32.497027909234021,18.304896717189877h-55.273023486613965c-.66180544071176,0-5.562295410283696.65687341010107-5.923003426731157.296165393653609,24.714709831885557,24.714709831885557,49.429419663771114,49.429419663772023,74.144068606390647,74.144068606390647l10.585233695366696,10.585233695366696c.828520253173338.828520253174247,4.812931203932749.295678279519052,5.923003426731157.296165393653609.813297936478193.000304446333757,5.463350351754343-.755818468630423,5.923003426731157-.296165393653609-24.714709831885557-24.714709831886466-49.429419663771114-49.429419663772023-74.144129495656671-74.14412949565849-3.429709730327886-3.429648841059134-6.859297682120086-6.859297682119177-10.289007412446153-10.289007412446153h55.283191994165463c.47633673407654,0,3.141947055490164-.338666101870331,4.736758731181908-.394927784382162,1.163472109772556,1.618436711205504,3.382337880766499,3.065774582739323,4.901829533442651,4.279723894676863,3.522017858776962,2.81381479677384,7.306712014473305,5.294991529088293,11.29769900604515,7.392322323575172,14.504066905794389,7.6221793056975,30.613601108969306,9.095212447815356,46.74548167305511,8.294579478829291,17.758171990708433-.881311247479061,34.613538822759438-7.544545490542987,47.53034432194363-19.827737279539178.641651093405017.583136508021198,1.386996608147456,1.173640617324054,1.58135514773312,1.367999156909718l5.743136532642893,5.743136532641984c3.008843118292134,3.008843118293044,6.017686236584268,6.017686236586087,9.026529354878221,9.026529354879131.82858114244118.82858114244118,4.812931203932749.295678279519052,5.923003426731157.2961653936527.813297936478193.000365335600691,5.463411241022186-.75575757936349,5.923003426732976-.2961653936527-5.00619373671725-5.006132847449408-10.012326584164839-10.012326584164839-15.018520320882089-15.01852032088118-.294460494182204-.294460494183113-2.202669226029684-1.764205615893843-2.239446343168311-2.23944634316922-.085305862769019-1.103130846384374,4.470307299721753-4.292754197768772,5.331525089159186-4.994076772624794,5.127180709823733-4.175055245069416,10.832200561457284-7.649944811352725,16.914064085236532-10.24857693929971,6.557286918854516-2.801697832682294,14.018109667566023-5.022694728015267,21.186724824963676-5.347417187791507,6.483489127509529-.293608044447865,13.558213035521476,1.705325694911153,19.612919946315742,3.896669517318514,6.548153528836338,2.370053820427529,12.742296860571514,5.742405861440602,18.310620308267971,9.92154068738455,1.35673464255342,1.018251208483889,7.6873917104258,5.078225739325717,7.695185536575082,6.679857012897628.001704899468677.345668367551298-1.146179558003496,1.083402723946165-1.353203065080379,1.353324843614246-4.70138206718002,6.126921581201714-11.362180739572068,11.362241628838092-16.834786259878456,16.834786259877546.343780800280001-.343719911013977,5.189470429744688.295860947319852,5.922942537465133.296165393653609,1.16651657311013.000487114134557,5.012404441928084.614433591150373,5.923064315999-.296165393653609,2.451645437922707-2.451584548655774,4.903169097311547-4.903169097311547,7.354692756700388-7.354753645967321,3.027414344662247-3.027353455396224,7.302815101396845-6.114378392244362,9.674330264228047-9.674269374962023,1.093327674432658-1.641270186250949,1.384865483809335-.377330786280254.105094874475981-2.191770047274076ZM67.639340904175697,99.101461549976193c-13.589814564984408,3.31712547603729-26.98947194979155.19021806944329-39.194055695365023-6.378942256435039-5.016849358404215-2.700317203481063-12.255121837007209-6.622377545049858-15.612556007657986-11.379351512805442-1.161645431767283-1.645836881260038-.986162564886399-.239964600408712-.526874825510276-1.549144725601764.378061457482545-1.077618243601137,2.953190328449637-2.753412644120544,3.781771470890817-3.457597014515159,2.550834053518884-2.167657897626668,5.256205066144503-4.161842274176706,8.087495082485475-5.947846247580856,10.89856986225368-6.874885334416831,25.077488083405115-12.0969924111605,38.072414511877469-9.96720763747544,14.609588005137084,2.39440952714267,28.209875524008567,9.424562491867619,38.674365803336514,19.889052771194656-9.144045639778597,9.14410652904462-20.713432554227438,15.723070026875575-33.282560340056989,18.791036623219043ZM179.878170383355609,97.425240924590071c-13.589814564984408,3.317125476036381-26.98947194979246.19021806944329-39.194055695365932-6.378942256435039-5.016788469136372-2.700317203481973-12.255060947740276-6.622377545050767-15.612495118390143-11.379351512806352-1.161645431768193-1.645897770526062-.986223454153333-.239964600408712-.52693571477721-1.549144725601764.378061457481635-1.077618243601137,2.953190328449637-2.753473533386568,3.781832360156841-3.457597014515159,2.55077316425286-2.167657897626668,5.256205066144503-4.161842274176706,8.087434193219451-5.947846247580856,10.89856986225368-6.874885334416831,25.077548972671138-12.097053300427433,38.072475401143492-9.967268526742373,14.60952711587106,2.39440952714267,28.209875524009476,9.424623381134552,38.674365803336514,19.889113660461589-9.14410652904553,9.14410652904553-20.713493443494372,15.723009137609552-33.282621229323013,18.791036623219952ZM442.193211283793062,78.660386686088714c-.192653640115168-.014856981096273-.388534411369619-.030992636794508-.5863636391623-.048285188562659.200873691132074-.020032568772876.399433590124318-.038238459542299.594949025778988-.054861229375092-.005236476943537.025269045716414-.017901444436575.053826111839953-.018449447836247.076964033219156-.00018266780171.006941376414034.009255168550226.018814783436937.00986406121956.026182384718595ZM399.32716746555343,97.425240924590071c-13.589814564984408,3.317125476036381-26.98947194979155.19021806944329-39.194055695365023-6.378942256435039-5.016788469136372-2.700317203481973-12.255060947740276-6.622377545050767-15.612495118390143-11.379351512806352-1.161645431768193-1.645897770526062-.986223454154242-.239964600408712-.52693571477721-1.549144725601764.378061457482545-1.077618243601137,2.953190328449637-2.753473533386568,3.781832360156841-3.457597014515159,2.55077316425195-2.167657897626668,5.256205066143593-4.161842274176706,8.087434193219451-5.947846247580856,10.898569862252771-6.874885334416831,25.077488083403296-12.097053300427433,38.072475401144402-9.967268526742373,14.609527115870151,2.39440952714267,28.209814634741633,9.424623381134552,38.674365803335604,19.889113660461589-9.14410652904553,9.14410652904553-20.713493443494372,15.723009137609552-33.282621229323922,18.791036623219952Z"/>
    </g>
  </g>
</svg>