<?xml version="1.0" encoding="UTF-8"?>
<svg id="Layer_2" data-name="Layer 2" xmlns="http://www.w3.org/2000/svg" viewBox="0 0 772.841223439144414 165.000000000005457">
  <g id="Layer_1-2" data-name="Layer 1">
    <g>
      <path d="M206.2731793074081,119.345463560657663c-3.441588419689651-1.275866640959066-7.214793469984215-.986931947402809-10.824415662726096-.986931947402809H49.889255908706218c-3.825983537773936,0-7.597138824354261-.615526474822218-11.175874006115919-1.993576765308717-12.435506518435432-4.788517440485521-20.991501383743525-18.254258628968273-18.881170077114803-31.63587751450541,1.186625785185242-.19143621823423,2.39096152889033-.297590552905604,3.605815488695953-.309842283466423.860092568596883-.008667572288687,1.720325692422193-.010049698680632,2.5804416868923-.015074548019584,4.952674231877609-.028942663685484,9.905336750820425-.057897040305761,14.858010982698033-.086839703988517,7.009571126636729-.040960135534078,14.019142253273458-.081931984003859,21.028701666975394-.122903832473639,6.474688212914771-.037832781747056,12.949364712891111-.075677276431634,19.424052925802243-.113521771117121,3.094955805738209-.018073059513881,6.194749053847772.010037985747658,9.289611156102183-.050061086436472-3.41517575008038,3.415175750077651-6.830363213091914,6.830363213091914-10.245538963170475,10.245538963173203-.946463755166405.946463755161858-1.892915797396199,1.89291579739438-2.839367839625993,2.839367839625993-2.300689934794718,2.300689934794718-4.602164636267844,4.615329975798886-6.822726379130472,6.994426300999294-.489460149752631.529003020086748-.978920299507081,1.058017753116474-1.468380449261531,1.587020773206859-.470871721076037.437700687664801-.8662067209425.931646891723176-1.185981573735262,1.481862038047439h17.731112076642603c6.502424444235658,0,13.020099130531889.116895096550252,19.521000893149903-.069574837020809,13.87773198267314-.398075826783497,27.701959275858826-2.514240175300074,41.062389461028943-6.289494989317973,13.316658945113886-3.762874241158897,26.162621863180902-9.166262232072768,38.165077729358018-16.053468321269975,13.384851655740931-7.680464647688495,25.378229996884329-17.19524527633348,36.523099862663003-27.835193917465404,2.999389964783404-2.863496486810618,5.960935434879502-5.765891632500825,8.893175140290623-8.698143050847648,2.300689934792899-2.300689934793809,4.602164636267844-4.615318262865912,6.822726379126834-6.994414588067229.48946014975445-.529014733025178.9789202995089-1.058017753113745,1.46838044926335-1.587032486139833.470871721076037-.437688974730918.8662067209425-.931646891726814,1.185981573737081-1.481850325117193H93.579383890281861c-.643098725046002,0-1.286256014771425.002459716461999-1.929343026880815,0-4.19100546050322-.015999869929146-8.318597088069509-1.085226902339855-11.887235719408636-3.311000901510852-8.016555619666178-4.999982778467711-12.152510283196534-15.046038736695664-9.974056543549523-24.240494004581706.536382169470016-2.263841039629369,1.449885724065098-4.413071005137681,2.662502513185245-6.395016825466882.293291905567457-.44864056944607.599386049665554-.888332456151147.922323395048807-1.316229416780516,1.46908322539457-1.553920017408018,2.545373157927315-2.775438637529078,2.422047659776581-2.898764135679812-.332741072419594-.332741072418685-9.94889715804311,9.362676447908598-10.063309112258139,9.477088402125446-3.762780537679646,3.762780537678736-7.715790861231653,7.499300673907783-11.031254391178663,11.682118792479741-.858312202399247,1.082849176425952-1.625825728602649,2.246248210469275-2.298370773560237,3.453008531825617-1.208154160683989,2.167830107122427-2.039901425310745,4.539149043136604-2.445754641279564,6.987714788945596-.776263089041095,4.683335279460152.017592829157365,9.563775837951653,2.137880130983831,13.802616927140662,3.837075687717515,7.671047447523051,11.610681598704105,12.287736123842478,20.140603469531925,12.29934364294877,2.528143429770353.003443603044616,5.056298572475498,0,7.58444200224767,0h131.322493168981964c1.598897689827936,0,3.198041351301072.005715912537198,4.797161586902803.007507991675084-1.814439129373568,1.260347001387345-3.653416858673154,2.485473205648304-5.51514110876451,3.675624584431716-9.453276004203872,5.980144649137401-19.482875288016658,11.031652630984354-29.927276470543802,15.039420928121217-10.544078263850679,4.04601103162895-21.494033169545219,7.028628072737774-32.632753744175716,8.892484077096015-9.398354049517366,1.572625575439815-18.907043951690866,2.313351618094202-28.433748348703375,2.313351618094202h-16.205127410463319c-5.01217594435002,0-10.027877482290933-.053973206901901-15.039959723158972-.002049763716059,3.417061532698426-3.417061532699336,6.834111352458422-6.834123065395033,10.251172885158667-10.251184598090731.946463755166405-.946452042232522,1.892915797396199-1.892915797398018,2.839379552562605-2.83936783963054,2.300678221858107-2.300689934793809,4.602152923331232-4.615329975794339,6.82271466619386-6.994426301001113.489460149752631-.529003020087657.978920299507081-1.058017753113745,1.468392162196324-1.587020773201402.470860008139425-.43770068766753.866195008007708-.931646891729542,1.185981573735262-1.481850325118103-2.432870412201737.014219503726963-4.865740824407112.028427294520952-7.298611236608849.042646798247915-5.768773014640828.033721541381965-11.537546029283476.067431369825499-17.306319043924304.101152911201098-6.779482221169019.039624860884942-13.558976155269193.079238008833272-20.338458376438211.118862869718214-5.567369088274063.032538534891501-11.134726463613333.065077069783001-16.702083838950784.097615604670864-2.868544762022793.016761210737968-5.826178111656191-.136689957586896-8.68330276153938.185380630568943-4.661982597997849.525512565302961-9.08424825752445,2.493063187870575-12.701378441939596,5.467656868144331-3.967698344702512,3.262872449432507-7.592898741693716,7.00866923060039-11.217255807328911,10.628458251377197-3.63632768574098,3.631724502081852-7.342476180150697,7.25543735625979-10.652200371689105,11.195036368635556-1.506049249914213,1.792653069299377-2.792024154232422,3.799395174133679-3.759418925183127,5.933000083648949-3.838106426046579,8.465090772695476-2.131894820930029,18.734852086528917,2.933492989513979,26.318228211643145,5.148467662127587,7.707744074528819,13.770734316638482,12.695404844816949,23.026342820907303,13.269877480619471,1.662229532214042.10317924904848,3.340658054263258.058260141306164,5.005382441742768.058260141306164h144.361871791392332c1.227468791366846,0,2.455230406123519-.007753963316645,3.682675771615322,0,7.8174005769215.049370023241863,14.461914642026386,5.721874420800305,15.701611738080828,13.46121999537354.587075754425314,3.665106368325723-.154856720590033,7.400595766232072-2.064943681467412,10.5745084703467-.140695781534305.213761073346177-.28597132086179.424359654101863-.43608430256063.631655187038632-1.23491821836069,1.322601253708854-2.087643350514554,2.314839160906558-1.977155229700656,2.425315568789301.332729359482983.332729359482983,9.948885445106498-9.362676447912236,10.063297399321527-9.477088402125446,3.090212066850654-3.090212066850654,6.215668356697279-6.183574913351549,9.110942037588757-9.460362330193675.77000838146887-.871454116060704,1.53640917879784-1.745203967480847,2.181897342690718-2.714554798663812.830341712364316-1.246947403145896,1.54152773162059-2.554544386446651,2.029746310206974-3.974105320436138.887325143698035-2.579949743601901,1.059985526286255-5.378287170082331.543175672079087-8.054435253157862-1.038363447303709-5.376881617815343-4.821348798763211-10.051994416538037-9.983192633262661-11.965618683947469ZM66.318533766328073,10.071669623048365c.242668598224554-.242668598224554,1.37303715408234-1.361851300654052,2.773669984262597-2.771409387707536-.915611882990561.932302816117044-1.838274953168366,1.857917546048157-2.773669984262597,2.771409387707536ZM195.845668177908919,160.946003844423103c1.905015259795618-2.080287626999052,3.890182137394731-4.087158574131536,5.958733403002043-6.017672894566203-.415738933557805.415738933554167-3.435977923572864,3.403134852358562-5.958733403002043,6.017672894566203Z"/>
      <path d="M396.00069108147818,120.947910269950626c-2.717939837035374-1.803979477949724-5.860707845586148-2.586672968592211-9.09900655628735-2.589378656695771-1.129876612565567-.000937034842536-2.25972979925973,0-3.389582985953894,0h-107.475542085136112c-3.661487071249212,0-7.350909493730796.120420690138417-10.986241579952548-.386983676840828-11.760408053531137-1.641462497526845-22.381604284888454-8.637013240338092-28.593840751473181-18.74852108228697-6.32471578644072-10.294581024215404-7.640804647995537-23.2400101907715-3.526624331607309-34.601627928454946.392207646083989-1.083118573948013.833996148248843-2.146079185852614,1.318361171048309-3.188987252139668,5.312800147556118-2.449303660743681,11.10775157309763-3.716127915477045,17.004160446163951-3.722148364340683,3.112337802058391-.003174205524374,6.224687317051576,0,9.337013406171536,0h44.294960546259972c-3.065767170406616,3.065767170405707-6.131546053748025,6.131546053750753-9.197313224154641,9.19731322415646-.919336596489302.919336596489302-1.838661480040173,1.838661480040173-2.757986363594682,2.757998076529475-2.300689934792899,2.300678221858107-4.602164636266025,4.615318262863184-6.822726379128653,6.99441458806632-.48946014975445.529003020090386-.978920299507081,1.058017753113745-1.468380449261531,1.587020773204131-.470871721074218.437700687664801-.866206720944319.931646891723176-1.185981573733443,1.481862038050167h25.11379876445244c11.605410777721772,0,23.22218310290009.165878592920308,34.822428476054483-.221479897855716,13.557230927874116-.452704958075628,27.229810844810345-1.905460351346846,39.887500037235441-7.078384622850535,17.128294136868135-6.999954806572532,30.465111044020887-20.044170871350616,43.34681012837973-32.920692838208197,6.056571553448521-6.054123549920405,12.110706816303718-12.110683390434133,18.166060224459216-18.166036798585992.186423081826433-.186423081830071.372846163654685-.372846163659233.559269245484757-.559280958424097.743701128280009-.74370112827728,9.822795694173692-9.717566681406424,9.477076689190653-10.063297399322437-.332741072419594-.332729359482073-9.948873732168067,9.3626881608443-10.063285686388554,9.477088402125446-3.691191075744428,3.691191075744428-7.382382151487036,7.382382151488855-11.073573227233283,11.07356151429758-1.686639289850064,1.68662757691618-3.373255153830542,3.373266866767153-5.05987101781102,5.059894443683334-.101012355975399.090857240872538-.201415639299739.182405544941503-.302709105728354.272969962427851-.320934433408183.286943494513253-.643274419080626.572317455664233-.966996531145924.856133596390464-.00566906079257.004849155308875-.01019025390633.008702711096703-.016046721668317.013750986308878-.56381386447174.483416275023046-1.131891237475429.961854552446312-1.704419525978665,1.434940018334601-1.144025838681046.945327600420569-2.30571478413367,1.869384509925112-3.486191278170736,2.768797403084136-2.159513922901169,1.645316053317401-4.384339174292109,3.20259768322012-6.671477242682158,4.665215368204372-7.398569428389237,4.644506898192958-15.442357623149292,8.099530054928437-23.924139328964884,10.205492436606619-8.732813340007851,2.168275198671836-17.736593730467575,2.985978653603524-26.707167948714414,3.3486931280313-9.859363478879459.398649760622902-19.734024051558663.292413435401613-29.59896288775235.292249454307239-5.224273780850126-.000093703486527-10.448535848765459,0-15.672797916682612,0-5.330896632942313,0-10.66538913709519-.057065421882726-15.996145214810895-.002576845816293,3.064912126112176-3.064923839049698,6.129835965162783-6.129824252227081,9.194748091273141-9.194748091275869.919336596489302-.919324883550871,1.838661480043811-1.838649767104471,2.757986363594682-2.757986363591044,2.300689934792899-2.300689934793809,4.602164636267844-4.615318262865912,6.822726379128653-6.994414588067229.48946014975445-.529014733025178.9789202995089-1.058017753113745,1.46838044926335-1.587032486139833.470871721072399-.437688974730918.8662067209425-.931646891726814,1.185981573733443-1.481850325117193h-53.379478201299207c-5.867477922320177,0-11.602611386131684.970404995380704-17.004675815327573,3.326930493827604-3.857807583601243,1.682867724611242-7.453842771134077,3.980125769293409-10.646191635765717,6.71868037285094-2.117663604269183,1.816629448318054-4.1396442382229,3.736414719810455-6.151692302853917,5.668545425346565-4.506259120182222,4.327238613605005-8.934802913148815,8.756051804089111-13.210902850249113,13.311423262929566-2.129517095017945,2.268584778516924-4.248223150545527,4.568478233697533-6.043499917399458,7.116709347893448-4.85071312812579,6.885144612545446-7.565912138245039,15.052457425363173-7.565900425310247,23.492470803095785,0,8.478736342578486,2.722203345565504,16.839406295055596,7.735866832725151,23.679163282439731,4.840101208541455,6.602991708666195,11.688713175179146,11.652356223308743,19.441997143032495,14.289148843015937,4.485597501912707,1.525492722887066,9.130455788170366,2.125979788488621,13.851249035444198,2.125979788488621h112.861676922020706c1.943995909223304,0,3.911851068114629-.080409302385306,5.831566061993726.276179306765698,6.946977199186222,1.290378968074947,12.177084021930568,7.321252340980209,12.794027761945472,14.313898275782776.291745798078409,3.306655402428078-.494332730932001,6.600520279269404-2.201211973369936,9.439290759180949-.14198420444518.215927966419258-.288653583100313.428646588505217-.440242394675806.637991885158044-1.234965070103499,1.322612966645465-2.087678489320751,2.314850873841351-1.977190368503216,2.425338994660706.332741072415956.332729359482983,9.948897158041291-9.362676447912236,10.063285686384916-9.477088402125446,3.006991659938649-3.006979947003856,6.04471806269612-6.01504919701074,8.873391992186953-9.193377677818717.723859415496918-.813311104106106,1.456995475931762-1.626411375380485,2.093663799376372-2.511522774258992.812596615038274-1.129618927983756,1.524907076107411-2.345948717664214,2.051637786706124-3.635507780252738.93127207778889-2.280098594141236,1.293389192504037-4.773524883014034,1.077051273345205-7.225510805992599-.423375767517427-4.798965378971843-3.040514081412766-9.329751386143471-7.064680488285376-12.000710638782948ZM239.667262147825568,52.919614114443903c-.712544719777725.880801038609206-.29947633552365.356904858408598,0,0h0ZM239.746734415369247,52.821330872447106c-.007273732961039.007824240930859-.014160939048452.015226816183713-.021364394397096.022969066564656.054219178546191-.066260076270737.109258262586081-.131758811728105.163055775454268-.19840541486974-.05140807402131.063694943387418-.097697595221689.120994623978731-.141691381057171.175436348305084ZM225.685085919073572,66.884712883202155c-.008456739449684.007871092674577-.016550377898966.015402510214699-.025100820832449.023355593439192-.054418298452219.04398207289978-.111706266110559.090248168225116-.175377783627482.141632816377751.067384518079052-.054383159646932.133527464993676-.110125019815314.200478604459931-.164988409816942ZM225.758608015369646,66.828315098646272c.35685800666397-.299441196719272.88015682715195-.712029350616831,0,0h0ZM382.424766308499784,160.945933566812528c1.904991833924214-2.080264201131286,3.890146998586715-4.087111722388727,5.958651412451218-6.017602616955628-.415715507682762.415727220619374-3.435919358893443,3.403088000617572-5.958651412451218,6.017602616955628Z"/>
      <path d="M584.615755091040228,120.718711547582643c-2.660991544502394-1.665520867096348-5.692158703366658-2.360179934327789-8.806628259690115-2.360179934327789h-113.186687456987784c-3.3774718106215,0-6.809666456018022.13013071369096-10.171981728068204-.22583710987783-12.003884844307322-1.27086521748879-22.995818910927483-8.111020444680435-29.503338482118124-18.267997902337811-6.637017786368233-10.359142724833873-8.121116995107514-23.539966756651665-3.972465509463291-35.122595874773651.402924982088734-1.124957179646117.859916874565897-2.228186863890187,1.362401808624782-3.310052153732613,5.312565888845711-2.449057689102119,11.107236203934008-3.715764814477552,17.003340540679346-3.721785263341189,3.112337802056572-.003174205524374,6.224675604111326,0,9.337036832041122,0h44.29494883332336c-3.065790596276202,3.065767170405707-6.131534340813232,6.131546053750753-9.197324937091253,9.19731322415646-.919324883554509.919336596489302-1.83864976710538,1.838661480040173-2.75797465065807,2.757998076529475-2.300701647727692,2.300678221858107-4.602176349202637,4.615318262863184-6.822738092061627,6.99441458806632-.48946014975445.529003020090386-.978920299510719,1.058017753113745-1.468380449265169,1.587020773204131-.470860008139425.437700687664801-.866195008005889.931646891723176-1.185981573735262,1.481862038050167h25.113822190327483c11.605387351848549,0,23.222159677026866.165878592920308,34.822416763116053-.221479897855716,13.557207502006349-.452704958075628,27.229810844813983-1.905460351346846,39.88751175017569-7.078384622850535,17.128247285125326-6.999954806572532,30.465064192272621-20.044170871350616,43.346810128374273-32.920692838208197,6.05657155345034-6.054123549920405,12.110659964566366-12.110683390434133,18.166013372716407-18.166036798585992.186423081828252-.186423081830071.372893015401132-.372846163659233.559269245490214-.559280958424097.743724554147775-.74370112827728,9.822842545912863-9.717566681406424,9.477123540928005-10.063297399322437-.332741072415956-.332729359482073-9.948920583910876,9.3626881608443-10.063332538127725,9.477088402125446-3.691167649871204,3.691191075744428-7.382335299746046,7.382382151488855-11.073549801361878,11.07356151429758-1.686615863978659,1.68662757691618-3.373231727960956,3.373243440894839-5.059847591939615,5.059871017811929-.101012355975399.09086895380824-.201462491046186.182428970812907-.302755957472982.272993388299255-.321028136891982.287048910931844-.643508677789214.572516575567533-.967301067466906.856438132715994h0c-.005575357306952.004743738886646-.009979421065509.008515304127286-.015742185345516.013446449983348-.563813864473559.483416275023046-1.131844385734439.961854552446312-1.704372674239494,1.434940018334601-1.144025838681046.945327600420569-2.305714784131851,1.869384509925112-3.486238129909907,2.768797403084136-2.159490497029765,1.645327766253104-4.384339174293927,3.202621109090614-6.671500668553563,4.665238794075776-7.398546002516014,4.644495185257256-15.442334197276068,8.099518341992734-23.924092477223894,10.205469010735214-8.732813340006032,2.168275198671836-17.73657030459799,2.985978653603524-26.707179661647388,3.3486931280313-9.859340053009873.398649760622902-19.734000625689077.292413435401613-29.59896288775235.292249454307239-5.224250354980541-.000093703486527-10.448524135832486,0-15.67279791668625,0-5.33088492000752,0-10.66537742415494-.057065421882726-15.99612178893949-.002576845816293,3.064900413177384-3.064923839049698,6.129824252227991-6.129824252227081,9.194748091276779-9.194748091275869.91932488355269-.919324883550871,1.838649767103561-1.838649767104471,2.75797465065807-2.757986363591044,2.300701647729511-2.300689934793809,4.602152923329413-4.615318262865912,6.822738092065265-6.994414588067229.489460149752631-.529014733025178.978920299505262-1.058017753113745,1.468380449261531-1.587032486139833.470860008139425-.437688974730918.866195008005889-.931646891726814,1.185981573733443-1.481850325117193h-53.593215848775799c-6.221302278683652,0-12.307718391850358,1.176013865600908-17.9491835102599,3.854340554684313-4.249944952072838,2.0176819866183-8.015114928595722,4.781302272200264-11.479988664110351,7.943642596018435-4.273581655959788,3.900466094781223-8.382901104107077,7.991021420217294-12.435061426886023,12.119210407495302-2.45428165834528,2.500301782021779-4.925148833392086,5.000919813307519-7.252883936314902,7.621876544183579-1.65072742952907,1.858678886856978-3.218574127276952,3.769597466156483-4.573995026328703,5.856163226603712-4.714175438699385,7.257053741362142-7.120199802677234,15.727778436039443-6.661099581806411,24.394788504263488.445888029598791,8.417126301714234,3.593106953647293,16.577341075600089,8.909397555993564,23.117364042877853,5.284993638619198,6.501510835266345,12.583722004577794,11.266860089278453,20.67733702706937,13.446063456801312,3.861052066738921,1.039593305533344,7.794677481999315,1.375602286960202,11.775435749814278,1.375602286960202h115.222583058348391c1.90702988470548,0,3.85261875316246-.086441464178279,5.737839151917797.235980512037713,6.976224399195416,1.193126464409943,12.291343707986016,7.152679772892952,12.999882603815422,14.147972831122388.341760032773891,3.374250753355227-.438508880217341,6.746639149956536-2.182400998915909,9.646504301575987-.141773371607997.215564865411579-.288208491550904.427932099437385-.439539618546405.636926008022783-1.23491821836069,1.322601253708854-2.08766677638414,2.314839160906558-1.97716694263363,2.425315568789301.33271764654819.332729359482983,9.94889715804311-9.362676447912236,10.06330911225632-9.477088402125446,3.03561807436563-3.03561807436563,6.096161275527265-6.075277111482137,8.953649026412677-9.281939183330906.722360159750679-.810581990130231,1.451841784300996-1.628297157994893,2.08049845984533-2.516325077824149.803882191006778-1.135557386294749,1.506705174300805-2.349977967483937,2.024791738478598-3.642769800277165.92836726978021-2.316783508209483,1.26860462093282-4.84956526044698,1.017245024548174-7.331020929208535-.493255140863766-4.869711509551053-3.241016111740464-9.420186961340733-7.400654330907855-12.023773408833222ZM425.755061197788564,52.919895224896209c-.71202935061774.880156827154678-.299452909655884.356858006664879,0,0h0ZM425.834826288718432,52.821272307771324c-.007308871769055.007835953863832-.014196077858287.015238529116687-.021411246141724.023004205369034.054207465613217-.066248363335035.109258262584262-.1317353858567.163044062519475-.198381988998335-.051396361088337.063671517518742-.097662456413673.120959485174353-.141632816377751.175377783629301ZM411.773119227743337,66.884712883202155c-.008456739449684.007871092674577-.016538664964173.015402510214699-.025112533767242.023355593439192-.054394872582634.04398207289978-.111694553177585.090248168225116-.175366070692689.141632816377751.067372805144259-.054383159646932.133527464991857-.110125019815314.200478604459931-.164988409816942ZM411.846629611102799,66.828315098646272c.356869719604219-.299441196719272.880156827153769-.712029350616831,0,0h0ZM571.395271059530387,160.946003844423103c1.905015259797437-2.080287626999052,3.890193850331343-4.087158574131536,5.958745115936836-6.017672894566203-.415762359425571.415738933554167-3.435989636504019,3.403134852358562-5.958745115936836,6.017672894566203Z"/>
      <path d="M532.716768514338582,46.929197220846618c.60040507505073.600393362117757,1.200810150108737,1.200786724239151,1.80119179929352,1.801180086356908.430590935800865.430590935803593,19.987023458917974-19.093748143973244,19.540385801446973-19.540385801446064-4.129559400735161-4.129535974862847-8.259071949729332-8.259083662663215-12.388631350464493-12.388619637526062-.600405075052549-.600405075055278-1.200786724235513-1.200798437176672-1.801168373420296-1.801191799294429-.430614361672269-.430590935801774-19.987046884791198,19.093759856910765-19.540409227322016,19.540385801446973,4.129559400738799,4.129547687800368,8.259095375600737,8.259083662664125,12.388631350466312,12.388631350462674Z"/>
      <path d="M566.999031542744888,46.929197220846618c.600405075056187.600393362117757,1.200810150110556,1.200786724239151,1.80119179929352,1.801180086356908.430590935802684.430590935803593,19.987023458921612-19.093748143973244,19.540385801448792-19.540385801446064-4.129559400735161-4.129535974862847-8.259071949729332-8.259083662663215-12.388631350462674-12.388619637526062-.600405075054368-.600405075055278-1.200786724237332-1.200798437176672-1.801168373422115-1.801191799294429-.430614361672269-.430590935801774-19.987023458917974,19.093759856910765-19.540409227318378,19.540385801446973,4.129559400735161,4.129547687800368,8.259095375597099,8.259083662664125,12.388631350460855,12.388631350462674Z"/>
      <path d="M764.36054274927028,52.72078703389343c-5.388559414539486-7.206043907147432-13.035513353686838-12.621297101748496-21.638242831741081-15.26928728781786-3.879183690933132-1.19405178631132-7.620670111828076-1.884154521625533-11.572005485601039-1.884154521625533h-80.87828832339801c-2.579188402789441,0-5.178851016880799-.069902799217743-7.751761286230249.130130713692779-9.074526521038933.705505245528911-17.738538077765043,4.39243281274139-24.676109789721522,10.264021975430296-1.933665100094004,1.636519638735081-3.780092256387434,3.367480676616651-5.611901669146391,5.116327367046324-4.856276772499768,4.636202426903765-9.618943764276992,9.38833948964384-14.222314832904885,14.276393456225378-2.189709870686784,2.325169970044954-4.361241265436547,4.690503596004419-6.216008031824458,7.29715883260269-2.627820511095706,3.693170561848092-4.726075781198233,7.755029195243878-6.114246047978668,12.073143432075085-2.834530397254639,8.817228466339657-2.707796434864576,18.518736713139333.368535803385384,27.255567590032115,2.942523662804888,8.356851535497299,8.51942708059687,15.689781673195284,15.76668880786201,20.782601178637378,7.167332655229984,5.036655979602074,15.777558412022699,7.717208126432524,24.529557540421592,7.738771640737468,1.992698295141963.004907719987386,3.985443442026735,0,5.978141737166879,0h81.666381477318282c.089486827419023-.049323171499054.176584215987532-.101820548525211.261479572678581-.157257872369883,8.687015762099691-.762851777864853,16.961642490206941-4.181108029984898,23.723473317535536-9.68767526994634,5.62398941860738-4.579921771703084,10.712791387168181-9.900311901476925,15.782524696691326-15.060890738939634,3.510647887549567-3.573581490130891,7.146483629994691-7.15081741614631,10.180227634677067-11.158082057050706,2.62144867416464-3.462636564832792,4.76786753514898-7.306798578544658,6.273026601962556-11.382408198245685,1.748085349619942-4.733361227092246,2.61568590989009-9.748535682937472,2.631521798721224-14.790977852683682-.028766969648132-9.178900489509033-2.977990431574653-18.18461351433325-8.480680689874134-25.543382387800193ZM756.922032210740326,111.431197006941147c-.147020766718924.122247908087047-.20966154591224.172964918913749,0,0h0ZM613.112343338842948,50.990411642786967c-.019490324715662.015203390313218-.139290229273684.148625438889212-.263962715009256.290269968202665-.130388398272771.141949065638073-.279611196874612.305098544577049-.41304495838267.451240841132858.209474138942824-.282188042688176.432628986582131-.550976487133994.677007673391927-.741510809335523ZM733.529379044194684,120.827700412647573c-.075993525690137.041885457440912-.149503909051418.087073962699833-.222217812792223.133375196832276h-84.366119412541593c-3.207423412659409,0-6.389031515414899-.005891606566365-9.575512199353398-.493407409022439-8.551707930902921-1.308358324110486-16.596761122704265-5.270949828923222-22.871099573445463-11.223522227838657-6.249366472204201-5.928853704474022-10.628505103124553-13.718775734645533-12.401375024315712-22.151714499320406-1.832043671467545-8.714260050133817-.885029408333139-17.945903888313296,2.719649925616977-26.090903558956597.226856135264825-.512628336223315.46486298515083-1.019915573847356.712052776487326-1.52249421139004,5.848034449347324-2.857885990692921,12.289539915915157-4.35622812902966,18.837961057963184-4.371302677051972,1.918578839133261-.004415776694259,3.837157678266522,0,5.755736517401601,0h81.473867669015817c.120127866752227,0,.276237871441481-.026951464645208.394444816769465,0,.022254577497733.005071701081761-.016913478901188.062839899093888.002202031877459.066681741948742.073088717683277.014688021147776.364553405306651.096491162858001.535609115726402.112069367109143.57702605574741.052532515833263,1.15292766967832.116953661226034,1.727330027868447.192876909305596,1.093519660691527.144514198517754,2.181510815815273.331230103736743,3.260506436457945.560253132071921,8.384400359853316,1.779569720313702,16.129321291737142,6.136711458315403,22.034374311222564,12.345129507917591,5.95846400548362,6.264558149583536,9.930648404493695,14.300978907897843,11.251117903935665,22.847673702399334.336067546106278,2.175267821182388.496019393647657,4.371572074568576.502953451477879,6.572151549423324-.020521063039268,6.531472524344281-1.513779787357635,12.953850767197764-4.360444785819709,18.787899971526713-4.815937422546995,2.354182911334647-10.039157039203928,3.796947170607382-15.411037233552634,4.235233505045471ZM743.510486774935089,124.898882542725005c.830634535746867-1.029613884464197.306363541614701-.359388000742001,0,0h0ZM743.437538612480239,124.989341543790943c.005387950341174-.005821328958518.011478676813567-.012427424595444.017054034124158-.018436160519741-.035747879222981.0438883694178-.072292238066439.087015398022231-.107805858580832.131102887340603.031906036372675-.039648286752708.061750596092679-.076672875949953.090751824456675-.112666726820862ZM757.228348900612218,111.181254675756463c.010682197198548-.009557755387505.021411246141724-.019220927196329.032093443340273-.028755256716067.080210182481096-.065978965814793.170868303452153-.140508374569436.276144167955863-.226996690490523-.103214387852859.08480165320816-.205538592608718.170423211901834-.308237611296136.255751947206591Z"/>
      <path d="M710.36742385576963,62.999169068274568c-2.028961543528567-.624486870495275-3.985771404217303-.985432691659298-6.052401748398552-.985432691659298h-42.300985541149203c-1.348955358638705,0-2.708639766220585-.036544358839819-4.054315502913596.068075581277299-4.716564877549899.366661733700312-9.230214860046544,2.269592090970946-12.836346598000091,5.323950862175479-2.724053989377353,2.307260891622718-5.238352729356848,4.899942596142864-7.683545149733618,7.494966887763439-1.013824847372234,1.075997109147465-2.003380492340511,2.178699711291301-2.861563852446125,3.384757256517332-1.35823200358027,1.908833676776339-2.436196885893878,4.01322652509225-3.153590760979569,6.244681297993338-1.482482823637838,4.611616975234938-1.416234460302803,9.685707496775649.192748067011053,14.255251607602986,1.538986024615951,4.370752169080333,4.455834932745347,8.206035777667239,8.246281424135304,10.869697871469725,3.748701589176562,2.634239199765943,8.251997336668865,4.036230730467651,12.829459391912678,4.047522000310892,1.042217003088808.002576845816293,2.084480857922244,0,3.126697861011053,0h42.713140316427598c.040807867373587,0,.104432533151339-.032889922954382.180800872778491-.0862540572125,4.498188907606163-.403908868670442,8.790698667375182-2.165534371761169,12.294084534898502-5.018524355402405,2.226722746949235-1.813349826368722,4.248937639613359-3.902047341079196,6.256769047457055-5.946282552536104,1.472503402566872-1.499162043824981,2.971103225481784-3.00760073258607,4.242612654426921-4.68709513176691,1.354952381630937-1.789783400088709,2.458685722103837-3.777093744889498,3.236612047987364-5.883501218114361.914264895405722-2.475599201001387,1.368070869417352-5.098640834403341,1.376316776029853-7.735925397400933-.015086260957105-4.800757458107-1.557539314484529-9.510950498733109-4.435548128412847-13.359680557297906-2.818319694488309-3.768941541766253-6.817865510882257-6.601223055398805-11.317225712042273-7.986207403720073ZM671.864381084752495,105.107828208088904h-22.979655059903962c.061422633896655-2.406773991853697.578525311493649-4.605245138313876,1.550417849688529-6.595366587638637.940876684917384-2.236842723242262,3.162445740232215-4.605245138311147,6.664894572915728-7.104551320815517,3.039085103277102-2.17527953411809,5.006155495491839-3.73342792125095,5.90107062140487-4.674585716625188,1.37299030234135-1.465569344733922,2.059649434610037-3.069913549580633,2.059649434610037-4.8135479836983,0-1.419232971797101-.39346093018321-2.59942835538277-1.180242235328478-3.540679854239897-.78682815688444-.940829833179123-1.913190888792087-1.411596137832021-3.378713381785929-1.411596137832021-2.005723079444579,0-3.371076547822668.748456580102356-4.096060405130629,2.244713815916839-.416605690783399.864227234837017-.663467519925689,2.237170685433739-.740538635689518,4.119252017469989h-6.41025535458175c.107759006836204-2.854067573710381.624814832688571-5.160625689202789,1.550511553166871-6.919393236022188,1.758767546820309-3.347603825029182,4.882888562016888-5.021757125609838,9.372409897332545-5.021757125609838,3.54826983645944,0,6.37150896386629.983511770234145,8.469811085709807,2.950582162444334,2.097974159645673,1.967070392212918,3.14726577579313,4.570434293926155,3.14726577579313,7.810279112119133,0,2.484219921549084-.740538635684061,4.690281050227895-2.22152220357566,6.618558199977087-.97203309341603,1.280692370396537-2.568787316040471,2.70751532441227-4.790403223101748,4.281218489924868l-2.63812789435724,1.874491349813979c-1.650961688239477,1.172605401363398-2.781025707770823,2.021324709567125-3.390238910342305,2.54554885196103-.609634868253124.524739511557527-1.122380333828914,1.134046417611899-1.538986024614132,1.828201828617239h14.648712537789834v5.808632134237087ZM698.431099223572346,105.107828208088904l-10.529460520314387-14.903258052637284-3.401858142386118,3.49434348129671v11.408914571340574h-7.011925426677408v-34.110879355795078h7.011925426677408v14.046995613955005l13.167635266416255-14.046995613955005h9.210396573136677l-13.977561332154437,14.046995613955005,14.694955207243765,20.063883741840073h-9.164107051941755Z"/>
    </g>
  </g>
</svg>