<?xml version="1.0" encoding="UTF-8"?>
<svg id="Layer_2" data-name="Layer 2" xmlns="http://www.w3.org/2000/svg" xmlns:xlink="http://www.w3.org/1999/xlink" viewBox="0 0 450.63 48.88">
  <defs>
    <style>
      .cls-1 {
        fill: #0063b2;
      }

      .cls-2 {
        fill: url(#linear-gradient);
      }
    </style>
    <linearGradient id="linear-gradient" x1="207.91" y1="48.88" x2="207.91" y2="16.29" gradientUnits="userSpaceOnUse">
      <stop offset="0" stop-color="#262626"/>
      <stop offset="1" stop-color="#000"/>
    </linearGradient>
  </defs>
  <g id="Layer_1-2" data-name="Layer 1">
    <path class="cls-1" d="M450.42,10.75c-.61-1.52-2.33-2.26-3.85-1.65l-9.27,3.71V2.96c0-1.64-1.33-2.96-2.96-2.96-1.64,0-2.96,1.33-2.96,2.96v9.84s-9.27-3.71-9.27-3.71c-1.52-.61-3.24.13-3.85,1.65-.61,1.52.13,3.24,1.65,3.85l9.61,3.85-7.49,9.32c-1.02,1.28-.82,3.14.45,4.16.55.44,1.2.65,1.85.65.87,0,1.73-.38,2.31-1.11l7.69-9.57,7.69,9.57c.59.73,1.44,1.11,2.31,1.11.65,0,1.31-.21,1.85-.65,1.28-1.02,1.48-2.89.45-4.16l-7.49-9.32,9.61-3.85c1.52-.61,2.26-2.33,1.65-3.85Z"/>
    <path class="cls-2" d="M0,25.92v13.33c0,5.31,4.32,9.63,9.63,9.63h39.99c1.64,0,2.96-1.33,2.96-2.96s-1.33-2.96-2.96-2.96H9.63c-2.04,0-3.7-1.66-3.7-3.7v-13.33c0-2.04,1.66-3.7,3.7-3.7h63.3c5.67,0,11,2.21,15,6.21l4.15,4.15-4.15,4.15c-4.01,4.01-9.34,6.21-15,6.21h-13.31c-1.64,0-2.96,1.33-2.96,2.96s1.33,2.96,2.96,2.96h13.31c7.25,0,14.07-2.82,19.19-7.95l4.15-4.15,4.15,4.15c5.13,5.13,11.94,7.95,19.19,7.95h16.64c1.64,0,2.96-1.33,2.96-2.96s-1.33-2.96-2.96-2.96h-16.64c-5.67,0-11-2.21-15-6.21l-4.15-4.15,4.15-4.15c4.01-4.01,9.34-6.21,15-6.21h40.34v23.7c0,1.64,1.33,2.96,2.96,2.96s2.96-1.33,2.96-2.96v-23.7h20.5c.13,0,.23.1.23.23v16.8c0,5.31,4.32,9.63,9.63,9.63h38.17c2.64,0,4.78-2.14,4.78-4.78v-8.55h47.4v6.77c0,3.62,2.94,6.56,6.56,6.56h49.72c5.31,0,9.63-4.32,9.63-9.63s-4.32-9.63-9.63-9.63h-36.66c-2.04,0-3.7-1.66-3.7-3.7s1.66-3.7,3.7-3.7h99.98c2.04,0,3.7,1.66,3.7,3.7s-1.66,3.7-3.7,3.7h-39.99c-5.31,0-9.63,4.32-9.63,9.63s4.32,9.63,9.63,9.63h46.66c1.64,0,2.96-1.33,2.96-2.96s-1.33-2.96-2.96-2.96h-46.66c-2.04,0-3.7-1.66-3.7-3.7s1.66-3.7,3.7-3.7h39.99c5.31,0,9.63-4.32,9.63-9.63s-4.32-9.63-9.63-9.63h-99.98c-5.31,0-9.63,4.32-9.63,9.63s4.32,9.63,9.63,9.63h36.66c2.04,0,3.7,1.66,3.7,3.7s-1.66,3.7-3.7,3.7h-49.72c-.35,0-.64-.29-.64-.64v-16.39c0-5.31-4.32-9.63-9.63-9.63h-39.99c-5.31,0-9.63,4.32-9.63,9.63v17.03h-37.03c-2.04,0-3.7-1.66-3.7-3.7v-16.8c0-3.4-2.76-6.16-6.16-6.16h-66.77c-7.25,0-14.07,2.82-19.19,7.95l-4.15,4.15-4.15-4.15c-5.13-5.13-11.94-7.95-19.19-7.95H9.63c-5.31,0-9.63,4.32-9.63,9.63ZM239.2,29.62v-3.7c0-2.04,1.66-3.7,3.7-3.7h39.99c2.04,0,3.7,1.66,3.7,3.7v3.7h-47.4Z"/>
  </g>
</svg>
