<?xml version="1.0" encoding="UTF-8"?>
<svg id="Layer_2" data-name="Layer 2" xmlns="http://www.w3.org/2000/svg" viewBox="0 0 601.117207553665139 165.000000000005457">
  <g id="Layer_1-2" data-name="Layer 1">
    <g>
      <path d="M63.989688654430211,95.423574182646007c-1.710028234629135,0-3.370307279115877-.071942137416045-4.980035721477179-.209476763449857,2.764069936049054-4.338844486452217,5.106597168020016-8.845060783605732,6.976784505486648-13.54121172118721,3.637300764254178-9.133569098181397,7.274663175583555-18.26732313759203,10.912025586911113-27.401015529925644h28.514731600685991c-11.803997126147806,8.39454395392022-20.067541044063546,17.540134231872798-24.607231703357684,28.939726541006166.017507769516669-.044077659169488,7.097982656439854-3.566838156655649,7.820116501947268-4.006135218551208,1.77050401595443-1.076851119451021,6.302612084926295-3.293433375638415,6.980791565410982-4.99631054947713,3.537062619059725-8.88180244076284,9.618176760764982-18.436729301794912,20.172464367013163-25.157678442861652.445893299005547-.2839464309709,4.955993361931178-3.781986451071134,5.028367028879074-3.781986451071134h-40.324153669496809c-2.576231296196056,0-13.994872551740627,6.978510623610418-14.800908067361888,9.002384120954957-4.712672353885864,11.83389595789231-8.799688535838868,25.917170416276349-15.321086092655605,39.438531779067489-15.01747424451969-4.08837241762194-23.465281271895947-15.12406203851242-21.800810226257454-28.900703942048494,2.431422315226882-.28043254764998,4.862906277525326-.56086509529996,7.294328592750389-.841297642957215,3.541747796818527-.408473524013971,7.41034838934138-.601860400684018,10.99648208070721-1.413320858973748,2.000570902710024-.452736124414514,4.149279728477268-.750306559128148,5.366193004065281-2.44430655405813.472154953280551-.657342768878152-.100114851040416-2.779420057917378.108005676740504-4.32842613064895,1.419238978249268-.207873939476485,2.857773491214175-.465990245702415,4.30253435882878-.753080677535763,6.058243076597137-1.204152330910802,7.723022357615264-4.260121170704224,11.496378218080281-8.36205594499188,13.543369368837375-14.722554634061453,35.378825251676972-30.497363204343856,57.576396057553211-33.057566260840758.771019976587922-.088956730327482,8.198321311760083-.845736232413401,8.365693122459561-1.640490333171329.161638632653194-.767382799114785-7.793176729834158.223224061344808-8.074040807019628.255712070271329-15.687639605152071,1.809280026611304-31.667301408200728,5.772200645051271-46.430789700567402,13.916334177214594-7.379648145612009,4.07086464810709-14.199910725734298,8.948319635508597-20.039306683367613,14.347062295581054-4.331323543208782,4.004470747506275-7.809266616608511,9.123890507287797-12.351546453082847,13.147163612902659-1.598755262875784.210956293263735-3.233820653375005.48799825174865-4.906798995471036.812631752723973-1.765510602817812.342572800023845-4.179733383905841.526835909482543-5.612349777591589,1.922464057715843-2.663893437933439,2.595033654304643,1.447473338943382,3.978517328607268-1.655778807958995,6.345703390885319-2.078862688927984.239807124724393-4.157725377855968.479490955298388-6.236526419706934.719298080020963.390164342508797-2.329334757758261,1.050589465172379-4.727344357919719,2.028188792646688-7.182192561936972,3.543473914938659-8.897769033379518,10.523094185911759-17.130736001723562,19.399225095701695-23.708540632860604-14.552840234478936,7.157841967007698-26.614707078546417,18.46046342595946-31.679199293823331,31.177700332478707-.124896975499723.313598674418245-.227847592028411.623251935981898-.34288103540166.935062845195716-3.265568897395497.376663632921918-6.531199441862555.753265618764999-9.796768339254413,1.129929251686917-.77108162366676.088956730327482-8.198444605914119.8457978794886-8.365754769538398,1.640490333167691-.161576985579813.767382799114785,7.793238376912996-.223285708420008,8.074040807019628-.255650423194311,3.197633819901966-.368772807221831,6.395144345649896-.737607261522498,9.592716518473026-1.10638006874251-6.12845909589123,18.878738835021068,5.840628899150033,34.155623974356786,27.982470748534979,36.502158266252081-6.473559426020074,10.969110779067705-15.124185332664638,21.111041095529799-27.743156800413999,28.786348616502437-.694146073108641.422159174837361-7.462501815436553,4.428047805084134-6.980791565412801,4.996310549482587.465188833717548.548782268453579,7.567301844235772-3.852264117445884,7.820239796095848-4.006011924402628,14.404887252647313-8.76159064301828,26.119927648465818-18.536967446983908,34.828008629719989-29.496276341005796,15.283912905972102-.453352595171964,31.011746404525184-6.406672348819484,43.163309743831633-15.445674832777513-10.18304891599837,5.036011266274727-21.628876531951391,8.020777733559953-32.749577470325676,8.020777733559953Z"/>
      <path d="M427.200450113479747,77.182759287629779c1.598755262873965-.210956293263735,3.233820653375005-.48799825174865,4.906798995467398-.812631752723973,1.76557224989665-.342572800023845,4.179733383904022-.526835909480724,5.612411424674065-1.922464057715843,2.663831790854601-2.595033654302824-1.447473338950658-3.978517328607268,1.655778807953538-6.345703390885319,1.471515698498479-.169714399580698,2.943031396996957-.339428799157758,4.414547095489979-.509143198740276.088895083254101,3.940111200408865-.677994539253632,8.156586241469995-2.426613843314044,12.547584154017386-3.54341226786164,8.897769033381337-10.523094185911759,17.130736001723562-19.399225095699876,23.708540632862423,14.552901881555954-7.157841967009517,26.614768725623435-18.460463425961279,31.679199293821512-31.177700332478707.872984239902507-2.19217001418474,1.492783939638684-4.339337663061087,1.895216050224917-6.433488826778557,3.488238135059873-.402370463514671,6.97653791718767-.804679279950506,10.464837699319105-1.206988096391797.17871487263983-.020651770379118.723551728246093-.078353433296797,1.444021102706756-.162871574168094-.253431128470766.662027946631497-.49743025434509,1.298903886356129-.728730082611946,1.901010875344582-.435968119809331,1.128881251401253-.772314565178021,2.023503614895162-1.011998395748378,2.68238756066421-.274206193002101.752587500930531-.576030275944504,1.517504417019154-.905472248830847,2.294257571649723-.329441972882705.776753154630569-.682556422862035,1.517011240410284-1.056384290301139,2.223240140367125-.37481422064775.70622889995866-.730887730258473,1.33009730669437-1.068220528843085,1.870618866996665-.339305505005541.542001090119811-.678611010012901.953803556225466-1.015943808595694,1.235407398320604-.933090138771149.753573854142815-1.981583603375839,1.341440368631083-3.148439453445462,1.764585896678909-1.165869496855521.423638704651239-2.37217947541285.730394553656879-3.615970876036954.917801663979844l-.257438188391461.70622889995866h43.203257048928208l8.437265377418953-13.482955234589099-.700310780683139-.211572764026641c-1.912538878515988,2.023503614895162-3.684029247679064,3.753073972538914-5.31151204786147,5.187724719731705-1.629455506605154,1.436623453611901-3.211566059026154,2.648358374839518-4.747318010471645,3.636191116889677-1.536738304655955.98783274204834-3.037967893669702,1.753736011345609-4.505661473467626,2.293764395040853-1.467693579801562.541507913514579-2.98865023306098.906458602041312-4.563856312995995,1.094852065576561-1.433171217369818.188393463535249-2.782502411700989.305769495789718-4.046020876568946.352128096765227-1.264504818076603.048331307400076-2.296230278070652.071510607887831-3.096162733194433.071510607887831-1.882948282147481,0-3.57355768790876-.142034862563378-5.069855510861089-.423638704653058-1.497284176166431-.282590195305602-2.337657112988381-.752587500934169-2.521118810464031-1.412457799915501-.184448050691572-.658390769163816-.091730848740553-1.658059749759559.280124312273983-3.000486471606564.369882454584513-1.340947192025851.804864221179741-2.763761700667601,1.306918006202977-4.269923055744584.170639105719602-.469997305628567.369882454586332-1.047507111388768.593784633765608-1.729570357649209.224888532387922-.682063246258622.474435895082934-1.399635208153995.748642088079578-2.153209062298629.290974197609103-.799932455121962.581948395216386-1.599864910238466.873908946039592-2.400290541963841.290974197607284-.799932455118324.54742603278828-1.505668178469932.770341858753454-2.118193523267109.497122018961818-1.364126492515425.976489680107989-2.682387560662391,1.439089336643519-3.952810498014514.462599656533712-1.270916113959174.860100001065803-2.235076378914528,1.195460093224028-2.893960324685395h3.247074774661087c.469504129021516,0,.936049198409819.012329415152635,1.39864885494535.03550871564039.461613303325066.023672477094806,1.03764357926957.059181192735196,1.726118121403488.105539793708886,1.377935437485576.094689908375585,2.519146104039464.35311444997933,3.423631999656209.776753154630569s1.612687501992696.964653441562405,2.126577525565153,1.623044210724402c.556303211700651.800425631725375.931117432348401,2.00081749101264,1.12542901515917,3.600682401251106.19431158280895,1.599864910238466.204175114928148,3.153371219499604.033536009215823,4.658546221367942h.848263762516581l8.093028106355632-22.236839993140165h-.847277409307935c-.763437386267469,1.318261068145148-1.513065827562968,2.506323512277959-2.250858030309246,3.565173685607078-.737792202746277,1.05934334993799-1.548574543203358,1.988981252463418-2.427415255298911,2.788913707583561-.879827065309655.800425631725375-1.892811814273955,1.481995701376945-3.038954246883804,2.047176091984511-1.148115139034417.564687214002333-2.486596448032287,1.011998395748378-4.01741663341636,1.34144036863654-.663815711830466.140555332740405-1.466707226587459.246588303056342-2.409660897477806.316619381123019-.944926377320371.07151060788965-1.882948282154757.130691800623026-2.817024774134552.177050401596716-.936049198404362.047344954187793-1.755708717771995.070524254675547-2.461937617725198.070524254675547h-1.41245779991732c.051290367036927-.140555332742224.145980275410693-.399473050954839.283083371910834-.776753154634207.154857454317607-.423638704653058.36100527567578-1.02334145768873.620416170489989-1.800094612319299.258424541605564-.776259978025337.610552638370791-1.775435782014029,1.055397937090675-2.999993295001332.445831651930348-1.223571159771382.994244037929093-2.728746161636082,1.645237158001692-4.517497712015029,1.130360781215131-3.106026265317269,2.159127181568692-5.835758780165634,3.086299201067959-8.189197544548733.926185666285164-2.351959234563765,1.573233373510448-3.905465543828541,1.943115828096779-4.659039397973174.504026491447803-.093703555159664,1.299027180508347-.176064048382614,2.384015713962071-.246588303056342s2.121645759509192-.106526146921169,3.109971678160946-.106526146921169c3.106026265317269,0,5.688298974939244.141541685954508,7.751749894923705.423638704651239,2.060491860353068.282590195305602,3.422645646442106.612525344797177,4.087447711483037.988819095264262,2.74008922358189,1.64770304103331,5.153695533907012,4.847432861506604,7.235887164928499,9.600668991248313l.833468464334146-.35311444997933-.559262271332045-11.648338259838056h-38.968842708818556l-.256451835180997.706228899953203c1.203350918920478.188393463538887,2.164058947635567.388623165621539,2.888042205409874.599702753035672.722010551355197.212559117238925,1.300013533724268.69537901462536,1.733022593889473,1.446980162345426.178529931414232.282590195303783.234752064512577.74173761559905.168666399293215,1.377442260880343-.067072018433464.634718292072648-.210093234205488,1.353276607182124-.431036353746094,2.153209062300448-.219956766326504.800425631725375-.482326720779383,1.647703041031491-.782178097299038,2.540352698100833-.303796789365151.895608716706192-.608579931946224,1.765572249891193-.91632213415869,2.611863305986844l-5.010674318134988,13.766038606501752c-.462599656535531,1.270422937352123-.959721675502806,2.636028959683244-1.490379703680446,4.094845360576073-.513890023572458,1.411471446703217-1.02679369393627,2.787927354369458-1.537724657870058,4.12936772300236-.051845190717358.135561919607426-.098450379995484.257314894242882-.149494158729794.390719166196504-.930007784980262.09925179198035-1.615091737952753.18346169747565-1.69344517124955.19246217053842-3.504821198434001.404281522858582-7.009519102717604.808501398647422-10.514278654072768,1.212721274438081,2.610260482015292-17.886960680127231-11.72558204577399-31.357524852490315-35.339309476112248-31.357524852490315-1.668046576036431,0-3.343860683615276.082052257845135-5.021215968092292.213360529223792,6.463634246829315-10.925094766975235,15.092252147425825-21.024057071625066,27.660919601348724-28.673102938326338.697659956425923-.424378469560907,7.47341334785051-4.427677922627481,6.993737451326524-4.993474783994316-.467654716749166-.551741328090429-7.577288670510825,3.847640586760463-7.833124034932553,4.003361100141774-15.053352842611275,9.155946986686104-27.147830989759314,19.42653475026782-35.963486118223955,30.993992046704079-11.153497182682258,2.366939473975435-21.969599919702887,7.327802954889194-30.866444246950778,13.945739832353865,8.287339689164583-4.098482538047392,17.4111069023038-6.837647055486741,26.515331992417487-7.715748002676264-2.736945222712166,4.309623772540363-5.060361861198544,8.784030178596367-6.917233430296619,13.446830048191259l-4.81987661864332,12.102985443603757h-33.932399913015615l-5.592314477968102-6.597593342459732-10.847111216133271,6.597593342459732h-19.553404432188472c.005363295591451-.721455727671128.069168019010249-1.45702863569386.173906400732449-2.206842018213138,2.439066552618897-.282836783608218,4.854830510599641-.55161803394185,7.293897063222175-.834578111702285,3.547111092409978-.410199642135922,7.415095214168105-.608210049489571,10.996667021930989-1.414553800486829,1.995515842494569-.452674477339315,4.158280201540038-.749813382526554,5.362987356131271-2.447265613698619.470613776382379-.650746531769983-.094258378845552-2.772638879579972.120088503585066-4.328672718951566,1.423800861854033-.212189234782272,2.847046900033092-.466791657685462,4.299143769663715-.749751735445898,6.048071309094667-1.202364565711832,7.723145651763843-4.257963523048602,11.48922715729168-8.360206532719531,13.548486076124391-14.726006870301717,35.374140073914532-30.498719440009154,57.577813940293709-33.059169084810492.774040683298153-.084949670403148,8.198382958837101-.848818586198831,8.372844183246343-1.640983509771104.163179809551366-.763868915799321-7.791820494167041.226368062205438-8.085137280653726.254602422905009-15.683817486456974,1.81075955642882-31.65996540618471,5.771584174292002-46.430851347648058,13.919724766379659-7.367873554136168,4.074008648971358-14.187642957651406,8.94024386858473-20.040662919031092,14.344041588867185-4.326021894690712,4.003237805993194-7.792868494454524,9.124075448517033-12.335949742917364,13.141553729010411-1.600111498539263.212127587703435-3.246088421452441.495087665462052-4.90895664312302.820522578422242-1.77420284049731.339490446234777-4.191446328295569.523383673238641-5.612719660044604,1.923820293381141-2.66993485135572,2.588745652574289,1.448274750935525,3.975003445289985-1.660217397413362,6.337381035658836-2.087246691229666.240423595480024-4.156923965869282.480970485114085-6.244232304177785.721455727671128.377588339055364-2.319964402242476,1.053301936508433-4.72481682781472,2.033552088239958-7.186199621861306,3.543412267865278-8.897769033381337,10.52303253883656-17.130736001721743,19.399101801551296-23.708663927012822-11.644762729443755,5.727506515120695-21.683372546925966,14.112495172297713-27.829524353563102,23.748857820412013.719174785868745-8.706354863134038-2.645584256431903-16.255717408321289-9.18202369973551-21.54121439021219,3.636930881799344,6.577927925289259,4.059398292014521,14.810894893633304.515924377074043,23.70866392701646-.980188504654507,2.461382794044766-2.21991119827544,4.866235219613372-3.690132308182001,7.186199621859487-1.895770873908987-.24048524256068-3.773849037070249-.481032132191103-5.669619910979236-.721455727672947-1.226961748938265-2.36237759037067,3.995470274443505-3.748697030159747,3.387321872027314-6.337381035658836-.323523853610823-1.400436620140681-2.576662825726089-1.584329847144545-4.080419944848472-1.923943587531539-1.403703915153528-.325311618809792-2.824299129069914-.60821004949139-4.255497640018802-.820399284273662-1.343228133828234-4.017478280495197-.731504201019561-9.138315923017217-1.886523812539963-13.141677023157172-1.531498303214903-5.403736073209075-4.475516053422325-10.269847998672049-8.59841083347419-14.343918294716786-1.924005234606739-1.895585932679751-4.084796887225821-3.550686622806097-6.465360364945809-5.007715258496319-.403973287484405-.268781250335451-.819289636907342-.509266492890674-1.252360344153203-.749690088370699-1.36264696269609-.781438332393009-2.807531124464731-1.481379230617677-4.288108943097541-2.145010001224364,3.827851875441411-2.328225110395579,7.655642103807622-4.656388573715958,11.483493979245395-6.984675331186736.69420772018384-.422282468984122,7.462501815436553-4.428109452159333,6.980853212488-4.996372196554148-.465250480792747-.548720621378379-7.567363491310971,3.852325764519264-7.820178149020649,4.00607357147419-4.024136164673109,2.447635496149815-8.048149035199458,4.895209345228068-12.072223552797368,7.342783194302683-6.50382814022305-2.694285446283175-13.981926665826904-4.379038379851409-21.910480374041072-5.385057009250886-.270753956760018-.02835765484997-7.437103220221616-1.018471338706149-7.882318401392695-.254664069982027-.456496596034413.792164923574092,6.359450688783909,1.556033839371594,7.065864529969986,1.640921862697724,3.413028702620068.431344589125729,6.50444461097868,1.246812107336154,9.304947968805209,2.366261356142786-2.039655148741076.824837873728029-6.694009368955449,3.707948313076486-6.897876248509419,3.832043876591342-14.123776587159227,8.590458360697085-26.7816473597195,18.644048417589147-34.820302745249137,30.687975962608107-4.018218045403046,6.020206830851748-6.822296933622056,12.269617489395387-8.226000848777403,18.371814931015251-1.041157462586852,4.526313243850382-.324510206824925,9.331147976005013-1.560102546371127,13.969473956520233-1.417697801354734.891848245084475-2.817641244890183,1.841583094312227-4.21647504106113,2.838601250648935-1.476200876253642,1.052253936222769-3.726565729957656,2.316327224774795-4.012916396884975,3.857195883505483-.532569087528827,2.864986199074337,4.683883169507681,1.755523776544578,3.528616969682844,4.689986230008799-7.991187137191446,4.860502041568907-15.982189333159113,9.720942436064433-23.97337647034874,14.58150612470854-.694207720185659.42228246898776-7.462563462509934,4.428109452161152-6.980853212489819,4.996372196555967.465188833717548.548720621380198,7.567301844235772-3.852325764519264,7.820116501945449-4.00607357147419,8.336595702698105-5.070595275776213,16.67300646417425-10.141067257400209,25.009417225643119-15.211600886101223,3.188694993918034-1.939478650623641,6.877779301812552-3.90250648419169,9.781973041075616-6.110828032225982,1.62008515108937-1.231955162073064,3.514068259797568-2.439189846769295,3.34256609501972-4.060569586450583-.066578841824594-.629170055250142-2.366261356139148-1.660772221091975-3.422522352286251-2.712101451179478,1.241757047122519-.804371044576328,2.461691029424401-1.648751041320793,3.664117242207794-2.513967749673611,5.042175973849226-3.628176997039191,4.205316920346377-6.300269496050532,4.612187620394252-10.620434918542742,1.460419224857105-15.506027319954228,10.308192479797071-35.61172790391538,30.292879854032435-47.767113361918746.59193522149144-.360080569538695,5.587259417759924-3.319818324065636,6.750663031583827-4.537902894096987,2.8250388939814,1.201624800798527,5.341780762064445,2.720793688864433,7.56797996207024,4.487783821499761-2.591766359288158,1.576377374374715-5.183532718578135,3.152816395820992-7.775237430789275,4.729193770193888-3.188694993914396,1.939417003548442-6.877779301808914,3.90250648419169-9.78197304107016,6.110828032222344-1.620085151091189,1.231955162078521-3.514068259801206,2.439189846772933-3.342566095025177,4.060569586454221.066517194747576.629170055250142,2.366199709065768,1.660710574014956,3.422522352289889,2.712101451179478-1.241757047122519.80437104457269-2.461691029428039,1.648751041320793-3.664117242211432,2.513967749673611-5.042175973849226,3.628176997039191-4.205378567419757,6.300269496046894-4.612187620388795,10.620434918544561-1.124812544399902,11.942641399538843-6.638711941996007,26.610391783244268-18.240938189168446,38.276299459679649-1.205261978268027-.730949377340949-2.336177583167228-1.521018300334617-3.377519986979678-2.376371476568238.661534770028084,1.199220564847565,1.438904395417921,2.339999701867782,2.308806281529542,3.424988235321507-3.210456411659834,3.078223434144093-6.85570964868748,5.931681630052481-10.983289606494509,8.442197143480371-.694146073105003.422220821914379-7.462501815436553,4.428047805087772-6.980791565412801,4.996310549482587.465188833721186.548782268453579,7.567301844235772-3.852202470367047,7.820116501947268-4.00607357147419,4.028081577522244-2.449978085031034,7.930094885106882-5.023620204045073,11.646550494640906-7.72382376960195.58108533615632.602538518522124,1.188925503194696,1.187261032146125,1.839795329113258,1.741344949117774.668500889591087.622450523991574,1.394888383321813,1.188309032435427,2.173429303151352,1.711692705674068,5.101850343189653,3.649013708649363,11.861390553684032,6.011268004865997,19.943260539323092,6.690557132715185-1.072597471222252,2.693299093070891-2.145133295374762,5.3866598332188-3.217730766598834,8.079958926289692-.237834418299826.597113575855474-2.663955085006819,6.365677043437245-1.662683280441343,6.365677043437245.966811089214389,0,3.320804677279739-6.14818616014054,3.407418818726001-6.365677043437245,1.055644525387834-2.650824257871136,2.111289050781124-5.301648515738634,3.166933576170777-7.952472773607951.001294588591918.00006164707338.002527530104999.000246588300797.003822118696917.000308235375996,1.052500524523566.05659201555136,2.133913527586628.084888023327949,3.226607945511205.084888023327949,23.788435243050117,0,49.045057242512485-13.675232463900102,60.552408640080102-31.76704637678813-1.427191451020917,16.98771478594972,12.713784670277164,29.559402946590126,35.534792353360899,29.559402946590126,15.348580688449147,0,31.304261779021544-5.705683450303695,43.779533913169871-14.597657658565367,3.702831605787651-2.146674472267478,7.504606768181475-4.843055919127437,7.956911363067775-5.978841643011037,1.762859778556958-4.426629922341817,3.437934121231592-9.170618990719959,5.184457424711582-14.080068810442754,1.006080276476496-.104121910968388,1.749667304347895-.261568542469831,1.848795802176028-.510314493181795.095737908663068-.240485242553405-.551248151485197-.39651399131435-1.488591938485115-.500142725675687,3.007144355786295-8.439854554604608,6.261678426621074-17.337685235062963,10.563164785156914-25.962419369887357,19.006348281860483,1.044054875148504,31.259875884477879,11.18956072200308,32.297334522516394,25.178700095691966-1.737707771648275.200414643313707-3.475538837446948.400890933698975-5.213246609095222.601305577010862-3.541747796818527.40853517108917-7.410348389337742.601922047762855-10.99648208070721,1.413382506048947-2.000570902708205.452736124414514-4.149341375550648.750244912052949-5.3661930040671,2.444306554061768-.472154953276913.657342768872695.100114851044054,2.77935841083854-.108005676738685,4.328364483571931-1.41923897824563.207873939474666-2.857773491208718.465990245702415-4.302534358825142.753142324612782-6.058304723675974,1.204152330905345-7.723022357617083,4.260059523625387-11.496378218080281,8.36205594499188-13.543369368839194,14.722554634057815-35.378886898752171,30.497301557265018-57.576396057556849,33.057566260840758-.771019976580646.088895083252282-8.198382958831644.845674585334564-8.365693122455923,1.640428686092491-.161638632656832.767444446188165,7.79311508275714-.223224061344808,8.07404080701599-.255650423197949,15.687577958078691-1.809341673684685,31.667239761125529-5.772262292124651,46.430789700574678-13.916334177214594,7.379648145606552-4.070864648101633,14.199910725727023-8.948381282581977,20.039245036286957-14.347062295579235,4.331323543210601-4.004532394581474,7.80932826368371-9.123952154362996,12.351546453084666-13.147225259977859ZM241.169980638505876,97.437769089096946c-5.586889535299633,0-10.663587871578784-.749690088372517-15.111054505527136-2.150250002663597-1.240277517303184-.381841987285952-2.410708897765289-.806220456848678-3.540946384830022-1.287252589037962-.668254301286652-.280802430106633-1.312836125478498-.58231827767122-1.944102181309063-.894992245946924,8.493364216366899-6.399028111427469,15.879485304931222-13.517477597019024,21.219971478405569-21.51883650171294,4.018218045403046-6.020268477925129,6.822358580697255-12.269617489395387,8.226062495854421-18.371814931009794,1.041157462583215-4.526313243852201.324448559746088-9.33114797601047,1.560102546369308-13.969473956522052,1.417697801354734-.891848245084475,2.817579597814984-1.841583094314046,4.216475041059311-2.838601250650754,1.476200876255461-1.05225393622095,3.726504082886095-2.316388871848176,4.012916396886794-3.857195883503664.532507440451809-2.865047846153175-4.68394481658288-1.755523776546397-3.528678616758043-4.689986230008799,2.31546416571291-1.408327445835312,4.630928331425821-2.816654891674261,6.946330850059894-4.22498233751503,1.068097234696324.922425194663447,2.065978450093098,1.902243816864939,2.994075175729449,2.932058217509621.293501727712282.325311618807973.586880161279623.650684884692964.857017647276734.990175330927741,1.547464895837038,1.867228277827962,2.885637969457093,3.861881061262466,4.008169572050974,5.955477401299504.000308235379634.000554823682251.000493176605232.001048000289302.000801411984867.001602823969733-.920575782391097,1.811992497945539-1.835849916264124,4.198289153708174-1.889236283877835,4.332433190571464-4.096509831621006,10.286616003282688-8.193019663242012,20.573232006558101-12.289529494864837,30.859848009840789l-10.857776160237336,6.604127932490883,5.59780106771359,6.604066285415684c-2.040025031197729,5.122748701873206-4.080111709470657,10.245435756671213-6.120136740666567,15.36818445854442-1.448274750931887.098943556598897-2.914365506763716.155412278001677-4.358263315320073.155412278001677ZM247.338941863177752,97.126574650638759c-.001356235663479.000184941223779-.002712471332416.000184941223779-.004068706999533.000369882454834,2.019434907890172-5.070903511155848,4.038808168706964-10.141807022309877,6.058243076597137-15.212710533465724l10.857837807316173-6.604127932492702-5.597862714788789-6.604066285417503c4.096509831619187-10.286616003277231,8.193019663240193-20.573293653631481,12.289529494864837-30.859909656914169.098142144619487-.246341714753726.568386038547033-1.374791436623127,1.017053455962014-2.613342835807998,2.068444333121079,4.312028008494963,3.344538801447925,8.934387396389866,3.90312295494914,13.457926521830814.498848137087407,4.102366303821327-.259842424349699,7.157841967007698,4.830541562747385,8.360268179792911,1.226776807712668.282960077760436,2.447142319546401.537562500667264,3.70209184088344.749690088374336-1.025067575810681,1.556157133521992-3.279994313124917,3.678049481331982-3.327647502688706,4.328672718947928-.14733651107781,1.697575525326101,1.761195307512025,1.994652783436322,3.413768467527916,2.447327260773818,2.939394219527458.806343750997257,6.649623474409964,1.004292511277527,9.87012835942005,1.414615447565666,2.213561549471706.282898430681598,4.415286860399647.55167968101523,6.629033351098769.834578111698647-10.789471200288972,15.985025098641927-32.269038514739805,28.277760241449869-53.641771446889834,30.300709032659142ZM320.235992483860173,68.225439179058412h19.00838263535843l5.603349304532458,6.610600875448654,10.868502751418418-6.610600875448654h33.916186732085407l-8.912009507879702,22.378628267400927c-8.022380557527867,2.953079870341753-16.528320777355475,4.625996565360765-24.852402123673528,4.625996565360765-21.677454427650446,0-35.517222936767212-11.316738639303367-35.632009791841483-27.004624832761692Z"/>
      <path d="M552.916407013744902,116.940314683780343c-3.035317069414305.350093743265461-6.070449197595735.700125839455723-9.10570461993666,1.050219582721184,2.260536621204665-15.490800492238122-10.154814555293342-27.156769815746884-30.605183939858762-27.156769815746884-13.736694598434042,0-28.044980883356402,5.267865918225652-38.997262010741906,13.414773568794772,8.818922423479307-4.361284022028485,18.731402323946895-6.946269202984695,28.362340029396364-6.946269202984695,18.071901907418578,0,29.854199262892507,9.09368344016184,30.803379288438009,21.891986251312119-1.504928413563903.173598165354633-3.009918474201186.34713468362861-4.514846887759631.520732848983243-3.067311901735593.353792567813798-6.417645528303183.521226025590295-9.523363558238998,1.224002689303234-1.732529417287878.392075401859984-3.593469693385487.64976017855588-4.647264806500971,2.116837287598173-.40896670062466.569310744682298.086675788519642,2.407071720299427-.093580261012903,3.748573736007529-1.22911939658843.180009461233567-2.47494515071412.403541757954372-3.726134200431261.652226061589317-5.246659324155189,1.042821933631785-6.688399485059563,3.689392543272334-9.956249324253804,7.241805284200382-11.729095929093091,12.750279739128018-30.639398066909052,26.411826552206549-49.863298879135982,28.629086926226591-.66769947760622.076997197631499-7.10001700993962.732428907158464-7.24494928506283,1.420656860989766-.140000509061792.664617123818971,6.749121854687473-.193325229594848,6.992381215655769-.221436296142201,13.586029145268185-1.566883724704894,27.424996242394627-4.998899726664604,40.210723050091474-12.052003311950102,6.391075638650364-3.525534615890138,12.29766690886936-7.749592247269902,17.354761475051419-12.425091414470444,3.751101266114347-3.468017894201694,6.763115740885041-7.901675583183533,10.69687729249199-11.385906658309978,1.384593321668945-.182721932565983,2.800626651978746-.422652351442593,4.249456226594702-.70376301692886,1.529032420185104-.296707375653568,3.619792994733871-.456311654806996,4.860502041567088-1.664964222245544,2.307018516336029-2.247405794068982-1.253531638591085-3.445516711550226,1.434034276433522-5.495590216096389,1.274368350201257-.146966628621158,2.548736700402515-.293994904321153,3.823105050605591-.440961532940491.076997197631499,3.412288937708581-.58718839665562,7.063953470618799-2.101548812810506,10.866653339147888-3.068729784472453,7.705822823478229-9.113348857326855,14.83586195931457-16.800369322696497,20.532483289478478,12.603313110506861-6.198983350568597,23.049286804638541-15.987429334596527,27.435291304047496-27.000987655292192.756039737174433-1.898483345239583,1.292800825855011-3.758067385673712,1.641353392227757-5.571724354662365l9.062859902280252-1.045287816661585c.667822771758438-.077058844706698,7.100140304091838-.732490554231845,7.245072579215048-1.420718508066784.139938861988412-.664555476741953-6.749245148839691.193386876673685-6.992381215655769.221436296145839Z"/>
      <path d="M171.580603867967511,99.216472166125641c25.145102439402763-15.294084673470934,35.024046330652709-40.10086796107862,22.0602827681505-55.395014281628391-5.185258836696448-6.117362622255314-13.248203170078341-9.779815393419995-22.656101755412237-11.00135219969161.343374212006893-.040687070004424.687981365532323-.086367553147284,1.02993769479508-.121691327560256-2.108453285294672-.23888241858549-4.287430825261254-.342079623414975-6.508328376752615-.339613740383356.729469847519795-1.899901227983719,1.684074815731947-4.674574461067095.989373918944693-4.674574461067095-.652842532346767,0-1.936088061456758,2.799393710462027-2.728746161637901,4.687088817445328-2.235446261369361-.001972706426386-4.513552299169532.103505440209119-6.829263053185059.347073036553411.28511772541242.031440008640857.564810508154551.07280519647793.84752399761237.108745441650171-10.344502607425966,1.238921281637886-21.270090551002795,4.893729815406914-31.283548361570865,10.984214312629774-25.145102439400944,15.294146320547952-35.02404633065089,40.100929608155639-22.0602827681505,55.39507592870541,5.185258836698267,6.117362622255314,13.24820317008016,9.779815393418176,22.656101755412237,11.001352199689791-.343374212005074.040687070006243-.687981365528685.086367553147284-1.029937694793261.121691327560256,2.108453285292853.238882418587309,4.287430825261254.342079623414975,6.508328376750796.339613740383356-.729531494594994,1.899901227985538-1.684074815730128,4.674574461068914-.989312271864037,4.674574461068914.652780885266111,0,1.93602641437792-2.799393710463846,2.728684514560882-4.687088817447147,2.235446261367542.001972706428205,4.513552299165895-.1035054402073,6.829324700254801-.347073036551592-.285179372483981-.031501655714237-.56499544937833-.072866843554948-.84777058590771-.108807088723552,10.344564254495708-1.238921281639705,21.270275492224755-4.893668168333534,31.283733302792825-10.984214312633412ZM180.480900431457485,43.821457884497249c12.972270858959746,15.304133146823006,3.101402734633666,40.090819487732006-22.060282768146863,55.395014281628391-7.473721583226506,4.545793719793437-15.472737899039203,7.742132951103486-23.356350889021996,9.585133928159848,4.073083942830635-10.227866340079345,8.146229532738289-20.455794327230251,12.219313475568924-30.683599020232577l10.857776160235517-6.604066285415684-5.597801067709952-6.604066285415684c4.071111236404249-10.22287292693909,8.142160825736937-20.445745853878179,12.213272062144824-30.66855713374207,6.410925997046434,1.835171798431475,11.864904436999495,5.027195734439374,15.724073026929545,9.580140515017774ZM117.601437975421504,99.206423692779026c-12.972270858957927-15.304133146824825-3.101341087556648-40.090819487732006,22.060282768148681-55.39507592870541,7.473721583226506-4.545732072718238,15.472737899041022-7.742071304028286,23.356350889020177-9.58507228108283-4.073083942828816,10.227804693002327-8.14622953273647,20.455732680156871-12.219313475567105,30.683599020230758l-10.857776160237336,6.604066285415684,5.597801067711771,6.604066285415684c-4.071111236406068,10.22281127986389-8.142160825738756,20.44568420680298-12.213272062143005,30.668557133743889-6.410987644125271-1.835233445506674-11.864904437003133-5.027257381512754-15.724073026933183-9.580140515017774Z"/>
      <path d="M448.60912329079656,137.99032517429896c.485594015801325,1.791710610021255,1.351673783212391,3.476032014055818,2.633316488354467,4.988049841331303,2.815483597240018,3.321606089262787,7.19069985839451,5.312375106925174,12.296187379048206,5.980752702360405-.17631063668523.020775064534973-.355148803475458.052461661474808-.530781322329858.070585901750746,1.147067138746934.129952035709721,2.332478758620709.186112521731047,3.540761443604424.184756286067568-.396883873771003,1.03363651933978-.916198840008292,2.543126816508448-.538240618498094,2.543126816508448.355148803477277,0,1.053240289436872-1.522991006761004,1.484523231481944-2.549969641922871,1.216173510683802.001048000287483,2.455587968925101-.056345427245105,3.715407609250178-.188824993063463-.146350157867346-.016151533849552-.285734196169869-.044879071156174-.430913059595696-.06318825265771,5.61888436762456-.677501362652038,11.551244115509689-2.664201673314892,16.989194315769055-5.971752229301273,13.679855994580066-8.320567462998952,19.054371353877286-21.816345289349556,12.001576003969603-30.136912752350327-2.815483597240018-3.321606089264606-7.190761505466071-5.312375106923355-12.296249026127043-5.980752702362224.176310636687049-.020775064531335.355148803482734-.052461661476627.530842969408695-.070585901750746-1.147067138746934-.129952035709721-2.332478758620709-.186050874655848-3.540761443604424-.18475628606393.396883873772822-1.033636519343418.916198840008292-2.543188463587285.538240618498094-2.543188463587285-.355148803477277,0-1.053240289436872,1.522929359683985-1.484523231481944,2.549969641921052-1.216173510678345-.001048000287483-2.455526321846264.056345427246924-3.715407609248359.188824993065282.146350157865527.016151533849552.28573419616805.044879071154355.430913059595696.063188252655891-5.618884367626379.677501362652038-11.551244115511508,2.664263320388272-16.989194315765417,5.971813876380111-2.488445860310094,1.513559004164563-4.698185291083064,3.199791467550313-6.612203699418387,4.993536431067696-.485594015799506-1.791710610013979-1.351673783210572-3.47603201405218-2.633316488352648-4.988049841325847-2.815483597240018-3.321606089264606-7.190761505466071-5.312375106923355-12.296249026127043-5.980752702362224.17631063668523-.020775064531335.355148803482734-.052461661476627.530842969408695-.070585901750746-1.147067138746934-.129952035709721-2.332478758622528-.186050874655848-3.540761443604424-.18475628606393.396883873771003-1.033636519343418.916198840008292-2.543188463587285.538240618498094-2.543188463587285-.355148803477277,0-1.053240289436872,1.522929359683985-1.484523231481944,2.549969641921052-1.216173510683802-.001048000287483-2.455526321851721.056345427246924-3.715407609250178.188824993065282.146350157867346.016151533849552.285734196169869.044879071154355.430913059595696.063188252655891-5.61888436762456.677501362652038-11.551244115509689,2.664263320388272-16.989194315769055,5.971813876380111-13.679855994580066,8.320567462998952-19.054371353877286,21.816345289347737-12.001576003969603,30.136912752350327,2.815483597240018,3.321606089262787,7.190699858387234,5.312375106925174,12.296187379048206,5.980752702360405-.176310636687049.020775064534973-.355148803477277.052461661474808-.530781322329858.070585901750746,1.147067138746934.129952035709721,2.332478758620709.186112521731047,3.540761443602605.184756286067568-.396883873771003,1.03363651933978-.916198840006473,2.543126816508448-.538240618496275,2.543126816508448.355148803477277,0,1.053240289436872-1.522991006761004,1.484523231481944-2.549969641922871,1.216173510678345.001048000287483,2.455587968925101-.056345427245105,3.715407609248359-.188824993063463-.146350157865527-.016151533849552-.28573419616805-.044879071156174-.430913059595696-.06318825265771,5.618884367626379-.677501362652038,11.551244115511508-2.664201673314892,16.989194315765417-5.971752229301273,2.488445860310094-1.51355900417002,4.698185291083064-3.199791467555769,6.612203699416568-4.993536431073153ZM492.610648323794521,112.846948853021786c7.057357233516086,8.325992405667421,1.687280463673233,21.810858699605888-12.001576003967784,30.136912752350327-4.065131470055348,2.47254091475952-8.415442312603773,4.203837390525223-12.703551255697676,5.206650371987052,2.214856138061805-5.56167588131575,4.429773923200628-11.123351762629682,6.64463006126789-16.685027643943613l5.906961152668373-3.592853222628037-3.045427189836118-3.592791575551018c2.213746490699123-5.558840115829298,4.427431334326684-11.117618584585216,6.641177825027626-16.676458700414514,3.486758605236901.998497686157862,6.458702480760621,2.727143337664529,8.55778541053769,5.203568018199803ZM470.403522221175081,112.841462263279936c4.065131470060805-2.472540914761339,8.415442312605592-4.20389903760406,12.703551255703132-5.206650371988871-2.214856138065443,5.561614234240551-4.429712276127248,11.123290115554482-6.644568414194509,16.684965996866595l-5.90702279974721,3.592853222629856,3.045365542764557,3.592914869701417c-2.213746490700942,5.558778468755918-4.427369687249666,11.117556937510017-6.641116177954245,16.676397053339315-3.4868202523121-.998436039082662-6.458764127839459-2.727143337668167-8.557785410539509-5.203568018197984-7.057418880587647-8.32599240566924-1.687280463673233-21.810858699607707,12.001576003967784-30.136912752350327ZM412.630287050711559,142.978375015630263c-7.057418880587647-8.32599240566924-1.687280463675052-21.810858699607707,12.001576003967784-30.136912752350327,4.065131470055348-2.472540914761339,8.415442312603773-4.20389903760406,12.703551255697676-5.206650371988871-2.214856138061805,5.561614234240551-4.429712276127248,11.123290115554482-6.644568414189052,16.684965996866595l-5.90702279974721,3.592853222629856,3.045365542757281,3.592914869701417c-2.213746490699123,5.558778468755918-4.427369687247847,11.117556937510017-6.641116177948788,16.676397053339315-3.486820252310281-.998436039082662-6.458764127839459-2.727143337668167-8.55778541053769-5.203568018197984ZM422.133861897627867,148.190511977359165c2.214856138065443-5.56167588131575,4.429773923206085-11.123351762629682,6.64463006126789-16.685027643943613l5.906961152672011-3.592853222628037-3.045427189836118-3.592791575551018c2.213746490700942-5.558840115829298,4.427431334323046-11.117618584585216,6.641177825027626-16.676458700414514,3.486758605233263.998497686157862,6.458702480760621,2.727143337664529,8.557785410539509,5.203568018199803,7.057357233514267,8.325992405667421,1.687280463673233,21.810858699605888-12.001576003967784,30.136912752350327-4.065131470060805,2.47254091475952-8.415442312605592,4.203837390525223-12.703551255703132,5.206650371987052Z"/>
      <path d="M600.556958929118991,29.636650692332296h-52.377328275884793l-.257438188395099.706228899953203c.623375230134116.094689908377404,1.267463877720729.200229702084471,1.930293236337093.318098910945992.663815711832285.117869208865159,1.245764107046853.293933257245953,1.74880424528601.529178498361944.502053785023236.235738417723041.86503176712904.564687214002333,1.087947593092395.988325918655391.222915825965174.423145528047826.196284289235336,1.011998395750197-.076935550552662,1.764585896682547-.171625458933704.470983658839032-.454708830839081.987832742050159-.848263762522038,1.553506309261138-.3935549316775.564194037395282-.81867316615353,1.117538189457264-1.274368350203076,1.658059749759559-.456681537263648.542001090123449-.915335780950045,1.05934334993799-1.376949084269654,1.553506309266595-.461613303326885.494162959328605-.879827065311474.929637902525428-1.251682226326011,1.305931652992513-.698338074256753.753573854146453-1.699486584671831,1.788751550378947-3.001472824818848,3.10602626531545-1.302972593355662,1.317767891538097-2.674989911571174,2.694223799207975-4.115065601428796,4.129860899609412-1.440075689850346,1.435637100403255-2.860424315464115,2.847601723713524-4.259073170409465,4.234907516713065-1.399635208153995,1.389278499427746-2.568463764648186,2.530489165979816-3.505499316266651,3.424125176261441-.289987844398638-1.270916113960993-.614498051223563-2.611863305988663-.970571560836106-4.023827929297113-.357059862826645-1.411471446699579-.71411972565511-2.787927354369458-1.073152294904503-4.128874546397128-.359032569256669-1.342426721845186-.67367924395694-2.612356482592077-.942953670897623-3.81225516527229-.269274426938864-1.200391859287265-.507971904300575-2.223733316975995-.718065138500606-3.071010726282111-.289987844398638-1.270422937353942-.549398739214666-2.529502812765713-.778232684449904-3.776746449631901-.228833945242513-1.246750460259136-.230806651667081-2.176388362788202-.007890825701907-2.787927354371277.221929472756528-.612032168188307.585893808069159-1.094852065574742,1.090906652731064-1.447966515554072s1.101756538060727-.634718292070829,1.791217433408747-.847277409306116c.687488188923453-.211079587417771,1.402594267792665-.363471158709217,2.143345530177612-.458654243686397.739764909174482-.093703555161483,1.471638992648877-.16422780983703,2.194635897214539-.211572764026641l.257438188391461-.706228899953203h-21.390055760435644l-.256451835180997.706228899953203c.925199313069243.047344954189612,1.663977869031442.306755849003821,2.222253787154841.776753154634207.559262271332045.470983658840851,1.068220528848542,1.10570195091168,1.530820185382254,1.905634406030003.460626950112783.800918808332426.851222822157069,1.765079073287779,1.169814909704655,2.894946677897678.318592087553043,1.128881251397615.676638303588334,2.376124888263803,1.074138648118605,3.740744557388098.213052293845976.706228899953203.467531422598768,1.624030563934866.763437386269288,2.753404991939533.293933257245953,1.129374428006486.605620872307554,2.341602525835697.935062845193897,3.635204763677393.328455619672241,1.295081767657393.6569112393463,2.624192721141299.983394152593974,3.988319213656723.326482913249492,1.36560602233294.630279702614644,2.601013420649906.910404014888627,3.706715371563405.278151605849416,1.105701950908042.516849083211127,2.035339853438927.715106078869212,2.787927354369458.195297936019415.753573854146453.314646674700271,1.200391859283627.359032569251212,1.341440368632902-.941967317681701,2.58868400549909-1.755708717771995,4.78923802198733-2.43826514063403,6.600182519643568-.683542776076138,1.811930850866702-1.289163648389149,3.377273398678881-1.814889910503553,4.694548113613564-.27420619300392.753573854142815-.569125803458519,1.530327008775203-.882786124950144,2.329273110684881-.315633027914373.800918808328788-.636197821884707,1.553506309261138-.963667088348302,2.259735209219798-.326482913249492.705242546742738-.652965826498985,1.34094719202767-.975503326893886,1.905634406030003-.323523853614461.564194037395282-.645075000802535.964653441558767-.966626147988791,1.200391859285446-1.46374816694879,1.176226205583589-2.709512273995642,1.917470644577406-3.739265027565125,2.223240140367125-1.028766400359018.306755849003821-2.180826952242569.529178498360125-3.455195302443826.6702270077094l-.257438188396918.70622889995866h21.742183857204509l.257438188396918-.70622889995866c-.967612501202893-.187407110322965-1.954952066644182-.446818005138994-2.964977755969812-.775766801418285-1.009039336109709-.328948796279292-1.677786814003412-1.011998395748378-2.007228786889755-2.047669268589743-.189379816749351-.516849083211127-.082853669826363-1.422321332036518.317605734337121-2.717403099697549.400459404168942-1.29409541444511.849250115732502-2.623206367929015,1.347358487908423-3.989305566869007l5.163559066031667-14.188197781335475c.87292259282367-.847277409304297,2.077259864958251-2.023503614889705,3.613011816398284-3.529664969966689,1.536738304655955-1.506161355076983,3.134630508473492-3.081860611613592,4.793676611441697-4.730056829253954,1.657073396550913-1.646716687817388,3.270747251759531-3.235731712722554,4.840035212417206-4.765072368287292,1.567315254238565-1.528354302352454,2.798284063099345-2.740582400181665,3.687974660533655-3.634711587072161,1.325658717240003-1.317274714931045,2.54183222791653-2.494487273730556,3.649506885254596-3.530651323177153,1.105701950908042-1.034191343025668,2.195622250425004-1.928813706519577,3.270747251759531-2.682387560662391,1.073152294904503-.751601147718247,2.166031654054677-1.364126492515425,3.279624430662807-1.835110151356275.724723022691251-.306139378246371,1.529217361416158-.530473086953862,2.370021827766323-.717387020669776.52344532031384.106526146921169.983764035048807.215949706402171,1.370229553014724.328763855048237.722010551355197.212559117238925,1.300013533722449.69537901462536,1.733022593889473,1.446980162345426.179516284628335.282590195303783.234752064512577.74173761559905.16965275250368,1.377442260880343-.068058371643929.634718292072648-.211079587415952,1.353276607182124-.432022706958378,2.153209062300448-.220943119540607.800425631725375-.482326720779383,1.647703041031491-.783164450511322,2.540352698100833-.302810436151049.895608716706192-.607593578732121,1.765572249891193-.915335780944588,2.611863305986844l-5.010674318134988,13.766038606501752c-.462599656535531,1.270422937352123-.959721675502806,2.636028959683244-1.490379703680446,4.094845360576073-.513890023572458,1.411471446703217-1.02679369393627,2.787927354369458-1.537724657870058,4.12936772300236-.512903670358355,1.340947192029489-.984380505808076,2.576354590350093-1.420348625613769,3.706222194956354-.434981766595229,1.128881251401253-.7713282119621,2.023503614895162-1.011012042532457,2.68238756066421-.274206193002101.752587500930531-.576030275944504,1.517504417019154-.905472248832666,2.294257571649723-.330428326094989.776753154630569-.682556422860216,1.517011240410284-1.05638429029932,2.223240140367125-.37481422064775.70622889995866-.730887730260292,1.33009730669437-1.069206882057188,1.870618866996665-.33930550500736.542001090119811-.676638303590153.953803556225466-1.013971102172945,1.235407398320604-.935062845193897.753573854142815-1.982569956584484,1.341440368631083-3.148439453440005,1.764585896678909-1.166855850069624.423638704651239-2.373165828628771.730394553656879-3.616957229251057.917801663979844l-.257438188391461.70622889995866h43.203257048920932l8.436279024215764-13.482955234589099-.698338074264029-.211572764026641c-1.913525231726453,2.023503614895162-3.685015600894985,3.753073972538914-5.312498401070116,5.187724719731705-1.629455506610611,1.436623453611901-3.211566059026154,2.648358374839518-4.746331657257542,3.636191116889677-1.537724657870058.98783274204834-3.03994060009245,1.753736011345609-4.506647826681728,2.293764395040853-1.467693579803381.541507913514579-2.989636586275083.906458602041312-4.563856312995995,1.094852065576561-1.433171217369818.188393463535249-2.782502411702808.305769495789718-4.046020876568946.352128096765227-1.264504818078422.048331307400076-2.296230278070652.071510607887831-3.096162733194433.071510607887831-1.882948282147481,0-3.573557687910579-.142034862563378-5.069855510866546-.423638704653058-1.498270529376896-.282590195305602-2.337657112982924-.752587500934169-2.521118810458574-1.412457799915501-.184448050691572-.658390769163816-.091730848740553-1.658059749759559.279137959058062-3.000486471606564.370868807800434-1.340947192025851.805850574395663-2.763761700667601,1.307904359418899-4.269923055744584.171625458928247-.469997305628567.368896101375867-1.047507111388768.593784633765608-1.729570357649209.224888532387922-.682063246258622.474435895082934-1.399635208153995.748642088079578-2.153209062298629.290974197607284-.799932455121962.581948395216386-1.599864910238466.873908946039592-2.400290541963841.290974197607284-.799932455118324.54742603278828-1.505668178469932.770341858753454-2.118193523267109.497122018961818-1.364126492515425.976489680107989-2.682387560662391,1.4390893366417-3.952810498014514.462599656535531-1.270916113959174.8591136478517-2.235076378914528,1.195460093225847-2.893960324685395h3.247074774661087c.469504129021516,0,.936049198409819.012329415152635,1.39864885494535.03550871564039.461613303325066.023672477094806,1.037643579264113.059181192735196,1.726118121401669.105539793708886,1.377935437487395.094689908375585,2.518159750825362.35311444997933,3.423631999658028.776753154630569.904485895611288.423638704653058,1.612687501992696.964653441562405,2.126577525565153,1.623044210724402.556303211700651.800425631725375.931117432348401,2.00081749101264,1.124442661943249,3.600682401251106.195297936024872,1.599864910238466.20516146814407,3.153371219499604.03550871564039,4.658546221367942h.846291056093833l8.094014459569735-22.236839993140165h-.847277409307935c-.762451033053367,1.318261068145148-1.513065827562968,2.506323512277959-2.2498716771006,3.565173685607078-.739764909170844,1.05934334993799-1.548574543197901,1.988981252463418-2.428401608507556,2.788913707583561-.879827065309655.800425631725375-1.891825461059852,1.481995701376945-3.038954246883804,2.047176091984511-1.147128785825771.564687214002333-2.486596448037744,1.011998395748378-4.01741663341636,1.34144036863654-.663815711832285.140555332740405-1.466707226587459.246588303056342-2.409660897485082.316619381123019-.943940024098993.07151060788965-1.882948282147481.130691800623026-2.818011127343198.177050401596716-.935062845193897.047344954187793-1.755708717766538.070524254675547-2.461937617725198.070524254675547h-1.410485093487296c.05129036703147-.140555332742224.144993922196591-.399473050954839.282097018696732-.776753154634207.153871101107143-.423638704653058.36100527567578-1.02334145768873.619429817281343-1.800094612319299.259410894814209-.776259978025337.611538991579437-1.775435782014029,1.057370643507966-2.999993295001332.444845298714426-1.223571159771382.992271331504526-2.728746161636082,1.643264451578943-4.517497712015029,1.131347134427415-3.106026265317269,2.160113534782795-5.835758780165634,3.087285554282062-8.189197544548733.926185666285164-2.351959234563765,1.574219726720912-3.905465543828541,1.943115828096779-4.659039397973174.504026491445984-.093703555159664,1.300013533716992-.176064048382614,2.383029360747969-.246588303056342,1.084988533453725-.070524254675547,2.122632112717838-.106526146921169,3.110958031375048-.106526146921169,3.106026265317269,0,5.689285328147889.141541685954508,7.751749894923705.423638704651239,2.060491860347611.282590195305602,3.423631999650752.612525344797177,4.087447711483037.988819095264262,2.741075576790536,1.64770304103331,5.153695533907012,4.847432861506604,7.235887164928499,9.600668991248313l.833468464334146-.35311444997933-.560248624546148-11.648338259838056Z"/>
    </g>
  </g>
</svg>