<?xml version="1.0" encoding="UTF-8"?>
<svg id="Layer_2" data-name="Layer 2" xmlns="http://www.w3.org/2000/svg" viewBox="0 0 777.774315573407875 164.999999999999091">
  <g id="Layer_1-2" data-name="Layer 1">
    <g>
      <path d="M724.520499349931924,45.299320607600748c.00853098861262-.012491804752244-.011577770255826-.026507000327911-.049357862677425-.04149716602933-1.110551910267532-.945446812826958-6.680251567560845-.805051114541129-7.18790632555465-.832137003381831-5.80673926941563-.309674886582798-11.659850555497542-.374876013824178-17.472378710042904-.361866256193025-24.087733828526325.00798256791586-48.175528592682895.015995603645933-72.263323356843102.023978171561794-3.435307242425552.001127309207732-6.870614484852922.002285086234224-10.30586079164641.003412395443775-5.8095423085324.001919472437294-11.668929964804192.028548344030241-17.472378710042904.361866256193935-1.287874602112424.0833599458565-2.575749204224849.166689423896969-3.863684741971156.250049369753469-1.188732327324033-.057888851289135-2.313238497534257.149962592658085-3.373579446260919.623584799655873,12.029851718685677,12.029821250870555,24.059642501741109,24.059642501742019,36.089494220428605,36.089494220429515,1.271178238686844,1.271208706503785,2.542417413009389,2.542447880825421,3.813656587328296,3.813656587329206h-81.138232680243163c13.651592653659463-13.651592653658554,27.303185307318927-27.303154839500166,40.954717025344507-40.954777960976571.216687110723797-.099934438015225.403759503837136-.216687110721978.544886429717735-.357783568786544,3.074324552910184-3.074324552911094,6.148649105822187-6.148679573639129,9.222973658736009-9.223004126550222.410096809660899-.364120874612126.800572345517139-.741221039040283,1.127431080587485-1.127461548407155,9.017133090675998-9.017072155042115,18.034144310086049-18.034144310085139,27.051277400760227-27.051216465126345,1.759516401039946-1.759516401039946,3.51903280208353-3.519063269897742,5.278610138755539-5.278610138755539.149170429427613-.149139961611581-8.443363170945304-.937921262158852-7.237325123865958-.873603701593311-5.80673926941563-.309674886582798-11.659789619865478-.374876013825997-17.472317774407202-.361866256193025-5.82179037075548.013040225447185-11.658936521005671.027969455516541-17.472378710042904.361866256193025-1.668356694168324.095821282791803-6.022634216909864-.341026269729809-7.237264188233894.873603701593311-4.180915647039001,4.180885179222059-8.361770358444119,8.361709422811145-12.542625069847418,12.542594602031386-3.438354024076034-1.129563827742459-6.948855837546944-2.030679967608194-10.500793881414211-2.673276684738994-13.358431323602417-2.416737670077055-27.145362018010928-2.119463184797496-40.669477327568529-2.119463184797496h-57.351886492220729c-5.815270258028249,0-11.663019208410333.052039030528249-17.472378710041085.361866256193935.004387365570437-.000243742531893-6.600304017147209-.062002006513467-7.237264188233894.873603701593311-.155081185823292.227746928099805,7.858137352221092.90398011461275,7.237264188233894.873634169410252,5.818195168407328.284295195464438,11.648211849604195.361866256193025,17.472378710041085.361866256193025h48.529016199348916c.35214702274061.053684292616708.70411123858139.10837402317793,1.055648904990449.167999540006349,1.564827053809495.265374681438516,3.121549668438092.581600148562757,4.666450770275333.945355409376134,2.919730852152497.687506278606634,5.784314956496019,1.564766118175612,8.605269147657964,2.580197505430078,6.401897596306299,2.459666823480802,12.465907107980456,5.705190037127068,18.001421875198503,9.763411787247605,1.393293247090696,1.021464014914272,2.752340668475881,2.089665660291757,4.072754898574203,3.203873708534047,1.318342418582688,1.112501850522676,3.167677942570663,2.362261214232603,4.152032157024223,3.774992928231768.743780335624251,1.067470417780896.567006064475208.198680631189745.213518457812825.925002907975795-.078850709021935.16190597671266-.181588186153022.324817391368924-.300900155441923.487850677289316-.559206303456449.559236771275209-1.118412606916536,1.118473542549509-1.677679846006868,1.677710313824718-.557865719532856.476090100131842-1.110734717167361.923723259684266-1.50194148061928,1.314930023135275-2.126166104419099,2.126135636603976-4.252210337572251,4.252240805391011-6.378376441993169,6.378376441994078-9.925378699592329,9.925378699593239-19.850757399184658,19.850726931369536-29.776136098778807,29.776105630962775-7.035079758150459-7.035049290334427-14.070098580667036-14.070098580667036-21.105178338815676-21.105147871000554-1.728256421345577-1.728286889161609-3.456573778323218-3.456573778321399-5.184830199668795-5.184860667483008.00853098861262-.012491804752244-.011577770255826-.026507000327911-.049357862677425-.04149716602933-1.110551910265713-.945416345009107-6.680251567560845-.80505111454022-7.187967261186714-.83210653556398-5.806678333783566-.309674886584617-11.659789619865478-.374876013825997-17.47231777441084-.361866256193935-24.087733828526325.007982567914951-48.175589528314958.015965135828992-72.263323356839464.023978171560884-3.43530724242919.001127309209551-6.87061448485656.002285086235133-10.305921727283931.003412395444684-5.809481372898517.001919472437294-11.66886902917031.028548344031151-17.472317774407202.361866256193025-1.287905069930275.08335994585741-2.5757796720427.166689423896969-3.863684741971156.250049369754379-1.188762795141884-.057919319106077-2.313268965352108.149962592657175-3.37360991407877.623554331838932,12.029882186503528,12.029851718688406,24.059672969557141,24.05967296955896,36.089463752612573,36.089494220430424,1.315356572566088,1.315326104750056,2.630713145132177,2.630652209500113,3.945947846434137,3.945947846434137h-18.072655630101508c-.885882231626965-.990569649015015-2.011363371964762-1.88760310147245-2.916440327970122-2.792710525295661-4.372131663194523-4.372131663192704-8.744202390753344-8.744232858568466-13.11636452176208-13.11636452176117-6.322955483838086-6.322955483838086-12.645941435492205-12.645941435491295-18.968896919328472-18.968896919329381l-5.184860667484827-5.184860667483008c-.991910232940427-.991910232939517-6.72220575083702-.846152198955679-7.237264188233894-.873603701593311-5.806739269413811-.309674886584617-11.659820087677872-.374876013825997-17.472378710041085-.361866256193935-5.821729435117959.013040225448094-11.658936521002033.02796945551836-17.472348242225053.361866256193935-1.287905069928456.0833599458565-2.575779672044519.166689423896969-3.863684741971156.250049369754379-1.188762795140065-.057919319106986-2.313268965350289.149962592656266-3.373609914076951.623554331838932,11.159142459655413,11.159142459659051,22.318284919314465,22.318284919316284,33.477427378971697,33.477457846790458,2.195145240906641,2.19511477308788,4.390290481807824,4.390260013990883,6.585405254896614,6.585374787078763h-5.285983350342576c-.720685730739206,0-1.789039715198669-.201879751918568-2.487209729568349,0h-25.404095839036017c-11.626000811400445-11.625970343584413-23.25200162280089-23.252001622801799-34.878002434203154-34.877971966386212-1.728286889157971-1.728286889161609-3.456543310503548-3.456573778321399-5.184830199665157-5.184860667483008-.991940700756459-.991910232939517-6.72220575083702-.846152198955679-7.237294656049926-.873603701593311-5.80673926941563-.309674886584617-11.659789619863659-.374876013825997-17.472348242225053-.361866256193935-5.821759902937629.013040225448094-11.658936521002033.02796945551836-17.472348242226872.361866256193935-1.287905069930275.0833599458565-2.575810139856912.166689423896969-3.863715209787188.250049369754379-1.188732327325852-.057919319106986-2.313268965350289.149962592656266-3.373579446262738.623554331838932,12.037803818784596,12.037834286602447,24.075638105388862,24.075638105387952,36.113441924175277,36.113472391990399.984262811005465.984232343189433,1.968525622012748,1.968495154196717,2.952788433016394,2.952757965202181H111.016037708592194c16.342266461600957-16.342266461601866,32.684532923203733-32.684532923203733,49.026799384806509-49.026829852622541.973995156855381-.973964689040258,2.633302909533086-2.110962664001818,3.31748819614586-3.317457728328918.075925798635581-.133875585560418.398397168137308-.274575962010204.422619082230085-.422619082230085.055817039768954-.340934866278985-2.021478687036506-1.955515864380686-2.317747734374279-2.227745804524602-1.37409852271594-1.262464443178033-2.79472140118196-2.474260907570169-4.258090626151898-3.632068401179822-9.961452594290677-7.881384296188116-21.978081280631159-13.236103040480884-34.473877316566359-15.496815022424016-13.358461791418449-2.416737670077055-27.145331550194896-2.119463184797496-40.669477327568529-2.119463184797496H24.711864874891035c-5.81527025802643,0-11.662988740594301.052039030528249-17.472378710042904.361866256193935.004417833390107-.000243742531893-6.600334484963241-.062002006513467-7.237264188233894.873603701593311-.15505071800726.227746928099805,7.85813735222473.90398011461275,7.237264188233894.873634169410252,5.818195168407328.284295195464438,11.648242317423865.361866256193025,17.472378710042904.361866256193025h48.529016199348916c.352116554922759.053684292616708.704080770765358.10837402317793,1.055648904992267.167999540006349,1.564827053809495.265374681438516,3.121549668436273.581600148562757,4.666450770275333.945355409376134,2.919761319968529.687506278606634,5.784284488679987,1.564766118175612,8.605299615473996,2.580197505430078,6.401867128490267,2.459666823480802,12.465876640164424,5.705190037127068,18.001391407378833,9.763411787247605,1.393323714910366,1.021464014914272,2.752340668475881,2.089665660291757,4.072724430758171,3.203873708534047,1.31837288639872,1.112501850522676,3.167677942570663,2.362261214232603,4.152062624843893,3.774992928231768.743810803440283,1.067470417780896.567006064475208.198680631189745.213487989993155.925002907975795-.599698031544904,1.232118497975534-2.523557834612802,2.523557834615531-3.480521482064432,3.48049101424931-2.126105168787035,2.126135636603976-4.25221033757407,4.252240805391011-6.378345974177137,6.378376441994078-11.559885649667194,11.559885649664466-23.11977129933075,23.119740831513809-34.679656948994307,34.679626481177365-3.036056975430256,3.036056975427528-6.072113950855055,6.072144418671087-9.108170926281673,9.108201394098614-.15041960990493.150419609903111,8.44254053989971.93249799082696,7.237294656048107.87360370159422,5.818195168407328.284295195465347,11.648211849606014.361866256193935,17.472348242225053.361866256193935h59.122767388806096c7.164628913773413,7.159327513705648,14.319569061910443,14.193401833912503,22.731641785341708,19.951605871694483,13.047659595624282,8.931335719500566,28.00400602172158,15.175592833401424,43.512733960384139,18.247693235710358,15.13382145702235,2.997789397943052,30.821730624336851,3.099003484250716,46.179642871482429,3.099003484250716,5.815239790212217,0,11.662988740592482-.052069498344281,17.472348242226872-.361866256193935-.004417833388288.000243742531893,6.600334484963241.062002006513467,7.237294656049926-.873634169410252.155020250189409-.227716460282863-7.858167820042581-.903949646795809-7.237294656049926-.873603701593311-1.72368624887531-.084213044719036-3.448560742592235-.145727566166897-5.173861785739064-.197035369101286-.960376042896314-.055299086889136-2.469050910953229-.134424006257177-3.031761013304276-.187407539095148-.127873425717553-.012034787505399-.233657684493664-.021601681875836-.320826107410539-.02909676472791-.101031279409654-.015782328929163-.22302441654756-.034337229159064-.372865137938788-.056609202996697-.659932904702146-.098045433395782-1.321724346209521-.183355319506518-1.981443976193987-.283289757521743-1.580700786191301-.239537973073311-3.156039236680954-.511920252300115-4.725375527328652-.817146837678592-5.988144648667003-1.164571348866048-11.86060299820565-2.823970504991848-17.593640619583311-4.902881026068826-11.654731962333244-4.419905199416462-22.569918615528877-10.636436600329944-32.238027072862678-18.515840488446884-4.991907985790021-4.068337065187734-9.519912998035579-8.640215733146761-14.052457714931734-13.203289202146152h134.195284359650032c-5.25655143963013,5.256581907449799-10.513102879263897,10.513102879265716-15.769654318895846,15.769654318898574-7.473785847476393,7.473785847476393-14.947541227136753,14.947541227134934-22.421296606795295,22.421296606795295-2.987491275976936,2.987491275976936-5.974952084139659,5.974982551953872-8.962443360114776,8.962443360114776-1.570189389507505,1.570189389506595-3.913895703512026,3.240282749213293-5.118471295396375,5.118471295398194-.585835175053944.913455605533272-.540773274497042.480782143868055.651737062071334,1.623843214307271,3.169536479374074,3.038098319130768,6.603076588446129,5.799305122198348,10.249403927731692,8.24453020067358,7.262095458654585,4.870006252099301,15.395357193585369,8.470631866683107,23.84850053361879,10.695300421744832,15.960474253435677,4.200415049578623,32.8826651336949,3.407459658175867,49.268805251011145,3.407459658175867h54.55759164047231c5.815270258028249,0,11.663019208408514-.052069498344281,17.472378710042904-.361866256193025-.004448301206139.000243742531893,6.600364952777454.062002006511648,7.237264188230256-.873634169410252.155020250193047-.227716460284682-7.858137352222911-.903949646795809-7.237264188230256-.87360370159513-5.818195168409147-.284295195464438-11.648211849607833-.361866256193025-17.472378710042904-.361866256193025h-48.529016199348916c-.352086087108546-.053684292616708-.704050302949327-.108374023177021-1.055648904992267-.167999540005439-1.564827053809495-.265405149254548-3.121519200620241-.581600148561847-4.666420302459301-.945355409377044-2.931034412060399-.690156978637788-5.806434591251673-1.571225295266231-8.637961114727659-2.591653404421777-5.275136807678791-2.028851898618996-10.321399378046408-4.582572871538105-15.036903332838847-7.705706866430774-2.433799647296837-1.611930298069638-4.773606080792888-3.367577286418054-7.004581473862345-5.25012273035918-1.020367173521663-.861020493392061-2.018035823773971-1.749005004359788-2.991604431201267-2.66264341679198-.189479350616239-.177840644724711-1.771185574747506-1.404566339186204-1.7205175959607-1.690750539271903.079673340063891-.450283859584488,1.31870803237689-1.318708032377799,1.629205550005281-1.6292055500071,1.32504533820611-1.325075806020322,2.650121144224613-2.650121144223704,3.975166482428904-3.975196950243117,9.224710324273474-9.224710324272564,18.449451116361161-18.44945111636298,27.674161440634634-27.674161440635544,4.477763582890475-4.477763582887746,8.955527165773674-8.955496697959461,13.433260280846298-13.433260280848117,1.506450717457483-1.506481185271696,3.012962370547029-3.012962370543391,4.519474023632938-4.519413087999965.394253545100582-.394314480731737,1.158264510857407-.956506630203876,1.74422155717366-1.526559476325019h20.416849429166177c.942186756465162,0,2.214522772177588.225096228067741,3.135991413446391,0h80.267523421211081c7.458887085223978,0,14.91783510608002.005636546047754,22.376722191303998,0,.107795134665139-.000091403449005.215590269328459,0,.323324468359715,0,5.809115759100678,0,11.669356514235915-.028578811847183,17.472378710041085-.361866256193025,1.287874602116062-.08335994585741,2.57581013986055-.16671989171482,3.863684741972975-.250049369754379.956262887671983.046554823562474,1.868956797794453-.087320761997944,2.742042546507946-.384686650727417h16.807388147806705c3.67185936948772.093993213802605,7.345607743593064.13226079128799,11.017284306182773.13226079128799h161.553829689491977c7.458948020857861,0,14.91783510608002.005667013862876,22.376722191303998,0,.107795134665139-.000091403449005.215590269328459,0,.323324468359715,0,5.809115759100678,0,11.669356514235915-.028578811847183,17.472378710041085-.361866256193935,1.287874602114243-.0833599458565,2.57581013986055-.166689423897878,3.863745677605039-.250049369755288,1.188732327324033.057888851290954,2.313238497534257-.149962592656266,3.373518510628855-.623584799654964-12.037773350968564-12.037803818785505-24.075607637569192-24.075638105387952-36.113380988539575-36.113441924172548-1.728317356977641-1.728286889161609-3.456634713955282-3.456573778323218-5.184891135300859-5.184830199666976ZM522.171786800288828,11.457833289647169h1.853661953928167c.484742960008589,0,.969485920018997.001614794273337,1.454289815661468,0,.063738672050022-.000213274715861.127599215369628.000243742531893.191398823053532,0-1.164175267251267.004509236838203-2.331214509251367.004935786268106-3.499350592643168,0ZM81.890907444289041,11.457833289647169h1.853631486110316c.484742960010408,0,.969516387836848.001614794273337,1.454259347845436,0,.063799607683904-.000213274715861.12762968318566.000243742531893.191429290869564,0-1.164205735067299.004509236838203-2.331184041431698.004935786268106-3.499320124825317,0ZM357.920336640698224,162.469463335148248h-1.853783825194114c-.484742960010408,0-.969516387836848-.001645262089369-1.454259347847255,0-.063799607683904.000213274715861-.127599215367809-.000243742531893-.191398823053532,0,1.16423620288333-.004509236836384,2.331275444883431-.004935786267197,3.499441996094902,0ZM711.214716413189308,81.412762531773296c1.282634137678542,1.282695073314244,2.565329210990967,2.565390146626669,3.848024284303392,3.848054752123971-1.81923332131737-.019072853109719-3.638405707000857-.03095530153314-5.456968736358249-.03095530153314h-27.751305951933318c-11.573870377425919-11.573900845240132-23.147862626114147-23.147832158297206-34.721733003536428-34.72176347135246-1.318159611682859-1.318159611681949-2.636380158995962-2.63634969118084-3.954539770678821-3.954509302862789,11.055430012400393-.003656137976577,22.110799089165084-.007373211586128,33.166229101565477-.011029349561795,11.623471982635238,11.623380579184413,23.246822094004528,23.246791626185768,34.870294076637947,34.870202673186213ZM410.976078203997531,51.372439996398498c-1.31815961168104-1.318159611681949-2.636319223363898-2.636319223363898-3.954539770678821-3.954509302862789,11.055490948032457-.0036866057917,22.110860024800786-.007373211585218,33.166290037201179-.011029349561795,11.623411046999536,11.623411047002264,23.246761158368827,23.246791626185768,34.870172205368362,34.870202673188032,1.316453413959607,1.316422946142666,2.632967763553097,2.632906827919214,3.949421177512704,3.949360241878821h-33.177380322393219c-11.617987775669462-11.617987775669462-23.235975551340744-23.236036486972807-34.853963327010206-34.85402426264227Z"/>
      <path d="M167.079257435474574,25.830203077495753l3.019238740733272,3.01923874073691v19.667737225661767c0,1.844643480252671,3.351734021856828,5.183550551374537,4.129150826860496,6.105933227134301,3.738827630082596,4.435992206508672,7.832818596736615,8.680981671580412,11.945425399253509,12.76421749902056,4.12884614869472,4.099353302352029,8.288586663285969,8.222867583163861,12.76421749902147,11.945425399255328l3.014942778614568,2.449155426798825c.860654879596041.936641613866414,1.890985029100193,1.496640080552424,3.090990448519733,1.679995400058942,0-7.241499214722353.345962055997006-14.566663053466982,0-21.798199292203208-.010480928865945-.218667518793154.027573373905398-.447968305533323,0-.665112433502145-.151760193828522-1.19555711821431-.991636022592502-2.149413048385213-1.679995400058033-3.090990448519733-1.719268415487022-2.351658414100712-3.828250671420392-4.652069960902736-5.766795962028482-6.769705076711034-2.818242555493271-3.078620515034345-5.718291198207226-6.083722188928732-8.66129946214096-9.042969799040293-.694148262595263-.69798720747167-1.392135470068752-1.392135470066023-2.088172737283458-2.088203205099489-3.225383986962697-3.225383986961788-6.450767973921756-6.450767973922666-9.676151960884454-9.676121493066603-2.43200204612549-2.432002046128218-4.863973624438586-4.864004092255527-7.295975670564076-7.295975670567714-4.102704762164649-4.10270476216283-8.323167634978745-8.202362742680634-12.764217499023289-11.945425399253509.522705859330017.440564626130254-5.376838379050241-4.858245674944556-6.105933227134301-4.129150826859586-1.567630092922627,1.567660560740478,15.668592571673798,18.464167071717384,16.074576226114004,18.87015072615668Z"/>
      <path d="M777.620541118378242,60.931626009860338c-.010480928864126-.218667518793154.027542906087547-.447968305533323,0-.665112433502145-.151729726010672-1.19555711821431-.991605554774651-2.149413048385213-1.679995400058033-3.090990448519733-1.719237947669171-2.351658414100712-3.828220203602541-4.652069960902736-5.766765494210631-6.769705076711034-2.818273023311122-3.078620515034345-5.718260730391194-6.083722188928732-8.661329929958811-9.042969799040293-.694117794777412-.697987207469851-1.392135470065114-1.392135470066933-2.088142269465607-2.088203205099489-3.225444922594761-3.225383986961788-6.450767973923575-6.450767973922666-9.676212896518336-9.676151960883544-2.431941110493426-2.431971578311277-4.863943156620735-4.863973624439495-7.295945202749863-7.295945202750772-4.102674294344979-4.102704762163739-8.323198102792958-8.202362742680634-12.764187031205438-11.945425399253509.522705859330017.440564626130254-5.376838379048422-4.858245674944556-6.105933227134301-4.129150826857767-1.567691028554691,1.567660560738659,15.668562103857766,18.464136603898623,16.074576226112185,18.870150726153952l3.019238740738729,3.019238740737819v19.667737225661767c0,1.844643480252671,3.351764489671041,5.183550551374537,4.129181294674709,6.105933227133391,3.738766694450533,4.435992206509582,7.832788128920583,8.680981671581321,11.945394931437477,12.76421749902147,4.128815680876869,4.099353302352938,8.288586663285969,8.222867583163861,12.764247966839321,11.945425399254418,1.004950458387611.816385142265972,2.009900916775223,1.632770284533763,3.014912310796717,2.449155426798825.860654879594222.936641613867323,1.891015496918044,1.496640080553334,3.090959980701882,1.679995400059852,0-7.241499214722353.345992523814857-14.566663053466982,0-21.798199292203208Z"/>
    </g>
  </g>
</svg>