<?xml version="1.0" encoding="UTF-8"?>
<svg id="Layer_2" data-name="Layer 2" xmlns="http://www.w3.org/2000/svg" viewBox="0 0 444.530725100261407 165">
  <g id="Layer_1-2" data-name="Layer 1">
    <g>
      <path d="M271.374947998383504,165l-34.49215304343852-34.492152965020068c9.144853371568388-9.144853423793393,9.14485331461583-23.971590278941221-.000000066105713-33.116443659675497l.000016558240532-.000016558236894,34.492153160372254,34.492153223976857c-9.144853351390339,9.144853312109262-9.144853412366501,23.971589959182893-.00000005082984,33.116443400713251l-.000016558238713.000016558242351Z"/>
      <path d="M128.369671683853085,72.129553337839752l-104.952810202685214.000000140562406c.000000241996531-12.932775650997428-10.484085779393354-23.416861735377097-23.416861481167871-23.416861887979394v-.000023416891054l104.952810063890865.0000001011922c-.00000000203363,12.932775566701821,10.484086047999881,23.416861579722536,23.416861619962219,23.416861646233883v.000023416881959Z"/>
      <path d="M234.432016084656425,70.339685692737476l-34.492152918766806-34.49215285032551c9.144853318248352-9.144853510835674,9.144853112828059-23.971590398739863-.000000190777428-33.116443774371874l.000016558236894-.000016558235075,34.492153086732287,34.492153106533806c-9.144853342937495,9.14485337338192-9.144853242460158,23.97159018104503.000000022811946,33.116443518161759l-.000016558236894.000016558236894Z"/>
      <path d="M73.688088601817071,69.3088435083082l-34.492152855171298-34.492152756392898c9.14485330748721-9.144853562262142,9.144853209567373-23.971590386337994-.000000254374754-33.116443868302667l.00001655824417-.000016558235075,34.492153164066622,34.492153281848005c-9.144853327716191,9.144853298706948-9.144853293328197,23.971589963020961-.000000054522388,33.116443342845741l-.000016558242351.000016558236894Z"/>
      <path d="M336.231253949428719,133.820419459032564l-34.492153043436701-34.492152965025525c9.144853371562931-9.144853423789755,9.144853314610373-23.971590278935764-.000000066105713-33.116443659671859l.000016558242351-.000016558235075,34.492153160372254,34.492153223976857c-9.144853351390339,9.144853312107443-9.144853412370139,23.971589959182893-.00000005082984,33.116443400718708l-.000016558242351.000016558236894Z"/>
      <path d="M206.518642047334652,133.820419459032564l-34.492153043436701-34.492152965025525c9.144853371559293-9.144853423789755,9.144853314606735-23.971590278935764-.000000066107532-33.116443659671859l.000016558240532-.000016558235075,34.492153160374073,34.492153223976857c-9.144853351390339,9.144853312107443-9.14485341236832,23.971589959182893-.000000050828021,33.116443400718708l-.000016558242351.000016558236894Z"/>
      <polygon points="79.28035967755568 72.130154896187378 53.608572089355221 97.802044978847334 20.489127004018883 97.802044978847334 46.161017086678839 72.130154896187378 79.28035967755568 72.130154896187378"/>
      <polygon points="128.369671683853085 72.130154896187378 102.697781601191309 97.802044978847334 69.582641283208432 97.802044978847334 95.254428871403434 72.130154896187378 128.369671683853085 72.130154896187378"/>
      <path d="M444.530725100261407,70.42932301246401l-104.95281020269249.000000140558768c.00000024199835-12.93277565099379-10.484085779389716-23.416861735380735-23.416861481164233-23.416861887979394v-.000023416889235l104.952810063892684.000000101194018c-.000000002037268,12.932775566698183,10.484086047996243,23.416861579722536,23.416861619964038,23.416861646230245v.000023416885597Z"/>
      <path d="M389.849142018219936,67.60861318293064l-34.492152855171298-34.492152756392898c9.144853307483572-9.144853562262142,9.144853209563735-23.971590386337994-.000000254371116-33.116443868302667l.000016558238713-.000016558235075,34.492153164068441,34.492153281842548c-9.144853327714372,9.144853298714224-9.144853293324559,23.971589963024599-.000000054522388,33.116443342845741l-.000016558242351.000016558242351Z"/>
      <polygon points="395.441413093956726 70.429924570809817 369.769625505761724 96.101814653464317 336.650180420421748 96.101814653464317 362.322070503081704 70.429924570809817 395.441413093956726 70.429924570809817"/>
      <polygon points="395.441413093385563 121.773704738765446 369.769625506340162 96.101814654954069 336.650180420996548 96.101814653464317 362.322070502503266 121.77370473728115 395.441413093385563 121.773704738765446"/>
      <polygon points="128.371772819724356 123.473935064143006 102.699985232680774 97.802044980329811 69.580540147335341 97.802044978847334 95.252430228845697 123.473935062656892 128.371772819724356 123.473935064143006"/>
      <path d="M224.736400572359344,72.595277725371488l82.208654874040803.000002592034434v.000023416885597c-9.144853900845192,9.144853115554724-14.272009284723026,14.272008059155269-23.41686318556458,23.416861174713631l-35.374932011814963-.000001427921234c.000000547668606-12.932775028501055-10.484084674102633-23.41686117017889-23.416859676661261-23.416861613526635v-.000024142185794Z"/>
      <polygon points="273.825726800290795 72.594691619149671 299.497514980064807 46.922802128055991 332.616960065401145 46.922802891240281 306.94506939117673 72.594692382335779 273.825726800290795 72.594691619149671"/>
      <polygon points="224.73641479399339 72.594690487954722 250.408305468228718 46.92280099686468 283.523445786211596 46.92280175995802 257.85165760644486 72.594691251044424 224.73641479399339 72.594690487954722"/>
      <polygon points="224.734314841269224 21.250910319946342 250.406101836741072 46.922800995329453 283.525546922084686 46.922801760005314 257.853657432146065 21.250911084620384 224.734314841269224 21.250910319946342"/>
      <polygon points="444.530725100261407 70.429924570809817 418.85883501760145 96.101814653464317 385.743694699611297 96.101814653464317 411.415482287813575 70.429924570809817 444.530725100261407 70.429924570809817"/>
      <path d="M113.488145206336412,86.879522230958173l-39.304322295651218,39.304322473373759c-9.14485326526119-9.144853522533595-23.971590032824679-9.144853523714119-33.116443522205373-.000000195486791l-.00001659377449-.000016593781766,39.304322646388755-39.304322658539604c9.144853095724102,9.144853538637108,23.971589780603608,9.144853584537486,33.11644318922481.000000398422344l.000016576017515.000016576012058Z"/>
      <path d="M226.603449984226245,72.129564485769151l-91.08977947330095.00000010887743c-.00000001002627-12.93277570446844-10.484086189864684-23.416861880117722-23.416861899671858-23.416861853533192v-.00002341965228l91.08977958163814.000000023115717c.000000047071808,12.932775623921771,10.484086100979766,23.416861779634928,23.416861791334668,23.416861712046739v.000023429145585Z"/>
      <path d="M171.921866750595655,69.3088435083082l-34.492152855173117-34.492152756392898c9.14485330748721-9.144853562262142,9.144853209569192-23.971590386337994-.000000254371116-33.116443868302667l.000016558240532-.000016558235075,34.49215316407026,34.492153281848005c-9.14485332771801,9.144853298706948-9.144853293324559,23.971589963020961-.000000054526026,33.116443342845741l-.000016558240532.000016558236894Z"/>
      <polygon points="177.514137826334263 72.130154896187378 151.842350238139261 97.802044978847334 118.722905152795647 97.802044978847334 144.394795235457423 72.130154896187378 177.514137826334263 72.130154896187378"/>
      <polygon points="177.514137825759462 123.473935064143006 151.842350238714062 97.802044980329811 118.722905153370448 97.802044978847334 144.394795234880803 123.473935062656892 177.514137825759462 123.473935064143006"/>
      <polygon points="224.7353645478197 72.595294942822875 250.407254630479656 46.92340486015928 283.522394948473448 46.92340486015928 257.850607360267531 72.595294942822875 224.7353645478197 72.595294942822875"/>
      <polygon points="199.734238743452806 97.596420747189768 225.406128826112763 71.924530664526173 258.521269144102916 71.924530664526173 232.849481555900638 97.596420747189768 199.734238743452806 97.596420747189768"/>
      <polygon points="187.345363155400264 109.985296335240491 213.01725323806204 84.313406252580535 246.132393556052193 84.313406252580535 220.460605967849915 109.985296335240491 187.345363155400264 109.985296335240491"/>
      <path d="M241.293467235998833,89.152370526466257l12.040257406626552-12.040257393249703c3.118866800567048-3.118866797105511,8.175548989558592-3.118866796941802,11.294415789929189.000000000361979l53.785732051637751,53.785731998787014-1.990325446640782,1.990325452534307c-8.669291008642176-8.669291045036516-22.724988922451303-8.669291049387539-31.39427993645586-.00000000971886l-43.735799865096851-43.735800048714736Z"/>
    </g>
  </g>
</svg>