<?xml version="1.0" encoding="UTF-8"?>
<svg id="Layer_2" data-name="Layer 2" xmlns="http://www.w3.org/2000/svg" viewBox="0 0 469.068748348027839 164.999375448149294">
  <defs>
    <style>
      .cls-1 {
        font-family: Helvetica-Bold, Helvetica;
        font-size: 11.940303802490234px;
        font-weight: 700;
      }

      .cls-2 {
        letter-spacing: -.073541604590059em;
      }

      .cls-3 {
        letter-spacing: -.073611511058301em;
      }

      .cls-4 {
        letter-spacing: -.092556163951747em;
      }

      .cls-5 {
        letter-spacing: -.055995081061442em;
      }

      .cls-6 {
        letter-spacing: -.055925174593201em;
      }

      .cls-7 {
        letter-spacing: -.129676498587984em;
      }
    </style>
  </defs>
  <g id="Layer_1-2" data-name="Layer 1">
    <g>
      <g>
        <path d="M101.557067470483162,121.633359634797671c-9.187563342154135-9.179919912076002-18.3925577060254-18.398232397686115-27.58832847092981-27.588363565234431-.400881221636155-.400892621807543-.11695878890896-1.086340317900977.449981284486967-1.086340338945774l7.460723160373163-.000000276931132c5.000834182210383.069535780185106,10.425032343218845.492839924815598,14.343137981773907-3.223929272851819,4.160592482127868-3.547741173344548,7.953753165978014-7.602746616007607,11.802840363503492-11.47259480165576,3.967419146374596-4.219964243175127,9.069406017360961-7.94736859812474,11.357601780946425-13.422821026000747,3.348649033077891-10.489213508125431-5.617882512507094-17.826896096601558-15.72839594656034-16.432968990598056-14.410918671389481-.140832422484891-28.822002457816779-.281146304794675-43.233023837419751-.421419883507042-2.964117416817317.244119565538313-6.501282111180444-.937138443528056-8.974317331008933,1.171314162073031-10.717865448804332,10.144782042048064-20.858271396728014,20.74521613107936-31.355670621283934,31.101411159149393-.010545928853389-9.944975930561668.007598153096296-20.263361401605835-.000017054320779-30.231744659356082.000023654803044-.687849787770574-.819392682311445-1.045437602750098-1.322278352971807-.576109102622468-6.227845509993131,5.819974961369553-11.887657976673836,11.288540387252397-17.453980077170854,17.226849959482024-.635645487993315.594898442571321-1.292642992129913,1.298784988511215-1.267132658788796,2.225759786091658.030819375288957,8.146786622553009-.022245528520216,16.673234253318697.000048789651373,24.788400014115723C.0288448750116,109.714520803471714.102063510526023,124.979584607673132.000005269487701,141.125943238938817c-.002924456818619,1.031641030198443,1.212074041567575,1.582192862992088,1.988234449901938.902586228343353.467029945106333-.408931769599803.89940852039399-.797054104633389,1.136984005966042-1.030075260297053,2.411401585615749-2.310672346954561,4.785843486204612-4.66419947432405,7.145111923869081-7.027773894712482,2.359883578055815-2.36408703737834,4.720536081595128-4.729404355532097,7.027722633013582-7.145060662168362,1.16246630704245-1.307657568471768,2.871472255562367-2.492516666100528,2.793498766128323-4.438766338762434.080072139138792-4.00723815058609-.057610130664216-9.212542712711183.000233909601775-13.164233619335391-.00433838464869-9.340233263586924.002825865510204-18.813082680858315-.000184374818673-28.163240967341153,6.507752231238555-7.418818955281495,15.091583040425576-13.355431290959132,25.349148579500252-12.981329483281115,14.160447850807941.181115514833436,28.325796239020747.170423022227624,42.485313793782552.413140715236295,3.0437549841281.060646860862107,5.937241454469586,1.235307135163566,8.140851919612032,3.207836321706964.4761853780401.426250270297714.173900774499998,1.216200007645057-.465193746825207,1.216200479117106-13.991713449604504-.002375958068114-28.176159290603209.001762880429851-42.181432950239468-.000064909570938-1.562815450345624.192910255574134-16.705969442066817,15.95426592637159-19.268280600928847,18.627875246244912-.754315659160056.787080589128891-.740186475141854,2.031836309479331.030687048476466,2.802707231242493,8.471375003028697,8.471418631268534,16.942802649696205,16.942854878394428,25.414204952995533,25.414167765838101,7.109314747478493,7.109283387043433,14.218627929830291,14.218677847721665,21.327942459053702,21.327942565561898.475349781298974.475400950501353.493496422765929.589201922417487,1.125809480706266.589201922417487,28.731855143541907-.000000190876563,108.605466640638042.581811733392897,119.52104929827965-.318272740886641,3.36547428769245-3.058451257780689,6.568473710230137-6.297646844073824,9.793170260672923-9.503035490845832,2.359861402480419-2.364110252485261,4.72056516772318-4.729427570638109,7.027700457439096-7.145186400672173.509728961824294-.536481648756308,1.018961023671181-1.073546857885049,1.528921373887897-1.609897936634297.556646056652426-.52937528327584.181973671301421-1.467034287910792-.58620144077031-1.467034287910792-8.348146748966428-.005432322939669-86.936536551327663.012643719639527-117.778229998309143-.00027008743109Z"/>
        <path d="M149.193333475129293,72.915228596734778h-27.65179075524793c-2.18796736823424.028955252360902-3.219342912123466-.317496286453206-4.659124566121136.996117336188945-4.970157603490406,4.63934387628251-9.732323578175055,9.509844733224782-14.498512572706204,14.360645025282793-6.072761917198477,5.292155537058534-10.930056657844943,12.989254212398919-6.301074029641313,20.849647625833313,2.563493469256173,4.556585537234241,7.248915286993906,6.924670987140416,12.386772860659221,6.924670987140416h36.815075771218289c.339506232893655-.230267552189616,11.916179474997989-11.473193039761099,17.249920948781437-16.966339786446952.457298559226729-.730649711229489,3.349907147420708-2.620808445645707,1.532464918936057-3.077078098979655-8.518059478099531.008901959184186-26.004461652863029-.006430761994125-34.284867497201958.000010525944163-3.108477314575794.148653147488403-6.320318589394446-.315007801082174-8.96929395895495-2.016060280733655-.477276922831152-.294094021493038-.27428657989276-1.028186202413963.286359199580147-1.028186263135467,14.325077865796629.00001709220669,28.652890198930436-.000012769549357,42.977596518387145-.000000175817149,6.665202095529821-.362817423870183,14.457789342531214,1.605500134082831,19.773790234879925-3.519218202385673,6.634516855941001-6.114163557085703,14.246344806935667-13.755919854430431,20.253599823107834-20.262109265152503,5.658842833003291-5.769319556885421,4.151425998917148-16.12727625671323-3.124632756045685-19.805751690278157-2.165164493640987-1.153106588536502-4.485371516622763-1.460471736117142-6.890826745144295-1.460471736117142h-50.303669169009481c-.496233899538311-.000012381856322-.979636608820329.175935118479174-1.349207959804517.507092416620253-5.690744311642447,5.322377724407488-19.887307211250118,19.017581507590876-17.988214731664812,19.536371701867211.000150916206621-.000038017459701,41.800196697387946-.087182149942237,50.603419539139395-.000037261534999,3.459944879862633.034208622061669,6.743837540491768,1.455459215108931,9.086186975334385,3.90584233808022.379162167783761.396649860602338.100354237193642,1.054854227338183-.448367059453631,1.054854254094607-11.182475013844851-.009726683752888-23.376610218797396.007011814059297-34.495604989027925.000000549529432Z"/>
        <path d="M441.184524733456783,72.915228660201137l-62.049498633185067.000001917776899c-.740846885119026.00000002289562-1.127321431200471-.881066767168704-.625952306179897-1.426486887501596,7.558887490282359-6.69383832355561,7.873649399572969-16.865031549245032-.96110772240354-22.117414729582379-3.48756992849485-1.895154329175966-7.46686402476189-1.392314730129328-11.275951702653401-1.460224373251549-15.306297105104022.000000202232513-30.612562371863532-.000000127809471-45.918840902137163.000000010855729-1.3677668683722-.157646381689119-13.312054323734628,12.157938151737653-17.950025691694464,16.96636810630298-.687218827994002.790489764921404-3.056285758462764,2.578340177547943-.942591703533253,3.077141101444795-.000013914281226-.000082351215497,41.540138564927474-.000082351215497,45.73370438015445-.000082351215497,4.324949940039005-.177066019127778,9.113984455545506.1675378678774,12.282292948293616,3.50681620956766.542121005892113.530585475282351.157674530428267,1.453922736655841-.60099458487457,1.453962979167954-10.935049287798392.215618947815528-59.471340231049908-.420243130088238-64.402372400558306.241087432633321-1.917184600619294,1.859295687708254-14.412575753685815,13.974932062397784-15.521216625302259,15.115605278771-6.067814222062225,5.285478910007441-10.933029780173456,12.993853302303251-6.301078575199426,20.849627450333173,2.56348557313504,4.556593315770442,7.248856129172054,6.924678765676617,12.386764964538088,6.924678765676617,9.017035388544173,0,36.481857381195368.000004939734936,36.481857381195368.000004939734936,2.653700262797429-1.607642674331146,14.34081047392101-14.181925569374471,18.990254848535187-18.597247579325995.528055334672899-.538442319096248.146029161114711-1.446189103976394-.607917526203892-1.446188996584169,0,0-33.551682092256669.000003972603736-33.551681962484508.000004781673852-2.700988219983628.106287809247078-5.488624819088727-.164707534868285-7.908101652721598-1.426782411712338-.809975744447001-.402763424641307-.53566219671302-1.617444637442532.36894974894858-1.617444638986854.708139884131015-.322442707481059,124.15932361650448.531994268035305,124.632096523320797-.248623962168494.00064303950785-.00050834285048,18.342868727371751-18.342757486146184,18.342868727371751-18.342757486146184.535840548658598-.535841233881001.156335922481958-1.45204558088335-.601457533226494-1.452045557463862Z"/>
        <path d="M468.966477837195271,56.093907096074872c0-2.201943515581661.032543856008488-4.700150894381295.014655954593763-6.990857694199804-.005151785182534-.659732468430775-.540301743325472-1.191965820707992-1.200054326331156-1.191962611237614-8.515427664860908-.129558081303912-17.237716884312249.66508999036796-25.611405560623098-1.203959652171761-21.194930707439198-4.543580169031884-37.513675663096365-24.480902060203334-37.719026196356936-46.165526088645493-.010797839693623-.493617500537766-.616112806064848-.727576490026877-.954022104482647-.366309916959835-5.594443761541697,5.228652799843985-10.975830686593326,10.687447001368128-16.30957699863211,16.180494557926068-1.040736402548646,1.27527608570108-2.845959508234955,2.292948681550115-2.782015646183936,4.129843336773774.199184731560308,20.375187533234566,14.518980274599016,39.403968080756385,34.03103914654821,45.271554893859502,9.634019433782669,3.137471650946281,19.433411669757334,2.013881054604099,29.492204925722035,2.172411234030733.549411044039516.002475154891727.993159907100562.446536001498316.993374946359836.995960843542889.00052541581681,1.342436274320789.001399002434482,3.707413531027669.001399002434482,4.660175621483177v14.354648396654738c.116529200693549,3.987961433241253-2.293024566379245,7.249831284815627-5.156853180231337,9.773884752609774-.753928291902412.754305669408495-10.057772886702878,9.985512436637691-9.821046360431865,10.222238962909614,7.491081007634421-6.687327627639206,16.188639950994911-15.943757293801355,23.337996167805613-22.936883442033832,14.323627216217574-14.753786301524997,11.47570362290935-7.491793011573463,11.683330229809144-28.905713194541931Z"/>
        <path d="M273.172982145537389,88.284818779935449c4.863094866690517-4.500982224508334,9.516683169311364-9.25273668083355,14.14274393953383-13.992803469772298,4.740551740414958-4.336846036266252,10.085471894310103-10.172498950873887,7.921074522577328-17.156859909491686-3.754563325181152-12.972966227105644-19.363777708265843-8.503053242295209-29.518805807831086-9.224179742511296-8.867609084756623.000128939917886-31.486218655823905.000128939917886-33.927864643887006.000128939917886-.352057628810144.014387677741979-.648337402246398-.268446475277415-.647536781547387-.621219366465084-.000000620824721-15.576438681699983-.000001275051545-31.154026675416389-.000001000178599-46.730418511655444-.406021849030367-1.76491266451103-2.435711044416166,1.262124818090342-3.077060972358595,1.623315519044809-5.333211062916234,5.158249842153054-10.59188993101543,10.398483082614803-15.699254088791349,15.780596566821259-.579485820757327.577227529435731-1.289832165664848,1.204001276029885-1.267109756182435,2.090099947289673-.0089314784218,12.376716051971925.009818894963246,35.657835494671417.159568880304505,46.470080462861915.007028910019471.79328663409251.652057902694651,1.430972239055336,1.44530831427528,1.430972239055336,14.424355648467099-.006435405116463,29.880749843046942.004638499304747,44.238975656635375-.00001408728258,5.058618707653295-.101127358780104,10.979915360707309-.466951555922606,14.691018395858919,3.447803814668077.578275762794874.54399366067355.204308397067507,1.512907099121549-.589784185372991,1.512907110348351,0,0-46.152065240692536-.000606907399742-58.60943602716452.000117691596643-.775142180385046-.000018253804228-1.522057760029384.284745181974358-2.100551118764997.80068092786496-8.590588814395232,7.704387976908038-16.25400702753268,15.936741289902784-24.435132195943879,23.998297705931691-.754024304267659.754245820991855-10.057920160767026,9.985452588221051-9.821193634495103,10.222179114492974,6.186528186612122-4.738043328315143,12.993109002321944-15.714191578422287,21.978244324205662-14.977488725604417-.000083019941485-.000358119350494,39.615056964019459-.00035972821388,56.751626087534532-.00035955282965,5.776379127542896.0758273425472,12.643546010678619.865964580920263,17.110950100624905-3.541465741983302-.119644805612552.202996328289373.300598603304024-.176750338368038,1.254219990967613-1.132370932297817Z"/>
        <path d="M277.565938919209657,18.767391943572875l-11.530399728057091.000000522485607c-3.400033580777745,1.834522854634088-12.865772529077731,12.639610907392125-18.310803851247329,17.689375480173112-.862662462253866.874087120486365-.24280194874882,2.354053732014108.985135939436077,2.35405367648309.562523873908503-.155245598482907,12.419413754912966.405041907574741,12.490825124583353-.387614885268704,2.213152893691586-2.142466492248786,12.661728079190652-12.55673662045956,17.350043385868048-17.302309050206532.862997989870564-.873537550222864.243137801408011-2.35350579930946-.984800870583058-2.353505743666574Z"/>
      </g>
      <g>
        <text class="cls-1" transform="translate(225.872058013336755 130.599900350493044) scale(1.169950008392334 1)"><tspan class="cls-5" x="0" y="0">REBE</tspan><tspan class="cls-2" x="30.499266576810953" y="0">L</tspan><tspan class="cls-5" x="36.914805122183537" y="0" xml:space="preserve"> REBE</tspan><tspan class="cls-3" x="70.062588977743815" y="0">L</tspan><tspan class="cls-6" x="76.477292818647811" y="0" xml:space="preserve"> 88</tspan><tspan class="cls-5" x="0" y="14.328125">N</tspan><tspan class="cls-7" x="7.953898880933565" y="14.328125">A</tspan><tspan class="cls-5" x="15.028019252002082" y="14.328125">TIVE</tspan><tspan class="cls-5" x="0" y="28.65673828125">HG</tspan><tspan class="cls-4" x="16.573057223311565" y="28.65673828125">A</tspan></text>
        <path d="M331.622564201350542,146.00937066975348h-3.602585122811433v-6.220225430671235c0-.042872343877207.017676960904282-.132210742814095,0-.172072565486815-.002316997995877-.005217185965193,0-.016282033539937,0-.022366123517713-.052195502483301.035401207484028-.100387484621024.075672839326216-.144568065463318.120814895527474-.111692701033462.100529341641959-.221190558728267.203422966949802-.328493573080777.308665114039286-.370719679425747.355225740440801-.735772958987582.717071475160083-1.098485597718536,1.080430351426003-.362803269605138.363469209506547-.725732634338783.727111799814338-1.080438232371307,1.09849347866475-.022610432830334.023816217501007-.045220865658848.047616673110497-.067831298487363.071432890611504-.012152418063124-.007471136398635-.024320598018676-.014973796577578-.036461194662479-.022366123517713-2.111360483753742-1.285792030985249-4.6043518160659-1.934772136455649-7.027573137287618-2.305097768602536-1.573671151094459-.240494934892922-3.171489519401803-.359528736720677-4.769055697452131-.359103165660599v-3.662038976160147c0-.079313836175061.022976896798355-.199577065514859,0-.27632171343339-.002876545131585-.00961475359054,0-.024430931254756,0-.034723446164207-.05219550248512.0354012074813-.100383544146098.075672839323488-.144568065463318.120830657417173-.111692701033462.100513579749531-.221186618253341.203407205060103-.328489632609489.308649352146858-.370723619898854.355241502333229-.735776899460689.717087237050691-1.098489538193462,1.08044611331843-.362799329128393.363453447612301-.725728693865676.72709603792191-1.0804342918982,1.098477716772322l-.234678797065499.247162214842319c-.072650496700589.068958273702265-.137585547692652.144252827642049-.194801212499442.225899423703595v1.041214766291887c-.422217718225511.040996678834745-.843339985020066.090063445926717-1.262830896079322.147815015033302-2.478265785526673.341229181119161-5.021044991452072.966361545305517-7.206919815533183,2.221701602625217-.436643789085792.250755926019337-.856382949932595.531364873843813-1.250524799577761.844963459804603-.221407284732777.17617065718332-.430993151114308.3663221118004-.637198091850223.559925420575382-.374628628425853.351726600611073-.746380711718302.70807143532511-1.113963774809235,1.068987218464827v-4.791819808721812c0-.042872343877207.017669079958068-.132210742814095,0-.172072565486815-.002316997995877-.005217185965193,0-.016282033539937,0-.022366123517713-.052203383429514.035401207484028-.100387484621024.075672839326216-.144568065463318.120814895527474-.111696641506569.100529341641959-.221194499201374.203422966949802-.328493573082596.308665114039286-.370727560370142.355225740440801-.735780839935614.717071475160083-1.098493478666569,1.080430351426003-.362799329130212.363469209506547-.725724753388931.727111799814338-1.080430351425093,1.09849347866475-.0782262656885.082387404948349-.15645253137518.164774809895789-.23467879706368.247146452949892-.072654437173696.068958273704993-.137585547690833.144268589531748-.19480121250308.225915185596023v3.333198641472336h-.975511323104001c-.168597068495728,0-.344420964072924-.014343320933222-.512545175832201,0-.021381005319199.001828379368817-.043652557491441,0-.065167538887181,0-.081835738756126,0-.481636107318991.437707716735531-.473061638545914.429480009564941-.370719679423928.355241502333229-.735772958987582.717071475158264-1.098485597714898,1.080446113316611-.36279932913385.36345344761412-.725732634336964.727096037921001-1.080438232374945,1.098477716774141-.078226265686681.082387404945621-.15645253137518.16477480989397-.23467879706368.247146452949892-.072646556225664.068974035592873-.137585547689014.144268589531748-.194801212501261.225915185594204h4.634689516024082v6.220225430671235c0,.042872343878116-.017684841846858.132210742812276,0,.172072565486815.002309117053301.005217185965193,0,.016282033539937,0,.022366123517713.052195502486938-.035401207484028.10037960367481-.075672839326216.144568065465137-.120830657419901.111688760560355-.100513579749531.221186618256979-.203407205057374.328485692136383-.308649352146858.370727560371961-.355241502335048.735780839933796-.717071475160083,1.098485597720355-1.08044611331843.362807210074607-.36345344761412.72574051527954-.72709603792191,1.080438232371307-1.098477716772322l.067523941610489-.071117652789326c.726213372015991.447889898408903,1.507301768007892.808537729400996,2.302520699402521,1.1125688474458,1.213744426619087.464030074926086,2.476098525492489.797677786411441,3.751558636842674,1.04119900439764,1.898929596021844.362586543601537,3.840305964860818.534091681011887,5.779321990505196.531286064388951v3.663236879883698c0,.079313836177789-.022976896796536.199577065517587,0,.276321713436118.002880485602873.00961475359054,0,.024446693147183,0,.034723446164207.052195502483301-.0354012074813.100383544147917-.075672839323488.144568065461499-.120830657417173.111692701035281-.100529341639231.221190558728267-.203407205057374.328489632611308-.308649352146858.370727560370142-.355241502333229.735776899462508-.717087237050691,1.098485597718536-1.08044611331843.362807210076426-.363453447612301.725732634336964-.72709603792191,1.080438232371307-1.098477716772322l.234678797065499-.247162214842319c.072654437175515-.068958273702265.137585547690833-.144268589531748.194801212501261-.225899423703595v-1.042633336493054c.068107131581201-.006509661037853.136214263162401-.01298779829358.204254406706241-.019907268499082,2.586175632688537-.263065962994915,5.223053328672904-.820816242590809,7.567772551108646-1.977108576037608.464735419556746-.229177897060254.91728689726915-.484615104745899,1.346692037848698-.774980663178212.538268582160526-.363989351912096,1.01694933489307-.78678631963794,1.485905000798084-1.235669217187024.290113368177117-.277692997963641.579351951393619-.557340470426425.866817321861163-.839084274412926v4.7965956617345c0,.042872343878116-.017676960904282.132210742812276,0,.172072565486815.002316997995877.005217185965193,0,.016282033539937,0,.022366123517713.052195502483301-.035401207484028.100387484621024-.075672839326216.144568065461499-.120830657419901.111696641508388-.100513579749531.221194499203193-.203407205057374.328493573084415-.308649352146858.370723619897035-.355241502335048.735772958989401-.717071475160083,1.098485597718536-1.08044611331843.362807210078245-.36345344761412.725732634336964-.72709603792191,1.080438232369488-1.098477716772322.078226265692138-.082387404948349.156452531378818-.164774809895789.234678797067318-.247146452949892.07265049669877-.068974035594692.137585547690833-.144268589531748.194801212499442-.225915185596023v-3.333198641472336h.975507382636351c.168601008965197,0,.344417023597998.014343320930493.512549116303489,0,.021381005319199-.001828379370636.043652557487803,0,.065163598410436,0,.081831798284838,0,.481640047795736-.437707716735531.473057698072807-.429480009564941.370727560371961-.355241502333229.735776899460689-.717071475158264,1.098489538193462-1.080430351426003.362803269605138-.363469209504728.725728693865676-.72711179981161,1.0804342918982-1.09849347866475.078226265686681-.082387404945621.15645253137518-.16477480989397.234678797065499-.247146452949892.072654437171877-.068974035592873.137585547692652-.144268589531748.194801212499442-.225915185594204h-1.032096512268254ZM317.283026125078322,143.441002033572659c1.84922841280968.439709476909229,3.71753659483511,1.079500399848257,5.302765152600841,2.151450853847564.190955311065409.129121412152017.381689955653201.268204339500699.567412318861898.416917782333257h-9.686131314525483v-3.191688382888969c1.284854198462199.12163451386732,2.561642249142096.325057480815303,3.815953843062744.623319746708148ZM302.961566937936368,143.572487729395107c2.312411286087809-.605965904571349,4.713199495752633-.871805960403435,7.100645264574268-.89475527389277.107764049671459-.001024522923217.215575385014745-.001402808310559.323398541775532-.001434332090867v3.333072546342009h-11.470113378994938c.00119790372446-.328446287408951.059217424983217-.652652626105919.164199500866744-.962925453040043,1.214895044677178-.66664918542574,2.552914101928764-1.125714264648195,3.881870071778394-1.47395748731833ZM304.419928033979886,151.034151229403506c-.964572570657765-.33798223154281-1.909190587146441-.751716111868518-2.781516689959972-1.287163315513681-.324316671933047-.199072684997191-.64127254070263-.416523735056217-.939881568201599-.656151765936556h9.687080968467853v3.190868764549123c-2.027747591770094-.188575265500731-4.046396631883908-.575025312276011-5.965682710306282-1.247553683098886ZM320.145164888177533,151.710273311404308c-2.184724206026658.498233378682926-4.435128212404379.718836806965555-6.678092606161954.715290381462182v-3.334727544913221h11.471441318322832c-.001497379658758.33401023497936-.062338279425603.657412717227089-.16829759256143.965951736135139-1.435837353619718.790316983252524-3.045071271579218,1.293152834145076-4.625051119599448,1.6534854273159Z"/>
      </g>
    </g>
  </g>
</svg>