<?xml version="1.0" encoding="UTF-8"?>
<svg id="Layer_2" data-name="Layer 2" xmlns="http://www.w3.org/2000/svg" viewBox="0 0 428.149623504432384 165">
  <g id="Layer_1-2" data-name="Layer 1">
    <g>
      <path d="M158.743303600327636,87.447548468362584h-91.657157106366867c-.728752209583035,0-1.508336849765328-.079021323928828-2.233854268311916,0-.089742345655395.009704373114801-.185492160384456,0-.276158732051044,0-.285678259964698.193717771880983-.549359940871.414053252878148-.79113746531948.661191288189002-.611283083599119.550099321677408-1.210551229058183,1.113230230110275-1.797804436375372,1.689207880095637-2.028860939095466,1.944109413898332-4.026760306827782,3.92435606482104-6.011720510407031,5.913013172445062-.6276418839916.628658532605186-8.52090170736119,8.31895832398186-8.263504763330275,8.600662412101883,3.126564172225699,3.421392269698117,6.253035921850824,6.842876961998627,9.379507671475949,10.264361654297318.999550430771706,1.09372906128192,1.999008438944657,2.187550545164413,2.998558869716362,3.281372029048725H26.092933584532148c-3.280170535235811-.001201493814733-4.917806603923964-3.973802156404417-2.598369007006113-6.293239753324087l6.752025545127253-6.75193312252668c6.161999659780122-6.161999659778303,12.323999319556606-12.323999319556606,18.485998979334909-18.486091401935482,5.325297852121366-5.325297852121366,10.650688126846944-10.650595704246371,15.975893556367737-15.975893556367737,2.583951081234773-2.583858658634199,5.168364275476051-5.167070359060745,7.751575975900778-7.751575975900778.035397856217969-.035305433615576.070795712435938-.070703289833546.106193568652088-.106101146049696.634573579072821-.634573579072821,8.462583046071813-8.401584129356706,8.263412340727882-8.600754834702457-.191592052056876-.191592052056876-8.511289756848782,8.1740396854766-8.600662412101883,8.263412340729701-2.121283540183867,2.121283540183867-4.242567080371373,4.242567080369554-6.36385062055524,6.36385062055524-5.094056504198306,5.094056504198306-10.188020585797858,10.188020585796039-15.282077089996164,15.282077089996164-6.161999659778303,6.161999659778303-12.323999319554787,12.323999319554787-18.485998979334909,18.48599897933309-5.325297852123185,5.325390274725578-10.650595704244552,10.650595704246371-15.975893556367737,15.97598597897013-2.583858658634199,2.583766236033625-5.168364275476051,5.167070359060745-7.751575975902597,7.751483553298385l-.10619356864845.106193568652088c-1.986623810400488,1.986623810398669-3.972323394787963,3.979809625474445-5.913013172445062,6.011812933009423l-1.284304464728848,1.352512344330535c-.397602029881455.377453902845446-.752966931067931.789566281098814-1.066094703555791,1.236429557362499h72.409595894063386c.926259308107547,0,2.045404584690914.173292377039616,2.960018645062519,0,.04038867667623-.007671075889448.08909538745138,0,.130685557940524,0,.285678259964698-.193717771880983.549452363471573-.414145675476902.791229887918234-.661283710789576.611283083599119-.550099321677408,1.210551229058183-1.113230230112094,1.79771201377298-1.689207880093818,2.028953361699678-1.944109413898332,4.02676030683142-3.924356064822859,6.011812933011242-5.913013172445062.627549461391027-.628658532607005,8.520809284758798-8.318958323983679,8.263412340727882-8.600662412101883-3.126471749625125-3.421392269699936-6.252943499248431-6.842876961998627-9.37950767147413-10.264269231696744-.999458008171132-1.093821483882493-1.999008438944657-2.187642967764987-2.998466447117607-3.281464451649299h62.895983028409319c.534942015099659,0,.458046410994939-.031516106972049.458046410994939.537252580128552v29.87264827864783c0-.130962825742245,2.883123040957798-2.632380524204564,2.588941901693033-2.350491590883394,2.028860939095466-1.944109413898332,4.026667884227209-3.924356064822859,6.011720510407031-5.913013172445062,1.985514739186328-1.989026798028135,3.971768859180884-3.979162667268611,5.913013172445062-6.011720510410669.428101488243556-.450837448108359.856202976485292-.901767318819111,1.284304464728848-1.352604766929289.397602029881455-.377361480244872.752966931067931-.789473858498241,1.066094703555791-1.236337134761925v-29.926253387282486c0-.108504133677343.046396145746257-.421447060962237-.023845031082601-.483555048895141-.17449387085253-.154438166417094-1.221919208990585,0-1.437448714728816,0Z"/>
      <path d="M428.145851090832366,112.969680068570597c-4.744976339887216-4.744976339887216-9.489952679772614-9.489952679776252-14.234929019663468-14.234929019661649-3.165658932486622-3.165751355089014-6.331317864971425-6.331410287575636-9.497161642659194-9.497161642662832l-2.922957182025129-2.922957182026948c-.302037060358998-.302037060357179-.590025885352588-.698807286829833-.968588859412193-.833282171415703-.36950555914882-.131240093545784-.986333998816917,0-1.378575517837817,0h-15.744374940641137c-.278746564881658,0-.681339415225011-.070610867231153-.957128456871942,0-.186693654199189.04787490736453-1.5900384291308,1.389296539564384-1.240680997014351,1.06609470355761-1.743090256530195,1.61240469859149-3.430172416801724,3.291076402163526-5.116884886669141,4.961799762042574-.771913564291026.764889446609232-1.542718057367892,1.53190461304257-2.311674098424191,2.299844005488922-4.827602145262063,4.820115914571943-9.647810482438217,9.647625637233432-14.47153087845254,14.471438455848329-2.580623867592294,2.580623867594113-5.161155312587653,5.161155312589472-7.741779180185404,7.741779180185404h-12.669012889418809c-.689380181518572,0-2.442359656368353.306565767808934-2.722954673270578-.231056502721913-.164050116934959-.314421688903167,0-1.195763612884548,0-1.535971207491457v-26.138590349468359c0-1.317946291523185.33882125558921-3.159743886017168,0-4.442199898719991-.048337020369217-.182996750156235.049723359383279-.327083585254513-.062107987934723-.421447060965875-.189096641825017-.159613832078321-1.215264781712904,0-1.452606021308384,0h-15.388917616855906c-1.672664234500189,0-3.649583671785877-.293626603657685-5.302746737455891-.001571184218847.555737100345141-.555737100345141,1.111566623292674-1.111474200690282,1.667303723637815-1.667211301035422,5.458016707287243-5.458109129887816,10.916125837175059-10.916218259775633,16.374234967061057-16.374327389663449,1.255376190587413-1.25528376798502,2.510752381171187-2.510659958570614,3.766036149158026-3.766036149156207.63457357907464-.63457357907464,8.462583046075451-8.401584129356706,8.263412340729701-8.600662412101883-.191592052056876-.19168447465745-8.511289756848782,8.173947262874208-8.600662412100064,8.263319918127308-3.42314829911993,3.423240721722323-6.846389020842253,6.846389020840434-10.269537319960364,10.269537319958545-5.458109129887816,5.458109129885997-10.916218259773814,10.916218259775633-16.374234967059238,16.37432738966163-1.255376190587413,1.255376190587413-2.510752381174825,2.510659958572433-3.7661285717586,3.766036149158026-.223015736428351.223015736426532-1.334952050125139,1.32746581943502-2.674432807702033,2.674432807700214-.091683220280174.091775642880748-.183458863159103.183458863160922-.275142083441096.27523450604167-3.419358972472764,3.419266549872191-6.838717944947348,6.838625522346774-10.257984494819539,10.257984494821358-.720896288490621.720896288490621-1.441884999583635,1.441792576981243-2.162873710676649,2.162688865473683-4.952742347133608,4.951910543724807-12.982325507109636,4.95117116291658-17.93469816383913-.001201493812914-7.91377764081335-7.913685218212777-15.82746285902067-15.827462859022489-23.741148077233447-23.741148077231628-5.724193798418128-5.724101375821192-11.44829517423932-11.448295174242958-17.172488972661085-17.172396550062331-.534757169896693-.534757169898512-1.269794116355115-1.627284737367518-1.986069274791589-1.856215520263504-.867570956419513-.277360225865777-2.290047209773547,0-3.187193398542149,0H85.236096895736409c-1.430332174444629,0-2.934787274965856-.133458235970465-4.360498319358157-.000924226011193-.182072524145042.016913335999561-.369228291348918.045749187540423-.5471417984445.003419636241233-.388821882779666-.09242260109022-2.659830036729545,2.393745368193777-2.612047551967407,2.34790375805278-2.028860939095466,1.944109413898332-4.02666788422539,3.924356064822859-6.011720510407031,5.913013172445062-1.985607161786902,1.989119220630528-3.971768859180884,3.979255089869184-5.913013172445062,6.011720510410669-.353054336159403.369690404353605-2.014350590725371,2.588941901691214-2.350399168284639,2.588941901691214h147.499909332700554c.702134500470493,0,.923579052678178-.066636695384659,1.436154798315329.294828097474237,1.678302013166103,1.18337898433856,3.133773135112278,3.133773135110459,4.579909574344128,4.579909574342309,2.958170193040132,2.958170193041951,5.916340386082084,5.916340386085722,8.874510579127673,8.874510579127673,7.709431269800916,7.709431269802735,15.418862539607289,15.418770117006716,23.128201386807632,23.12820138681127h-63.708008001571216c-.577086721197702,0-1.399740293485593.152589714396527-1.960837904693108,0-.345475682870529-.093901362706674-.221352129608931-.153051827403033-.221352129608931-.611930041808591v-34.985651416072869c0,.130962825744064-2.883215463558372,2.632380524206383-2.588941901693033,2.350399168284639-2.02895336169604,1.944201836500724-4.026760306827782,3.924448487425252-6.011812933007604,5.913013172445062-1.985514739188147,1.989119220630528-3.971768859180884,3.979255089869184-5.912920749846307,6.01172051040885-.42819391084231.450929870710752-.856295399085866.90176731882093-1.284396887327603,1.352604766931108-.397602029883274.377453902845446-.75296693106975.789566281100633-1.066094703555791,1.236337134761925v35.012176702584838c0,.081794001964226-.062107987931086.521448315341331,0,.584110838879496.10730263986261.108319288476196.867570956417694.00138633901588,1.01156536891358.00138633901588h49.449326373429358c.802043332245375,0,1.604086664494389.001478761616454,2.406314841940912.00388174924592,5.514856606956528.016636068196021,8.26285780512444,6.688808485982008,4.363270997391737,10.588302871112319l-1.947713895337074,1.947713895340712c-.99252631309173.992526313089911-1.984960203579249,1.985052626181641-2.977486516670979,2.97748651666916-.634481156474067.63457357907464-8.462583046075451,8.401584129358525-8.263412340729701,8.600754834702457.19168447465745.191592052056876,8.511289756846963-8.1740396854766,8.600662412103702-8.263412340729701,2.706595872874459-2.706595872876278,5.413191745756194-5.413191745756194,8.119787618634291-8.119695196033717,4.340257769719756-4.340350192322148,8.680607962041904-8.680700384644297,13.020958154364052-13.021050576966445l2.977486516670979-2.97748651666916c1.986623810398669-1.986531387798095,3.972323394787963-3.979809625478083,5.912920749844488-6.011720510410669.42819391084231-.450837448108359.856295399087685-.901767318819111,1.284396887327603-1.352604766929289.012661896349528-.000184845202966.019593591428929-.000277267805359.032255487778457-.000462113004687,4.337669936890961,4.337762359489716,8.675339873783741,8.675339873780104,13.013009810674703,13.013102233271638.260077199462103.259984776861529.520061976321813.520061976325451.78004675318698.780046753185161.196952562917431.196952562922888,8.536705972148411-8.199363478173836,8.600754834702457-8.263412340727882,8.168586752011834-8.168586752011834,16.337173504021848-16.337173504023667,24.505760256033682-24.505760256035501h18.813821945397649c.435495296327645,0,3.05576845979158-.343072695241062,3.394220024976676,0,.285216146958192.289005473603538,0,2.306775700570142,0,2.689405269076815v28.312739617475017c0,.63623718589588-.214420434524072,1.523586578945469.2426093278591,1.767027710211551.385771936942547.205547864823529,1.542995325173251,0,1.960006101282488,0h11.56816728785634c.568491419295242,0,1.311846399848946.129021951121103,1.869247107013507,0,.831064028989204-.192331432865103,2.17424169061087-1.867583500195906,2.678129711746806-2.350399168281001,2.043463710069773-1.958065226663166,4.050975028312678-3.954208564975488,6.053125835693209-5.954326075132485.602872626901444-.602318091294364,1.205190718197628-1.205190718195809,1.807786077293713-1.807786077293713,3.140335139787567-3.140335139785748,6.280670279575133-6.280762702175707,9.421097841966912-9.421097841963274l3.224624551978195-3.224716974582407c4.983241805495709-4.983056960292743,11.741736932699496-7.782537547263928,18.788775420498496-7.782537547263928h4.221494727324171c.704999601102827,0,1.668412794851974-.173939335250907,2.355482411343473,0,.529951194643218.134105194178119.748068533212063.448804150884826,1.1783881638803.879031358952489,3.248469583060796,3.248377160460223,6.496569475719298,6.496754320920445,9.745039058780094,9.745131481380668h-15.252686702851861c-.623298021740993,0-1.411108273417994-.131517361349324-2.024054963840172,0-.024214721486715.005175665661227-.052865727820972-.00609989167242-.077265294510653,0-.667845715466683.167100062768441-1.415729403472142,1.236521979964891-1.912408461723317,1.708246935921125-1.497615828038761,1.421921717746955-2.971941160607457,2.867780889177084-4.44053629190239,4.319555107076667-.826442898935056.817015793621977-1.647710132207067,1.636249729672272-2.468977365480896,2.457054849939595-.629213068210447.628566110004613-1.257686755612667,1.257686755612667-1.88653013342082,1.88653013342082-6.023365758144791,6.023273335542399-12.046731516287764,12.046639093689009-18.07000485183562,18.069912429231408-5.011707966627,5.011707966630638-10.023508355860031,10.023508355860031-15.035216322487031,15.035216322490669-1.986993500804601,1.986901078202209-3.968718913345583,3.982674726108598-5.912920749846307,6.01172051040885-.248894064729029.259799931658563-2.080987286106392,1.839117339059158-2.332099493267378,2.54208364294027.248801642132094-.510727293616583,2.411767775409317-2.150858772534775,2.570549804080656-2.303540909531876,2.025995838459494-1.948360853548365,4.024264896597742-3.925557558635774,6.011720510405212-5.913013172445062,6.177341811557199-6.177249388958444,12.354591200517461-12.354591200515642,18.53193301207466-18.531933012076479,5.389716405083163-5.389808827680099,12.699974460781959-8.417758084546222,20.322436062962879-8.417758084546222h38.840228417075195c.447879924871813,0,2.635892583044551-2.395408975013197,2.588941901691214-2.35039916828282,2.028860939097285-1.944109413898332,4.026667884229028-3.924448487423433,6.011905355611816-5.913013172445062.6179375108768-.619139004693352,8.463692117287792-8.400105367740252,8.263319918125489-8.600662412101883Z"/>
      <path d="M262.786105901175688,58.799314808935378c2.83811323422924,1.715086208401772,5.896839217255547,1.844662695128136,9.088653745848205,1.844662695128136h21.497774281007878c3.942933007640022,0,7.625234280210861,1.226540339044732,10.329149897657771,4.209017676173971,3.203644621535204,3.53377815262138,4.33988807931928,8.728575292008827,2.730718171767876,13.241293635361217-.359061805233068,1.006944238859433-.850103084814691,1.952981983600694-1.441145618777227,2.839407150642728l-.120241804015677.120241804015677c-4.155135299739413,4.155135299741232-8.310270599480646,8.310270599480646-12.465313476619485,12.465313476621304l-2.942181083057221,2.942181083053583c-.679860653606738.679860653606738-9.067026857193923,9.001684078224571-8.853715493878553,9.215087864136876.205363019618744.205270597018171,9.119338049407816-8.757873256550738,9.215087864136876-8.853715493880372l13.540650440287209-13.540650440287209c2.57609516014054-2.576095160142359,5.152282742885291-5.152282742885291,7.72837790302583-7.72837790302583.473758253179767-.473758253179767.947701351564319-.94714681595724,1.421182336940547-1.421182336940547,2.479513542002678-2.482193797433865,4.949784823898881-4.975108616596117,7.365711616352201-7.519410401964706,1.008238155276558-1.061843263905757,2.011947603099543-2.115923029321493,2.871108102819562-3.302351959497173.77366959371102-1.068312845982291,1.396505502449145-2.235055762123011,1.818876789424394-3.48618051306039,1.599280689233638-4.736565883187723.199170705343931-10.160571073274696-3.371299219908906-13.631501857156763-1.844939962929857-1.79355299672352-4.21068128299521-2.989686300012181-6.746387766461339-3.423425566919832-1.154081019793011-.197414675927575-2.308901420396069-.194457152692848-3.473056503706175-.194457152692848h-22.200186049280092c-1.202325617565293,0-2.393745368195596.00027726780354-3.584518160621883-.214605279727039-2.494486003379279-.450098067300132-4.81669627833071-1.635787616665766-6.634926109545631-3.403369862486215-3.570377502655901-3.470838361279675-4.970672331748574-8.894935973967222-3.371391642509479-13.631409434554371.364792006494099-1.080327784124165.880232852765403-2.094111295466064,1.510185301785896-3.039686927202638,3.487382006875123-3.487382006875123,6.974671591147853-6.974671591149672,10.462053598026614-10.461961175424221.868587605027642-.868587605029461,1.737082787456529-1.737175210060741,2.605670392487809-2.605762815092021.679860653608557-.679860653606738,9.067119279796316-9.001591655622178,8.853623071281618-9.214995441536303-.205270597016352-.205363019618744-9.11924562681088,8.757873256552557-9.214995441538122,8.853623071279799-4.469556988640761,4.469556988644399-8.93911397728516,8.939113977288798-13.408670965929559,13.408670965933197-2.142818006237576,2.142818006239395-4.28563601247879,4.285636012475152-6.428454018716366,6.42854644131512-.132349164759944.13225674215937-.264698329519888.264513484316922-.396955071673801.396862649076866-2.713342722761809,2.715098752178164-5.4291808557482,5.433432295396415-8.049084328808021,8.239382464444134-.775795313536946.830879183788056-1.51776395507477,1.658985689540714-2.183114260309594,2.577851189564171-1.475896516787543,2.037918354002613-2.354558185334099,4.445157421954718-2.470456127099169,6.963950569421286-.218671874175925,4.75033685075141,2.237458749752477,9.461486518641323,6.317269629606017,11.926951825280412Z"/>
      <path d="M8.234853756992379,145.117218250414226h-4.083969896901181c-.189281487029803,0-.745665545584416-.047505216958598-.745665545584416-.465994754687927s.534202634293251-.475606705202154.745665545584416-.475606705202154h2.770829580635109c.367287416725958,0,.712208563987588.190205713040996.8680330694242.475606705202154l2.859924968086489-.009427105311261c-.166915217567293-1.103341011794328-1.26859262254402-1.930708136740577-2.570642226677592-1.930708136740577H3.026840185651963c-1.30204960413721,0-2.503728263491212.408877587216921-2.503728263491212,1.79743474596944,0,1.388557158756157,1.201678659354002,1.883202919781979,2.514818975621893,1.883202919781979h4.084154742104147c.189096641825017,0,.745665545582597.057117167472825.745665545582597.475606705202154s-.545293346422113.475421860001006-.745665545582597.475421860001006c0,0-2.370270027518927-.009427105311261-2.804286562230118-.009427105311261-.367287416725958,0-.712208563989407-.180778607729735-.868033069426019-.465994754689746H.589841040147803c.166915217565474,1.112768117107407,1.268592622540382,1.940135242051838,2.570642226677592,1.940135242051838h5.085646047500632c1.301864758934244,0,2.503728263489393-.418489537729329,2.503728263489393-1.797619591172406,0-1.388557158756157-1.201863504555149-1.89263002509324-2.51500382082304-1.89263002509324Z"/>
      <rect x="12.041001315021276" y="142.711088253674461" width="2.804286562230118" height="6.096379613005411"/>
      <polygon points="19.218725360764438 142.711088253674461 16.414438798532501 142.711088253674461 16.414438798532501 148.807467866679872 25.383867388980434 148.807467866679872 25.383867388980434 147.143121666276784 19.218725360764438 147.143121666276784 19.218725360764438 142.711088253674461"/>
      <polygon points="30.180230695072169 146.639048799939701 27.665226874249129 142.711088253674461 24.237827135479165 142.711088253674461 28.789270548688364 148.807467866679872 31.582466398787801 148.807467866679872 36.133909811995181 142.711088253674461 32.695234515893389 142.711088253674461 30.180230695072169 146.639048799939701"/>
      <rect x="37.002127726624167" y="142.711088253674461" width="2.804286562228299" height="6.096379613005411"/>
      <path d="M45.248257040948374,142.711088253674461l-4.551443413209199,6.096379613005411h3.427399738769964l.667845715464864-1.036611893810914h3.705591768046361l.656570158133036,1.036611893810914h3.438675296101792l-4.55144341320738-6.096379613005411h-2.793195850099437ZM45.682273575659565,146.39172591942588l.956943611672614-1.512218599011248.968219169002623,1.512218599011248h-1.925162780675237Z"/>
      <path d="M66.358873045994187,142.711088253674461h-7.901023321859611v6.096379613005411h7.901023321859611c1.313140316267891,0,2.415002566447583-.827367124944431,2.581917784011239-1.940135242051838.111276811710923-.732356691025416.111276811710923-1.483752437876319,0-2.225536234212996-.166915217563655-1.103341011794328-1.268777467743348-1.930708136740577-2.581917784011239-1.930708136740577ZM66.025042610865057,146.477309248033635c-.088910542248414.390023376594399-.48965494056938.665812418243149-.945852899541933.665812418243149h-3.817053424958431v-2.767687212199235h3.817053424958431c.456197958972552,0,.856942357293519.27578904164875.945852899541933.665812418243149.122552369040932.475421859997368.122552369040932.960455670512602,0,1.436062375712936Z"/>
      <path d="M80.180488193589554,145.373968236239307c.033272136393862-.237710929999594.033272136393862-.485033810513414,0-.732171845824269-.166915217563655-1.103341011794328-1.268777467743348-1.930708136740577-2.570642226677592-1.930708136740577h-7.255728721058404v6.096379613005411h2.804286562228299v-1.49317954318758h2.926838931272869l1.346412452658114,1.49317954318758h3.104844860972662l-1.70260915725521-1.759541479525069c.734389988250769-.332906209121575,1.24641119827902-.960640515713749,1.346597297859262-1.673958150915496ZM76.552531410459778,145.649942123089204h-3.394127602377921v-1.274507669011655h3.394127602377921c.411835110449829,0,.734574833451916.285216146960011.734574833451916.637161411903435,0,.342518159635802-.322739723002087.627734306595812-.734574833451916.63734625710822Z"/>
      <rect x="81.649637860495204" y="142.711088253674461" width="2.804286562228299" height="6.096379613005411"/>
      <polygon points="86.023075344006429 148.807467866679872 88.827361906234728 148.807467866679872 88.827361906234728 147.143121666276784 94.992503934450724 147.143121666276784 94.992503934450724 145.47859062067073 88.827361906234728 145.47859062067073 88.827361906234728 144.375434454077549 95.637983380453079 144.375434454077549 95.637983380453079 142.711088253674461 86.023075344006429 142.711088253674461 86.023075344006429 148.807467866679872"/>
      <polygon points="96.294553538587934 144.375434454077549 99.633042735109484 144.375434454077549 99.633042735109484 148.807467866679872 102.437329297337783 148.807467866679872 102.437329297337783 144.375434454077549 105.786909205991833 144.375434454077549 105.786909205991833 142.711088253674461 96.294553538587934 142.711088253674461 96.294553538587934 144.375434454077549"/>
      <path d="M119.018683313439396,146.439231136384478c-.03345698159319.409062432418068-.43401653471301.713317635203566-.91258076314989.703890529892305h-2.659552768924186c-.4674735163062.009427105311261-.879123781554881-.294828097474237-.912580763148071-.703890529892305v-3.728142882710017h-2.815377274362618v4.156244370953573c0,1.122195222418668,1.26859262254402,1.940135242051838,2.570642226677592,1.940135242051838h4.974184390588562c1.30204960413721,0,2.570642226677592-.81794001963317,2.570642226677592-1.940135242051838v-4.156244370953573h-2.81537727435898v3.728142882710017Z"/>
      <polygon points="130.52548199416924 146.344220702465464 126.664065720688086 142.711088253674461 123.303210254704027 142.711088253674461 123.303210254704027 148.807467866679872 126.107496816934145 148.807467866679872 126.107496816934145 145.17433541788705 129.969097935616446 148.807467866679872 133.329768556399358 148.807467866679872 133.329768556399358 142.711088253674461 130.52548199416924 142.711088253674461 130.52548199416924 146.344220702465464"/>
      <rect x="134.888013610750932" y="142.711088253674461" width="2.804286562231937" height="6.096379613005411"/>
      <polygon points="138.738339172103224 144.375434454077549 142.076828368624774 144.375434454077549 142.076828368624774 148.807467866679872 144.881114930853073 148.807467866679872 144.881114930853073 144.375434454077549 148.230694839507123 144.375434454077549 148.230694839507123 142.711088253674461 138.738339172103224 142.711088253674461 138.738339172103224 144.375434454077549"/>
      <path d="M358.471964188991478,87.889143656364467v3.65743959288011h1.363233366057102v-3.65743959288011c5.503396204423552-.351945264945243,9.858164322511584-4.923536805192271,9.858534012917517-10.515658706655813-.000184845202966-2.448274702835988-.837163920661624-4.699504420152152-2.237366327151904-6.488713554626884,1.40020240649028-1.789116711874158,2.237181481948937-4.040254006587929,2.237366327151904-6.488251441620378-.000369690405932-5.592306746668328-4.355137808493964-10.163898286913536-9.858534012917517-10.515751129258206v-3.65799412848537h-1.363233366057102v3.65799412848537c-5.503118936614555.35185284234467-9.858071899909191,4.923444382589878-9.858441590315124,10.515751129258206.000184845202966,2.447997435032448.837163920659805,4.69913472974622,2.237366327151904,6.488251441620378-1.400202406492099,1.789209134474731-2.237181481948937,4.040438851790896-2.237366327151904,6.488713554626884.000369690405932,5.592121901463543,4.355322653700568,10.16371344171057,9.858441590315124,10.515658706655813ZM359.83519755504858,55.24732940389913c2.263244655458038.166360681960214,4.29506311779005,1.148812931531211,5.807466562002446,2.660107304531266,1.661758367574294,1.662867438786634,2.687464394455674,3.952729803357215,2.687834084857968,6.489083245030997-.000184845202966,2.044665203882687-.667845715463045,3.928884772274614-1.797249900766474,5.45404253543893-1.749744683811514-1.716564970018226-4.095060609031862-2.826467986489661-6.698050746093941-2.992828668449874v-11.610404416551319ZM359.83519755504858,68.224294400146391c2.263244655458038.166360681958395,4.29506311779005,1.148720508928818,5.807466562002446,2.660107304531266.000184845202966.000092422600574.000369690405932.00027726780354.000554535608899.000462113006506-.000184845202966.000184845201147-.000369690405932.000369690402295-.000554535608899.000462113004687-1.512403444212396,1.511294373000055-3.544221906544408,2.493839045173445-5.807466562002446,2.66019972713184v-5.321231257674299ZM359.83519755504858,74.912178660117206c2.602990137062079-.166453104560787,4.948306062282427-1.276448543634615,6.698050746093941-2.993105936253414,1.129404185303429,1.525157763164316,1.797065055563507,3.409377331556243,1.797249900766474,5.454412225844862-.000369690402295,2.536168596470816-1.026075717283675,4.82612338364379-2.687834084857968,6.488990822428605-1.512403444212396,1.511294373000055-3.544221906544408,2.493654199970479-5.807466562002446,2.660014881930692v-11.610311993950745ZM358.471964188991478,73.54552565782069c-2.263059810255072-.166360681958395-4.294970695187658-1.148905354131784-5.80728171679948-2.66019972713184-.000184845199328-.000092422602393-.000369690402295-.00027726780354-.000462113002868-.000462113004687.000092422600574-.000184845202966.00027726780354-.000369690405932.000462113002868-.000462113006506,1.512218599011248-1.511386795602448,3.544221906544408-2.493746622572871,5.80728171679948-2.660107304531266v5.321231257674299ZM349.976663542132883,64.396519953461393c.000369690404113-2.536353441673782,1.026168139887886-4.826215806244363,2.688018930059116-6.489083245030997,1.512218599011248-1.511294373000055,3.544221906544408-2.493746622571052,5.80728171679948-2.660107304531266v11.610404416551319c-2.602805291853656.166360681960214-4.948121217079461,1.276263698431649-6.697865900887336,2.992828668449874-1.12940418530161-1.525157763164316-1.797157478167719-3.409377331556243-1.797434745971259-5.45404253543893ZM351.774098288104142,71.919072723863792c1.749744683807876,1.716657392618799,4.094968186431288,2.826652831692627,6.697865900887336,2.993105936253414v11.610311993950745c-2.263059810255072-.166360681960214-4.295063117788231-1.148720508930637-5.80728171679948-2.660014881930692-1.661850790171229-1.662867438784815-2.687649239655002-3.952822225957789-2.688018930059116-6.488990822428605.00027726780354-2.045034894288619.668030560669649-3.929254462680547,1.797434745971259-5.454412225844862Z"/>
    </g>
  </g>
</svg>