<?xml version="1.0" encoding="UTF-8"?>
<svg id="Layer_2" data-name="Layer 2" xmlns="http://www.w3.org/2000/svg" viewBox="0 0 1104.316387397844665 165">
  <g id="Layer_1-2" data-name="Layer 1">
    <g>
      <polygon points="242.70216668185094 112.409266476537596 192.504593711800226 112.409266476537596 245.097428568347823 165 220.385132671896827 165 167.794360473591951 112.409266476537596 167.794360473591951 87.6969705800866 243.13522178029416 87.6969705800866 252.065397517213569 78.773085950812856 175.347505566443942 78.773085950812856 138.566286882322856 115.547936177602423 138.566286882322856 90.835640281151427 175.820576234834334 54.06079005436186 276.777693413664565 54.06079005436186 276.777693413664565 78.773085950812856 242.70216668185094 112.409266476537596"/>
      <path d="M137.444716461839562,54.06079005436186l-.175325950788647,24.712295896450996h-40.532368967678849l-36.508741530015868,36.008134374059409H0v-24.712295896450996l60.739406726361267-.010558231887444s11.105764520368211-11.107865853462499,11.285318920559803-11.285280245720969h-36.01659127286166v-24.712295896450996h60.728887169312657l40.078274755139319-40.080388979840791v24.712295896450996l-15.365978858688322,15.368093083389795h15.9953990220165Z"/>
      <path d="M450.555825454731348,54.06079005436186l-110.941311278724243,110.93920994563814h24.714461687607582l51.067808483434419-51.067872941501264,100.158765305276575.63999128683281,36.436857890189458-35.79903239451869v-24.712295896450996h-101.43658208778379ZM516.161764910400962,89.857708224178168l-76.777090242389932.084491638343934,12.286430099557947-11.169113911709246h75.609006878496075l-11.11834673566409,11.084622273365312Z"/>
      <polygon points="414.22457566666526 54.06079005436186 414.22457566666526 78.773085950812856 378.241811989015332 114.755875411689885 378.241811989015332 90.043579515238889 389.512279770213354 78.773085950812856 312.851317186990855 78.773085950812856 277.14732177109272 114.41159196744502 277.14732177109272 89.699296070993114 313.539935641936609 54.06079005436186 414.22457566666526 54.06079005436186"/>
      <polygon points="829.741716122283833 54.06079005436186 829.741716122283833 78.773085950812856 793.758952444633906 114.755875411689885 793.758952444633906 90.043579515238889 805.029420225833746 78.773085950812856 728.368560775519654 78.773085950812856 692.666628017868788 114.41159196744502 692.666628017868788 89.699296070993114 728.0854609314556 54.28045026579457 829.741716122283833 54.06079005436186"/>
      <polygon points="1002.890531132936303 78.773085950812856 990.975792049042866 90.677228127970011 1049.195352330934838 90.677228127970011 1049.195352330934838 115.389524024421917 999.584915030198317 165 974.872619133748231 165 1024.483056434486571 115.389524024421917 966.263496152596417 115.389524024421917 966.263496152596417 90.677228127970011 1003.393200947135483 54.06079005436186 1104.316387397844665 54.06079005436186 1104.316387397844665 78.773085950812856 1002.890531132936303 78.773085950812856"/>
      <polygon points="1000.404409150763968 20.555562543937413 1000.404409150763968 45.267858440388409 928.979504521363197 116.523754009877848 828.341377440050564 116.523754009877848 828.341377440050564 91.811458113426852 866.092045499115557 54.06079005436186 866.092045499115557 78.773085950812856 853.053673336500651 91.811458113426852 929.264770156587474 91.693177554714566 1000.404409150763968 20.555562543937413"/>
      <path d="M692.02875095573836,54.06079005436186v24.712295896450996l-35.613135320227229,35.613161103453422v-24.712295896450996l10.900839423775324-10.900865207002425s-33.957130148579381.052804051061685-56.686180142884041.052804051061685c-11.363390535118015,0-19.921875256366548-.012672456588916-20.023254909086972-.052804051061685-.002165791156585,0-.002165791156585-.002114224701472-.004228449399307-.002114224701472-.004228449402945.002114224701472-.008456898802251.002114224701472-.012685348205196.004228449402945l-36.21728792005888,36.217236353600128v-24.712295896450996l23.863202630078376-23.863202630074738L511.819147375211287,0h24.712295896450996l54.35228233916132,54.054447380261081,12.848195072469025-.456221328857282,3.552722560432812-3.550543877661767L557.236922395140937,0h24.712295896450087l37.691572900357642,37.69153422551426.354777218066374,16.369255828847599h72.033182545723321Z"/>
    </g>
  </g>
</svg>